{"glyphs":{"0":{"ha":963,"x_min":0,"x_max":0,"o":"m 482 -14 b 851 356 686 -14 851 151 l 851 617 b 482 986 851 821 688 986 b 111 617 276 986 111 821 l 111 356 b 482 -14 111 151 276 -14 z m 482 208 b 333 356 399 208 333 274 l 333 617 b 482 764 333 699 399 764 b 629 625 563 764 629 701 l 629 356 b 482 208 629 274 564 208 z "},"1":{"ha":569,"x_min":0,"x_max":0,"o":"m 458 972 l 181 972 l 111 750 l 236 750 l 236 0 l 458 0 z "},"2":{"ha":1033,"x_min":0,"x_max":0,"o":"m 704 357 b 922 649 828 411 922 507 b 599 972 922 828 778 972 l 167 972 l 167 750 l 599 750 b 696 661 656 750 696 706 b 615 560 696 618 679 590 l 221 371 b 111 197 136 331 111 260 b 306 0 111 99 185 0 l 918 0 l 918 222 l 400 222 z "},"3":{"ha":938,"x_min":0,"x_max":0,"o":"m 753 494 b 813 674 792 546 813 608 b 514 972 813 838 678 972 l 111 972 l 111 750 l 514 750 b 590 674 557 750 590 717 b 514 597 590 631 557 597 l 194 597 l 194 375 l 528 375 b 604 299 571 375 604 342 b 528 222 604 256 571 222 l 111 222 l 111 0 l 528 0 b 826 299 692 0 826 135 b 753 494 826 374 799 443 z "},"4":{"ha":993,"x_min":0,"x_max":0,"o":"m 660 492 l 350 492 l 511 972 l 300 1043 l 122 513 b 111 446 114 489 111 467 b 297 269 111 347 186 269 l 660 269 l 660 0 l 882 0 l 882 832 l 660 832 z "},"5":{"ha":1021,"x_min":0,"x_max":0,"o":"m 333 597 l 333 750 l 854 750 l 854 972 l 333 972 b 111 750 189 972 111 894 l 111 597 b 333 375 111 453 189 375 l 611 375 b 688 299 654 375 688 342 b 611 222 688 256 654 222 l 149 222 l 149 0 l 611 0 b 910 299 775 0 910 135 b 611 597 910 463 775 597 z "},"6":{"ha":1021,"x_min":0,"x_max":0,"o":"m 333 597 l 333 674 b 410 750 333 717 367 750 l 785 750 l 785 972 l 410 972 b 111 674 246 972 111 838 l 111 299 b 410 0 111 135 246 0 l 611 0 b 910 299 775 0 910 135 b 611 597 910 463 775 597 z m 410 222 b 333 299 367 222 333 256 l 333 375 l 611 375 b 688 299 654 375 688 342 b 611 222 688 256 654 222 z "},"7":{"ha":944,"x_min":0,"x_max":0,"o":"m 824 779 b 833 836 831 799 833 817 b 671 972 833 911 776 972 l 111 972 l 111 750 l 590 750 b 590 750 590 750 590 750 l 340 0 l 563 0 z "},"8":{"ha":960,"x_min":0,"x_max":0,"o":"m 775 494 b 835 674 814 546 835 608 b 536 972 835 838 700 972 l 424 972 b 125 674 260 972 125 838 b 185 494 125 608 146 546 b 111 299 139 443 111 374 b 410 0 111 135 246 0 l 550 0 b 849 299 714 0 849 135 b 775 494 849 374 821 443 z m 536 750 b 613 674 579 750 613 717 b 536 597 613 631 579 597 l 424 597 b 347 674 381 597 347 631 b 424 750 347 717 381 750 z m 410 222 b 333 299 367 222 333 256 b 410 375 333 342 367 375 l 550 375 b 626 299 593 375 626 342 b 550 222 626 256 593 222 z "},"9":{"ha":1021,"x_min":0,"x_max":0,"o":"m 410 972 b 111 674 246 972 111 838 b 410 375 111 510 246 375 l 688 375 l 688 299 b 611 222 688 256 654 222 l 236 222 l 236 0 l 611 0 b 910 299 775 0 910 135 l 910 674 b 611 972 910 838 775 972 z m 410 597 b 333 674 367 597 333 631 b 410 750 333 717 367 750 l 611 750 b 688 674 654 750 688 717 l 688 597 z "}," ":{"ha":417,"x_min":0,"x_max":0,"o":""},"A":{"ha":1111,"x_min":0,"x_max":0,"o":"m 1075 0 l 807 831 b 557 1007 769 936 669 1007 b 306 831 444 1007 340 938 l 36 0 l 271 0 l 325 167 l 789 167 l 843 0 z m 517 758 b 557 785 522 774 539 785 b 596 758 575 785 590 775 l 717 389 l 397 389 z "},"Á":{"ha":1111,"x_min":0,"x_max":0,"o":"m 572 1310 l 483 1110 l 628 1110 l 717 1310 z m 1075 0 l 807 831 b 557 1007 769 936 669 1007 b 306 831 444 1007 340 938 l 36 0 l 271 0 l 325 167 l 789 167 l 843 0 z m 517 758 b 557 785 522 774 539 785 b 596 758 575 785 590 775 l 717 389 l 397 389 z "},"Ă":{"ha":1111,"x_min":0,"x_max":0,"o":"m 557 1063 b 758 1264 668 1063 758 1151 l 640 1264 b 557 1181 640 1218 604 1181 b 474 1264 510 1181 474 1217 l 356 1264 b 557 1063 356 1151 444 1063 z m 1075 0 l 807 831 b 557 1007 769 936 669 1007 b 306 831 444 1007 340 938 l 36 0 l 271 0 l 325 167 l 789 167 l 843 0 z m 517 758 b 557 785 522 774 539 785 b 596 758 575 785 590 775 l 717 389 l 397 389 z "},"Ắ":{"ha":1111,"x_min":0,"x_max":0,"o":"m 571 1601 l 482 1401 l 626 1401 l 715 1601 z m 557 1063 b 758 1264 668 1063 758 1151 l 640 1264 b 557 1181 640 1218 604 1181 b 474 1264 510 1181 474 1217 l 356 1264 b 557 1063 356 1151 444 1063 z m 1075 0 l 807 831 b 557 1007 769 936 669 1007 b 306 831 444 1007 340 938 l 36 0 l 271 0 l 325 167 l 789 167 l 843 0 z m 517 758 b 557 785 522 774 539 785 b 596 758 575 785 590 775 l 717 389 l 397 389 z "},"Ặ":{"ha":1111,"x_min":0,"x_max":0,"o":"m 557 1063 b 758 1264 668 1063 758 1151 l 640 1264 b 557 1181 640 1218 604 1181 b 474 1264 510 1181 474 1217 l 356 1264 b 557 1063 356 1151 444 1063 z m 807 831 b 557 1007 769 936 669 1007 b 306 831 444 1007 340 938 l 36 0 l 271 0 l 325 167 l 789 167 l 843 0 l 1075 0 z m 517 758 b 557 785 522 774 539 785 b 596 758 575 785 590 775 l 717 389 l 397 389 z m 557 -112 b 438 -232 490 -112 438 -165 b 557 -351 438 -299 490 -351 b 676 -232 624 -351 676 -299 b 557 -112 676 -165 624 -112 z "},"Ằ":{"ha":1111,"x_min":0,"x_max":0,"o":"m 540 1601 l 396 1601 l 485 1401 l 629 1401 z m 557 1063 b 758 1264 668 1063 758 1151 l 640 1264 b 557 1181 640 1218 604 1181 b 474 1264 510 1181 474 1217 l 356 1264 b 557 1063 356 1151 444 1063 z m 1075 0 l 807 831 b 557 1007 769 936 669 1007 b 306 831 444 1007 340 938 l 36 0 l 271 0 l 325 167 l 789 167 l 843 0 z m 517 758 b 557 785 522 774 539 785 b 596 758 575 785 590 775 l 717 389 l 397 389 z "},"Ẵ":{"ha":1111,"x_min":0,"x_max":0,"o":"m 458 1479 b 533 1447 482 1479 507 1464 b 650 1403 568 1425 606 1403 b 822 1590 742 1403 822 1478 l 704 1590 b 653 1519 704 1544 685 1519 b 576 1551 628 1519 603 1535 b 461 1596 543 1572 507 1596 b 289 1408 368 1596 289 1521 l 406 1408 b 458 1479 406 1454 426 1479 z m 557 1181 b 474 1264 510 1181 474 1217 l 356 1264 b 557 1063 356 1151 444 1063 b 758 1264 668 1063 758 1151 l 640 1264 b 557 1181 640 1218 604 1181 z m 1075 0 l 807 831 b 557 1007 769 936 669 1007 b 306 831 444 1007 340 938 l 36 0 l 271 0 l 325 167 l 789 167 l 843 0 z m 517 758 b 557 785 522 774 539 785 b 596 758 575 785 590 775 l 717 389 l 397 389 z "},"Ǎ":{"ha":1111,"x_min":0,"x_max":0,"o":"m 793 1272 l 642 1272 l 557 1192 l 472 1272 l 321 1272 l 497 1096 b 617 1096 532 1061 582 1061 z m 1075 0 l 807 831 b 557 1007 769 936 669 1007 b 306 831 444 1007 340 938 l 36 0 l 271 0 l 325 167 l 789 167 l 843 0 z m 517 758 b 557 785 522 774 539 785 b 596 758 575 785 590 775 l 717 389 l 397 389 z "},"Â":{"ha":1111,"x_min":0,"x_max":0,"o":"m 642 1111 l 793 1111 l 617 1288 b 497 1288 582 1322 532 1322 l 321 1111 l 472 1111 l 557 1192 z m 1075 0 l 807 831 b 557 1007 769 936 669 1007 b 306 831 444 1007 340 938 l 36 0 l 271 0 l 325 167 l 789 167 l 843 0 z m 517 758 b 557 785 522 774 539 785 b 596 758 575 785 590 775 l 717 389 l 397 389 z "},"Ấ":{"ha":1111,"x_min":0,"x_max":0,"o":"m 571 1601 l 482 1401 l 626 1401 l 715 1601 z m 642 1111 l 793 1111 l 617 1288 b 497 1288 582 1322 532 1322 l 321 1111 l 472 1111 l 557 1192 z m 1075 0 l 807 831 b 557 1007 769 936 669 1007 b 306 831 444 1007 340 938 l 36 0 l 271 0 l 325 167 l 789 167 l 843 0 z m 517 758 b 557 785 522 774 539 785 b 596 758 575 785 590 775 l 717 389 l 397 389 z "},"Ậ":{"ha":1111,"x_min":0,"x_max":0,"o":"m 642 1111 l 793 1111 l 617 1288 b 497 1288 582 1322 532 1322 l 321 1111 l 472 1111 l 557 1192 z m 807 831 b 557 1007 769 936 669 1007 b 306 831 444 1007 340 938 l 36 0 l 271 0 l 325 167 l 789 167 l 843 0 l 1075 0 z m 517 758 b 557 785 522 774 539 785 b 596 758 575 785 590 775 l 717 389 l 397 389 z m 557 -112 b 438 -232 490 -112 438 -165 b 557 -351 438 -299 490 -351 b 676 -232 624 -351 676 -299 b 557 -112 676 -165 624 -112 z "},"Ầ":{"ha":1111,"x_min":0,"x_max":0,"o":"m 540 1601 l 396 1601 l 485 1401 l 629 1401 z m 642 1111 l 793 1111 l 617 1288 b 497 1288 582 1322 532 1322 l 321 1111 l 472 1111 l 557 1192 z m 1075 0 l 807 831 b 557 1007 769 936 669 1007 b 306 831 444 1007 340 938 l 36 0 l 271 0 l 325 167 l 789 167 l 843 0 z m 517 758 b 557 785 522 774 539 785 b 596 758 575 785 590 775 l 717 389 l 397 389 z "},"Ẫ":{"ha":1111,"x_min":0,"x_max":0,"o":"m 458 1479 b 533 1447 482 1479 507 1464 b 650 1403 568 1425 606 1403 b 822 1590 742 1403 822 1478 l 704 1590 b 653 1519 704 1544 685 1519 b 576 1551 628 1519 603 1535 b 461 1596 543 1572 507 1596 b 289 1408 368 1596 289 1521 l 406 1408 b 458 1479 406 1454 426 1479 z m 321 1111 l 472 1111 l 557 1192 l 642 1111 l 793 1111 l 617 1288 b 497 1288 582 1322 532 1322 z m 1075 0 l 807 831 b 557 1007 769 936 669 1007 b 306 831 444 1007 340 938 l 36 0 l 271 0 l 325 167 l 789 167 l 843 0 z m 517 758 b 557 785 522 774 539 785 b 596 758 575 785 590 775 l 717 389 l 397 389 z "},"Ä":{"ha":1111,"x_min":0,"x_max":0,"o":"m 419 1114 b 514 1207 472 1114 514 1156 b 419 1300 514 1258 472 1300 b 326 1207 368 1300 326 1258 b 419 1114 326 1156 368 1114 z m 693 1114 b 788 1207 746 1114 788 1156 b 693 1300 788 1258 746 1300 b 600 1207 642 1300 600 1258 b 693 1114 600 1156 642 1114 z m 1075 0 l 807 831 b 557 1007 769 936 669 1007 b 306 831 444 1007 340 938 l 36 0 l 271 0 l 325 167 l 789 167 l 843 0 z m 517 758 b 557 785 522 774 539 785 b 596 758 575 785 590 775 l 717 389 l 397 389 z "},"Ȧ":{"ha":1111,"x_min":0,"x_max":0,"o":"m 557 1088 b 676 1207 624 1088 676 1140 b 557 1326 676 1274 624 1326 b 438 1207 490 1326 438 1274 b 557 1088 438 1140 490 1088 z m 1075 0 l 807 831 b 557 1007 769 936 669 1007 b 306 831 444 1007 340 938 l 36 0 l 271 0 l 325 167 l 789 167 l 843 0 z m 517 758 b 557 785 522 774 539 785 b 596 758 575 785 590 775 l 717 389 l 397 389 z "},"Ạ":{"ha":1111,"x_min":0,"x_max":0,"o":"m 807 831 b 557 1007 769 936 669 1007 b 306 831 444 1007 340 938 l 36 0 l 271 0 l 325 167 l 789 167 l 843 0 l 1075 0 z m 517 758 b 557 785 522 774 539 785 b 596 758 575 785 590 775 l 717 389 l 397 389 z m 557 -112 b 438 -232 490 -112 438 -165 b 557 -351 438 -299 490 -351 b 676 -232 624 -351 676 -299 b 557 -112 676 -165 624 -112 z "},"À":{"ha":1111,"x_min":0,"x_max":0,"o":"m 542 1310 l 397 1310 l 486 1110 l 631 1110 z m 1075 0 l 807 831 b 557 1007 769 936 669 1007 b 306 831 444 1007 340 938 l 36 0 l 271 0 l 325 167 l 789 167 l 843 0 z m 517 758 b 557 785 522 774 539 785 b 596 758 575 785 590 775 l 717 389 l 397 389 z "},"Ā":{"ha":1111,"x_min":0,"x_max":0,"o":"m 321 1239 l 321 1121 l 793 1121 l 793 1239 z m 1075 0 l 807 831 b 557 1007 769 936 669 1007 b 306 831 444 1007 340 938 l 36 0 l 271 0 l 325 167 l 789 167 l 843 0 z m 517 758 b 557 785 522 774 539 785 b 596 758 575 785 590 775 l 717 389 l 397 389 z "},"Ą":{"ha":1111,"x_min":0,"x_max":0,"o":"m 1032 -132 b 975 -157 1015 -149 997 -157 b 896 -76 931 -157 896 -122 b 968 0 896 -37 928 -3 l 1075 0 l 807 831 b 557 1007 769 936 669 1007 b 306 831 444 1007 340 938 l 36 0 l 271 0 l 325 167 l 789 167 l 826 51 b 778 -76 796 17 778 -28 b 975 -275 778 -187 865 -275 b 1117 -214 1029 -275 1079 -253 z m 517 758 b 557 785 522 774 539 785 b 596 758 575 785 590 775 l 717 389 l 397 389 z "},"Å":{"ha":1111,"x_min":0,"x_max":0,"o":"m 557 1075 b 689 1207 631 1075 689 1133 b 557 1339 689 1281 631 1339 b 425 1207 483 1339 425 1281 b 557 1075 425 1133 483 1075 z m 557 1244 b 594 1207 576 1244 594 1226 b 557 1169 594 1186 578 1169 b 519 1207 536 1169 519 1186 b 557 1244 519 1228 536 1244 z m 1075 0 l 807 831 b 557 1007 769 936 669 1007 b 306 831 444 1007 340 938 l 36 0 l 271 0 l 325 167 l 789 167 l 843 0 z m 517 758 b 557 785 522 774 539 785 b 596 758 575 785 590 775 l 717 389 l 397 389 z "},"Ã":{"ha":1111,"x_min":0,"x_max":0,"o":"m 488 1186 b 563 1154 511 1186 536 1171 b 679 1110 597 1132 635 1110 b 851 1297 771 1110 851 1185 l 733 1297 b 682 1226 733 1251 714 1226 b 606 1258 657 1226 632 1242 b 490 1303 572 1279 536 1303 b 318 1115 397 1303 318 1228 l 435 1115 b 488 1186 435 1161 456 1186 z m 1075 0 l 807 831 b 557 1007 769 936 669 1007 b 306 831 444 1007 340 938 l 36 0 l 271 0 l 325 167 l 789 167 l 843 0 z m 517 758 b 557 785 522 774 539 785 b 596 758 575 785 590 775 l 717 389 l 397 389 z "},"Æ":{"ha":1497,"x_min":0,"x_max":0,"o":"m 1397 972 l 546 972 b 294 796 433 972 329 904 l 36 0 l 271 0 l 325 167 l 626 167 l 626 83 b 710 0 626 29 656 0 l 1397 0 l 1397 222 l 847 222 l 847 375 l 1172 375 l 1172 597 l 849 597 l 849 750 l 1397 750 z m 397 389 l 506 724 b 546 750 511 739 528 750 l 626 750 l 626 389 z "},"B":{"ha":1111,"x_min":0,"x_max":0,"o":"m 926 519 b 969 674 954 565 969 618 b 671 972 969 838 835 972 l 199 972 b 88 861 126 972 88 933 l 88 111 b 199 0 88 39 126 0 l 726 0 b 1025 299 890 0 1025 135 b 926 519 1025 386 986 465 z m 671 750 b 747 674 714 750 747 717 b 671 597 747 631 714 597 l 310 597 l 310 750 z m 310 222 l 310 375 l 726 375 b 803 299 769 375 803 342 b 726 222 803 256 769 222 z "},"C":{"ha":1167,"x_min":0,"x_max":0,"o":"m 604 -35 b 1056 225 797 -35 965 69 l 864 336 b 604 188 813 254 729 188 b 306 486 438 188 306 319 b 604 785 306 653 438 785 b 864 636 729 785 813 718 l 1056 747 b 604 1007 965 903 797 1007 b 83 486 317 1007 83 774 b 604 -35 83 199 317 -35 z "},"Ć":{"ha":1167,"x_min":0,"x_max":0,"o":"m 619 1310 l 531 1110 l 675 1110 l 764 1310 z m 604 -35 b 1056 225 797 -35 965 69 l 864 336 b 604 188 813 254 729 188 b 306 486 438 188 306 319 b 604 785 306 653 438 785 b 864 636 729 785 813 718 l 1056 747 b 604 1007 965 903 797 1007 b 83 486 317 1007 83 774 b 604 -35 83 199 317 -35 z "},"Č":{"ha":1167,"x_min":0,"x_max":0,"o":"m 544 1096 b 664 1096 579 1061 629 1061 l 840 1272 l 689 1272 l 604 1192 l 519 1272 l 368 1272 z m 604 -35 b 1056 225 797 -35 965 69 l 864 336 b 604 188 813 254 729 188 b 306 486 438 188 306 319 b 604 785 306 653 438 785 b 864 636 729 785 813 718 l 1056 747 b 604 1007 965 903 797 1007 b 83 486 317 1007 83 774 b 604 -35 83 199 317 -35 z "},"Ç":{"ha":1167,"x_min":0,"x_max":0,"o":"m 604 188 b 306 486 438 188 306 319 b 604 785 306 653 438 785 b 864 636 729 785 813 718 l 1056 747 b 604 1007 965 903 797 1007 b 83 486 317 1007 83 774 b 575 -33 83 208 301 -18 b 642 -110 613 -39 642 -72 b 563 -190 642 -156 607 -190 b 506 -165 540 -190 522 -182 l 421 -247 b 563 -308 458 -286 508 -308 b 760 -110 672 -308 760 -221 b 736 -18 760 -76 751 -46 b 1056 225 872 18 986 106 l 864 336 b 604 188 813 254 729 188 z "},"Ċ":{"ha":1167,"x_min":0,"x_max":0,"o":"m 604 1088 b 724 1207 671 1088 724 1140 b 604 1326 724 1274 671 1326 b 485 1207 538 1326 485 1274 b 604 1088 485 1140 538 1088 z m 604 -35 b 1056 225 797 -35 965 69 l 864 336 b 604 188 813 254 729 188 b 306 486 438 188 306 319 b 604 785 306 653 438 785 b 864 636 729 785 813 718 l 1056 747 b 604 1007 965 903 797 1007 b 83 486 317 1007 83 774 b 604 -35 83 199 317 -35 z "},"D":{"ha":1111,"x_min":0,"x_max":0,"o":"m 528 -14 b 1028 486 804 -14 1028 210 b 528 986 1028 763 804 986 l 333 986 b 111 764 189 986 111 908 l 111 208 b 333 -14 111 64 189 -14 z m 333 764 l 528 764 b 806 486 681 764 806 639 b 528 208 806 333 681 208 l 333 208 z "},"Ð":{"ha":1111,"x_min":0,"x_max":0,"o":"m 333 986 b 111 764 189 986 111 908 l 111 546 l 4 546 l 4 426 l 111 426 l 111 208 b 333 -14 111 64 189 -14 l 528 -14 b 1028 486 804 -14 1028 210 b 528 986 1028 763 804 986 z m 333 208 l 333 426 l 449 426 l 449 546 l 333 546 l 333 764 l 528 764 b 806 486 681 764 806 639 b 528 208 806 333 681 208 z "},"Ď":{"ha":1111,"x_min":0,"x_max":0,"o":"m 468 1096 b 588 1096 503 1061 553 1061 l 764 1272 l 613 1272 l 528 1192 l 443 1272 l 292 1272 z m 528 -14 b 1028 486 804 -14 1028 210 b 528 986 1028 763 804 986 l 333 986 b 111 764 189 986 111 908 l 111 208 b 333 -14 111 64 189 -14 z m 333 764 l 528 764 b 806 486 681 764 806 639 b 528 208 806 333 681 208 l 333 208 z "},"Đ":{"ha":1111,"x_min":0,"x_max":0,"o":"m 333 986 b 111 764 189 986 111 908 l 111 546 l 4 546 l 4 426 l 111 426 l 111 208 b 333 -14 111 64 189 -14 l 528 -14 b 1028 486 804 -14 1028 210 b 528 986 1028 763 804 986 z m 333 208 l 333 426 l 449 426 l 449 546 l 333 546 l 333 764 l 528 764 b 806 486 681 764 806 639 b 528 208 806 333 681 208 z "},"E":{"ha":1056,"x_min":0,"x_max":0,"o":"m 956 972 l 324 972 b 101 750 179 972 101 894 l 101 222 b 324 0 101 78 179 0 l 956 0 l 956 222 l 324 222 l 324 375 l 758 375 l 758 597 l 324 597 l 324 750 l 956 750 z "},"É":{"ha":1056,"x_min":0,"x_max":0,"o":"m 558 1310 l 469 1110 l 614 1110 l 703 1310 z m 956 972 l 324 972 b 101 750 179 972 101 894 l 101 222 b 324 0 101 78 179 0 l 956 0 l 956 222 l 324 222 l 324 375 l 758 375 l 758 597 l 324 597 l 324 750 l 956 750 z "},"Ĕ":{"ha":1056,"x_min":0,"x_max":0,"o":"m 543 1063 b 744 1264 654 1063 744 1151 l 626 1264 b 543 1181 626 1218 590 1181 b 460 1264 496 1181 460 1217 l 342 1264 b 543 1063 342 1151 431 1063 z m 956 972 l 324 972 b 101 750 179 972 101 894 l 101 222 b 324 0 101 78 179 0 l 956 0 l 956 222 l 324 222 l 324 375 l 758 375 l 758 597 l 324 597 l 324 750 l 956 750 z "},"Ě":{"ha":1056,"x_min":0,"x_max":0,"o":"m 779 1272 l 628 1272 l 543 1192 l 458 1272 l 307 1272 l 483 1096 b 603 1096 518 1061 568 1061 z m 956 972 l 324 972 b 101 750 179 972 101 894 l 101 222 b 324 0 101 78 179 0 l 956 0 l 956 222 l 324 222 l 324 375 l 758 375 l 758 597 l 324 597 l 324 750 l 956 750 z "},"Ê":{"ha":1056,"x_min":0,"x_max":0,"o":"m 628 1111 l 779 1111 l 603 1288 b 483 1288 568 1322 518 1322 l 307 1111 l 458 1111 l 543 1192 z m 956 972 l 324 972 b 101 750 179 972 101 894 l 101 222 b 324 0 101 78 179 0 l 956 0 l 956 222 l 324 222 l 324 375 l 758 375 l 758 597 l 324 597 l 324 750 l 956 750 z "},"Ế":{"ha":1056,"x_min":0,"x_max":0,"o":"m 558 1601 l 469 1401 l 614 1401 l 703 1601 z m 628 1111 l 779 1111 l 603 1288 b 483 1288 568 1322 518 1322 l 307 1111 l 458 1111 l 543 1192 z m 956 972 l 324 972 b 101 750 179 972 101 894 l 101 222 b 324 0 101 78 179 0 l 956 0 l 956 222 l 324 222 l 324 375 l 758 375 l 758 597 l 324 597 l 324 750 l 956 750 z "},"Ệ":{"ha":1056,"x_min":0,"x_max":0,"o":"m 628 1111 l 779 1111 l 603 1288 b 483 1288 568 1322 518 1322 l 307 1111 l 458 1111 l 543 1192 z m 956 972 l 324 972 b 101 750 179 972 101 894 l 101 222 b 324 0 101 78 179 0 l 956 0 l 956 222 l 324 222 l 324 375 l 758 375 l 758 597 l 324 597 l 324 750 l 956 750 z m 543 -112 b 424 -232 476 -112 424 -165 b 543 -351 424 -299 476 -351 b 663 -232 610 -351 663 -299 b 543 -112 663 -165 610 -112 z "},"Ề":{"ha":1056,"x_min":0,"x_max":0,"o":"m 528 1601 l 383 1601 l 472 1401 l 617 1401 z m 628 1111 l 779 1111 l 603 1288 b 483 1288 568 1322 518 1322 l 307 1111 l 458 1111 l 543 1192 z m 956 972 l 324 972 b 101 750 179 972 101 894 l 101 222 b 324 0 101 78 179 0 l 956 0 l 956 222 l 324 222 l 324 375 l 758 375 l 758 597 l 324 597 l 324 750 l 956 750 z "},"Ễ":{"ha":1056,"x_min":0,"x_max":0,"o":"m 446 1479 b 521 1447 469 1479 494 1464 b 638 1403 556 1425 593 1403 b 810 1590 729 1403 810 1478 l 692 1590 b 640 1519 692 1544 672 1519 b 564 1551 615 1519 590 1535 b 449 1596 531 1572 494 1596 b 276 1408 356 1596 276 1521 l 393 1408 b 446 1479 393 1454 414 1479 z m 307 1111 l 458 1111 l 543 1192 l 628 1111 l 779 1111 l 603 1288 b 483 1288 568 1322 518 1322 z m 956 972 l 324 972 b 101 750 179 972 101 894 l 101 222 b 324 0 101 78 179 0 l 956 0 l 956 222 l 324 222 l 324 375 l 758 375 l 758 597 l 324 597 l 324 750 l 956 750 z "},"Ë":{"ha":1056,"x_min":0,"x_max":0,"o":"m 406 1114 b 500 1207 458 1114 500 1156 b 406 1300 500 1258 458 1300 b 313 1207 354 1300 313 1258 b 406 1114 313 1156 354 1114 z m 679 1114 b 774 1207 732 1114 774 1156 b 679 1300 774 1258 732 1300 b 586 1207 628 1300 586 1258 b 679 1114 586 1156 628 1114 z m 956 972 l 324 972 b 101 750 179 972 101 894 l 101 222 b 324 0 101 78 179 0 l 956 0 l 956 222 l 324 222 l 324 375 l 758 375 l 758 597 l 324 597 l 324 750 l 956 750 z "},"Ė":{"ha":1056,"x_min":0,"x_max":0,"o":"m 543 1088 b 663 1207 610 1088 663 1140 b 543 1326 663 1274 610 1326 b 424 1207 476 1326 424 1274 b 543 1088 424 1140 476 1088 z m 956 972 l 324 972 b 101 750 179 972 101 894 l 101 222 b 324 0 101 78 179 0 l 956 0 l 956 222 l 324 222 l 324 375 l 758 375 l 758 597 l 324 597 l 324 750 l 956 750 z "},"Ẹ":{"ha":1056,"x_min":0,"x_max":0,"o":"m 956 972 l 324 972 b 101 750 179 972 101 894 l 101 222 b 324 0 101 78 179 0 l 956 0 l 956 222 l 324 222 l 324 375 l 758 375 l 758 597 l 324 597 l 324 750 l 956 750 z m 543 -112 b 424 -232 476 -112 424 -165 b 543 -351 424 -299 476 -351 b 663 -232 610 -351 663 -299 b 543 -112 663 -165 610 -112 z "},"È":{"ha":1056,"x_min":0,"x_max":0,"o":"m 528 1310 l 383 1310 l 472 1110 l 617 1110 z m 956 972 l 324 972 b 101 750 179 972 101 894 l 101 222 b 324 0 101 78 179 0 l 956 0 l 956 222 l 324 222 l 324 375 l 758 375 l 758 597 l 324 597 l 324 750 l 956 750 z "},"Ē":{"ha":1056,"x_min":0,"x_max":0,"o":"m 307 1239 l 307 1121 l 779 1121 l 779 1239 z m 956 972 l 324 972 b 101 750 179 972 101 894 l 101 222 b 324 0 101 78 179 0 l 956 0 l 956 222 l 324 222 l 324 375 l 758 375 l 758 597 l 324 597 l 324 750 l 956 750 z "},"Ę":{"ha":1056,"x_min":0,"x_max":0,"o":"m 956 972 l 324 972 b 101 750 179 972 101 894 l 101 222 b 324 0 101 78 179 0 l 406 0 b 390 -76 396 -24 390 -50 b 588 -275 390 -187 478 -275 b 729 -214 642 -275 692 -253 l 644 -132 b 588 -157 628 -149 610 -157 b 508 -76 543 -157 508 -122 b 581 0 508 -37 540 -3 l 956 0 l 956 222 l 324 222 l 324 375 l 758 375 l 758 597 l 324 597 l 324 750 l 956 750 z "},"Ẽ":{"ha":1056,"x_min":0,"x_max":0,"o":"m 474 1186 b 549 1154 497 1186 522 1171 b 665 1110 583 1132 621 1110 b 838 1297 757 1110 838 1185 l 719 1297 b 668 1226 719 1251 700 1226 b 592 1258 643 1226 618 1242 b 476 1303 558 1279 522 1303 b 304 1115 383 1303 304 1228 l 421 1115 b 474 1186 421 1161 442 1186 z m 956 972 l 324 972 b 101 750 179 972 101 894 l 101 222 b 324 0 101 78 179 0 l 956 0 l 956 222 l 324 222 l 324 375 l 758 375 l 758 597 l 324 597 l 324 750 l 956 750 z "},"F":{"ha":972,"x_min":0,"x_max":0,"o":"m 886 972 l 310 972 b 88 750 165 972 88 894 l 88 0 l 310 0 l 310 375 l 661 375 l 661 597 l 310 597 l 310 750 l 886 750 z "},"G":{"ha":1139,"x_min":0,"x_max":0,"o":"m 604 -35 b 1003 153 764 -35 910 38 b 1047 289 1038 196 1047 235 l 1047 486 b 936 597 1047 558 1008 597 l 607 597 l 607 375 l 825 375 l 825 286 b 604 188 769 226 690 188 b 306 486 442 188 306 324 b 604 785 306 649 442 785 b 814 697 690 785 757 754 l 972 853 b 604 1007 879 949 749 1007 b 83 486 319 1007 83 771 b 604 -35 83 201 319 -35 z "},"Ğ":{"ha":1139,"x_min":0,"x_max":0,"o":"m 604 1063 b 806 1264 715 1063 806 1151 l 688 1264 b 604 1181 688 1218 651 1181 b 521 1264 557 1181 521 1217 l 403 1264 b 604 1063 403 1151 492 1063 z m 604 -35 b 1003 153 764 -35 910 38 b 1047 289 1038 196 1047 235 l 1047 486 b 936 597 1047 558 1008 597 l 607 597 l 607 375 l 825 375 l 825 286 b 604 188 769 226 690 188 b 306 486 442 188 306 324 b 604 785 306 649 442 785 b 814 697 690 785 757 754 l 972 853 b 604 1007 879 949 749 1007 b 83 486 319 1007 83 771 b 604 -35 83 201 319 -35 z "},"Ǧ":{"ha":1139,"x_min":0,"x_max":0,"o":"m 544 1096 b 664 1096 579 1061 629 1061 l 840 1272 l 689 1272 l 604 1192 l 519 1272 l 368 1272 z m 604 -35 b 1003 153 764 -35 910 38 b 1047 289 1038 196 1047 235 l 1047 486 b 936 597 1047 558 1008 597 l 607 597 l 607 375 l 825 375 l 825 286 b 604 188 769 226 690 188 b 306 486 442 188 306 324 b 604 785 306 649 442 785 b 814 697 690 785 757 754 l 972 853 b 604 1007 879 949 749 1007 b 83 486 319 1007 83 771 b 604 -35 83 201 319 -35 z "},"Ģ":{"ha":1139,"x_min":0,"x_max":0,"o":"m 724 1283 b 614 1392 724 1343 675 1392 b 506 1283 554 1392 506 1343 b 569 1183 506 1239 532 1200 l 518 1128 l 554 1079 l 682 1197 b 724 1283 707 1217 724 1249 z m 604 -35 b 1003 153 764 -35 910 38 b 1047 289 1038 196 1047 235 l 1047 486 b 936 597 1047 558 1008 597 l 607 597 l 607 375 l 825 375 l 825 286 b 604 188 769 226 690 188 b 306 486 442 188 306 324 b 604 785 306 649 442 785 b 814 697 690 785 757 754 l 972 853 b 604 1007 879 949 749 1007 b 83 486 319 1007 83 771 b 604 -35 83 201 319 -35 z "},"Ġ":{"ha":1139,"x_min":0,"x_max":0,"o":"m 604 1088 b 724 1207 671 1088 724 1140 b 604 1326 724 1274 671 1326 b 485 1207 538 1326 485 1274 b 604 1088 485 1140 538 1088 z m 604 -35 b 1003 153 764 -35 910 38 b 1047 289 1038 196 1047 235 l 1047 486 b 936 597 1047 558 1008 597 l 607 597 l 607 375 l 825 375 l 825 286 b 604 188 769 226 690 188 b 306 486 442 188 306 324 b 604 785 306 649 442 785 b 814 697 690 785 757 754 l 972 853 b 604 1007 879 949 749 1007 b 83 486 319 1007 83 771 b 604 -35 83 201 319 -35 z "},"Ȝ":{"ha":1047,"x_min":0,"x_max":0,"o":"m 600 528 l 850 740 b 896 838 882 767 896 803 b 763 972 896 906 843 972 l 160 972 l 160 750 l 518 750 l 268 538 b 222 440 236 511 222 475 b 356 306 222 372 275 306 l 638 306 b 714 229 681 306 714 272 b 638 153 714 186 681 153 l 360 153 b 296 186 333 153 310 165 l 111 64 b 360 -69 165 -17 257 -69 l 638 -69 b 936 229 801 -69 936 65 b 638 528 936 393 803 528 z "},"H":{"ha":1111,"x_min":0,"x_max":0,"o":"m 775 597 l 338 597 l 338 972 l 115 972 l 115 0 l 338 0 l 338 375 l 775 375 l 775 0 l 997 0 l 997 972 l 775 972 z "},"Ħ":{"ha":1111,"x_min":0,"x_max":0,"o":"m 997 833 l 997 972 l 775 972 l 775 833 l 338 833 l 338 972 l 115 972 l 115 833 l 6 833 l 6 715 l 115 715 l 115 0 l 338 0 l 338 375 l 775 375 l 775 0 l 997 0 l 997 715 l 1110 715 l 1110 833 z m 338 597 l 338 715 l 775 715 l 775 597 z "},"I":{"ha":417,"x_min":0,"x_max":0,"o":"m 319 0 l 319 972 l 97 972 l 97 0 z "},"Í":{"ha":417,"x_min":0,"x_max":0,"o":"m 224 1310 l 135 1110 l 279 1110 l 368 1310 z m 319 0 l 319 972 l 97 972 l 97 0 z "},"Ǐ":{"ha":417,"x_min":0,"x_max":0,"o":"m 149 1096 b 268 1096 183 1061 233 1061 l 444 1272 l 293 1272 l 208 1192 l 124 1272 l -28 1272 z m 319 0 l 319 972 l 97 972 l 97 0 z "},"Î":{"ha":417,"x_min":0,"x_max":0,"o":"m -28 1111 l 124 1111 l 208 1192 l 293 1111 l 444 1111 l 268 1288 b 149 1288 233 1322 183 1322 z m 319 0 l 319 972 l 97 972 l 97 0 z "},"Ï":{"ha":417,"x_min":0,"x_max":0,"o":"m 71 1114 b 165 1207 124 1114 165 1156 b 71 1300 165 1258 124 1300 b -22 1207 19 1300 -22 1258 b 71 1114 -22 1156 19 1114 z m 344 1114 b 439 1207 397 1114 439 1156 b 344 1300 439 1258 397 1300 b 251 1207 293 1300 251 1258 b 344 1114 251 1156 293 1114 z m 319 0 l 319 972 l 97 972 l 97 0 z "},"İ":{"ha":417,"x_min":0,"x_max":0,"o":"m 208 1088 b 328 1207 275 1088 328 1140 b 208 1326 328 1274 275 1326 b 89 1207 142 1326 89 1274 b 208 1088 89 1140 142 1088 z m 319 0 l 319 972 l 97 972 l 97 0 z "},"Ị":{"ha":417,"x_min":0,"x_max":0,"o":"m 319 0 l 319 972 l 97 972 l 97 0 z m 208 -351 b 328 -232 275 -351 328 -299 b 208 -112 328 -165 275 -112 b 89 -232 142 -112 89 -165 b 208 -351 89 -299 142 -351 z "},"Ì":{"ha":417,"x_min":0,"x_max":0,"o":"m 49 1310 l 138 1110 l 282 1110 l 193 1310 z m 319 0 l 319 972 l 97 972 l 97 0 z "},"Ī":{"ha":417,"x_min":0,"x_max":0,"o":"m -28 1239 l -28 1121 l 444 1121 l 444 1239 z m 319 0 l 319 972 l 97 972 l 97 0 z "},"Į":{"ha":417,"x_min":0,"x_max":0,"o":"m 292 -132 b 235 -157 275 -149 257 -157 b 156 -76 190 -157 156 -122 b 228 0 156 -37 188 -3 l 319 0 l 319 972 l 97 972 l 97 63 b 38 -76 60 28 38 -22 b 235 -275 38 -187 125 -275 b 376 -214 289 -275 339 -253 z "},"Ĩ":{"ha":417,"x_min":0,"x_max":0,"o":"m 331 1110 b 503 1297 422 1110 503 1185 l 385 1297 b 333 1226 385 1251 365 1226 b 257 1258 308 1226 283 1242 b 142 1303 224 1279 188 1303 b -31 1115 49 1303 -31 1228 l 86 1115 b 139 1186 86 1161 107 1186 b 214 1154 163 1186 188 1171 b 331 1110 249 1132 286 1110 z m 319 0 l 319 972 l 97 972 l 97 0 z "},"J":{"ha":833,"x_min":0,"x_max":0,"o":"m 326 0 b 771 444 596 0 771 175 l 771 972 l 549 972 l 549 444 b 326 222 549 300 471 222 l 111 222 l 111 0 z "},"K":{"ha":1083,"x_min":0,"x_max":0,"o":"m 322 0 l 322 972 l 100 972 l 100 0 z m 985 0 l 619 417 b 592 486 600 438 592 463 b 619 556 592 510 601 535 l 985 972 l 689 972 l 453 703 b 369 486 397 639 369 563 b 453 269 369 410 396 335 l 689 0 z "},"Ķ":{"ha":1083,"x_min":0,"x_max":0,"o":"m 607 1283 b 497 1392 607 1343 558 1392 b 389 1283 438 1392 389 1343 b 453 1183 389 1239 415 1200 l 401 1128 l 438 1079 l 565 1197 b 607 1283 590 1217 607 1249 z m 322 0 l 322 972 l 100 972 l 100 0 z m 985 0 l 619 417 b 592 486 600 438 592 463 b 619 556 592 510 601 535 l 985 972 l 689 972 l 453 703 b 369 486 397 639 369 563 b 453 269 369 410 396 335 l 689 0 z "},"L":{"ha":972,"x_min":0,"x_max":0,"o":"m 858 0 l 858 222 l 338 222 l 338 972 l 115 972 l 115 222 b 338 0 115 78 193 0 z "},"Ĺ":{"ha":972,"x_min":0,"x_max":0,"o":"m 153 1110 l 297 1110 l 386 1310 l 242 1310 z m 858 0 l 858 222 l 338 222 l 338 972 l 115 972 l 115 222 b 338 0 115 78 193 0 z "},"Ľ":{"ha":972,"x_min":0,"x_max":0,"o":"m 592 910 l 681 1110 l 536 1110 l 447 910 z m 858 0 l 858 222 l 338 222 l 338 972 l 115 972 l 115 222 b 338 0 115 78 193 0 z "},"Ļ":{"ha":972,"x_min":0,"x_max":0,"o":"m 346 1283 b 236 1392 346 1343 297 1392 b 128 1283 176 1392 128 1343 b 192 1183 128 1239 154 1200 l 140 1128 l 176 1079 l 304 1197 b 346 1283 329 1217 346 1249 z m 858 0 l 858 222 l 338 222 l 338 972 l 115 972 l 115 222 b 338 0 115 78 193 0 z "},"Ł":{"ha":972,"x_min":0,"x_max":0,"o":"m 338 511 l 535 708 l 451 792 l 338 678 l 338 972 l 115 972 l 115 457 l -79 263 l 4 179 l 115 290 l 115 222 b 338 0 115 78 193 0 l 858 0 l 858 222 l 338 222 z "},"M":{"ha":1528,"x_min":0,"x_max":0,"o":"m 764 -35 b 1019 189 882 -35 999 40 l 1094 754 b 1129 786 1097 776 1113 786 b 1163 754 1144 786 1160 776 l 1261 0 l 1486 0 l 1383 783 b 1129 1007 1364 932 1246 1007 b 874 783 1011 1007 893 932 l 799 218 b 765 186 796 197 781 186 b 731 218 749 186 733 197 l 654 785 b 400 1007 635 932 518 1007 b 144 783 282 1007 165 932 l 42 0 l 267 0 l 365 754 b 400 786 368 776 383 786 b 433 754 415 786 431 776 l 510 188 b 764 -35 529 40 646 -35 z "},"N":{"ha":1250,"x_min":0,"x_max":0,"o":"m 857 -35 b 1121 231 1001 -35 1121 85 l 1121 974 l 899 974 l 899 231 b 857 188 899 207 879 188 b 818 214 839 188 824 199 l 646 828 b 396 1008 611 932 513 1008 b 131 743 250 1008 131 889 l 131 0 l 353 0 l 353 743 b 396 786 353 767 372 786 b 435 760 413 786 428 775 l 606 146 b 857 -35 640 42 740 -35 z "},"Ń":{"ha":1250,"x_min":0,"x_max":0,"o":"m 786 1310 l 642 1310 l 553 1110 l 697 1110 z m 857 -35 b 1121 231 1001 -35 1121 85 l 1121 974 l 899 974 l 899 231 b 857 188 899 207 879 188 b 818 214 839 188 824 199 l 646 828 b 396 1008 611 932 513 1008 b 131 743 250 1008 131 889 l 131 0 l 353 0 l 353 743 b 396 786 353 767 372 786 b 435 760 413 786 428 775 l 606 146 b 857 -35 640 42 740 -35 z "},"Ň":{"ha":1250,"x_min":0,"x_max":0,"o":"m 567 1096 b 686 1096 601 1061 651 1061 l 863 1272 l 711 1272 l 626 1192 l 542 1272 l 390 1272 z m 857 -35 b 1121 231 1001 -35 1121 85 l 1121 974 l 899 974 l 899 231 b 857 188 899 207 879 188 b 818 214 839 188 824 199 l 646 828 b 396 1008 611 932 513 1008 b 131 743 250 1008 131 889 l 131 0 l 353 0 l 353 743 b 396 786 353 767 372 786 b 435 760 413 786 428 775 l 606 146 b 857 -35 640 42 740 -35 z "},"Ņ":{"ha":1250,"x_min":0,"x_max":0,"o":"m 746 1283 b 636 1392 746 1343 697 1392 b 528 1283 576 1392 528 1343 b 592 1183 528 1239 554 1200 l 540 1128 l 576 1079 l 704 1197 b 746 1283 729 1217 746 1249 z m 857 -35 b 1121 231 1001 -35 1121 85 l 1121 974 l 899 974 l 899 231 b 857 188 899 207 879 188 b 818 214 839 188 824 199 l 646 828 b 396 1008 611 932 513 1008 b 131 743 250 1008 131 889 l 131 0 l 353 0 l 353 743 b 396 786 353 767 372 786 b 435 760 413 786 428 775 l 606 146 b 857 -35 640 42 740 -35 z "},"Ṅ":{"ha":1250,"x_min":0,"x_max":0,"o":"m 626 1088 b 746 1207 693 1088 746 1140 b 626 1326 746 1274 693 1326 b 507 1207 560 1326 507 1274 b 626 1088 507 1140 560 1088 z m 857 -35 b 1121 231 1001 -35 1121 85 l 1121 974 l 899 974 l 899 231 b 857 188 899 207 879 188 b 818 214 839 188 824 199 l 646 828 b 396 1008 611 932 513 1008 b 131 743 250 1008 131 889 l 131 0 l 353 0 l 353 743 b 396 786 353 767 372 786 b 435 760 413 786 428 775 l 606 146 b 857 -35 640 42 740 -35 z "},"Ŋ":{"ha":1213,"x_min":0,"x_max":0,"o":"m 879 188 l 838 188 b 799 214 819 188 804 199 l 626 828 b 376 1008 592 932 493 1008 b 111 743 231 1008 111 889 l 111 0 l 333 0 l 333 743 b 376 786 333 767 353 786 b 415 760 393 786 408 775 l 586 146 b 838 -35 621 42 721 -35 l 879 -35 l 879 -42 b 824 -97 879 -72 854 -97 l 672 -97 l 672 -319 l 824 -319 b 1101 -42 1004 -319 1101 -222 l 1101 974 l 879 974 z "},"Ñ":{"ha":1250,"x_min":0,"x_max":0,"o":"m 749 1110 b 921 1297 840 1110 921 1185 l 803 1297 b 751 1226 803 1251 783 1226 b 675 1258 726 1226 701 1242 b 560 1303 642 1279 606 1303 b 388 1115 467 1303 388 1228 l 504 1115 b 557 1186 504 1161 525 1186 b 632 1154 581 1186 606 1171 b 749 1110 667 1132 704 1110 z m 857 -35 b 1121 231 1001 -35 1121 85 l 1121 974 l 899 974 l 899 231 b 857 188 899 207 879 188 b 818 214 839 188 824 199 l 646 828 b 396 1008 611 932 513 1008 b 131 743 250 1008 131 889 l 131 0 l 353 0 l 353 743 b 396 786 353 767 372 786 b 435 760 413 786 428 775 l 606 146 b 857 -35 640 42 740 -35 z "},"O":{"ha":1250,"x_min":0,"x_max":0,"o":"m 625 -35 b 1142 486 911 -35 1142 199 b 625 1007 1142 774 911 1007 b 110 486 340 1007 110 774 b 625 -35 110 199 340 -35 z m 625 188 b 329 486 463 188 329 321 b 625 785 329 651 463 785 b 922 486 789 785 922 651 b 625 188 922 321 789 188 z "},"Ó":{"ha":1250,"x_min":0,"x_max":0,"o":"m 640 1310 l 551 1110 l 696 1110 l 785 1310 z m 625 -35 b 1142 486 911 -35 1142 199 b 625 1007 1142 774 911 1007 b 110 486 340 1007 110 774 b 625 -35 110 199 340 -35 z m 625 188 b 329 486 463 188 329 321 b 625 785 329 651 463 785 b 922 486 789 785 922 651 b 625 188 922 321 789 188 z "},"Ǒ":{"ha":1250,"x_min":0,"x_max":0,"o":"m 565 1096 b 685 1096 600 1061 650 1061 l 861 1272 l 710 1272 l 625 1192 l 540 1272 l 389 1272 z m 625 -35 b 1142 486 911 -35 1142 199 b 625 1007 1142 774 911 1007 b 110 486 340 1007 110 774 b 625 -35 110 199 340 -35 z m 625 188 b 329 486 463 188 329 321 b 625 785 329 651 463 785 b 922 486 789 785 922 651 b 625 188 922 321 789 188 z "},"Ô":{"ha":1250,"x_min":0,"x_max":0,"o":"m 389 1111 l 540 1111 l 625 1192 l 710 1111 l 861 1111 l 685 1288 b 565 1288 650 1322 600 1322 z m 625 -35 b 1142 486 911 -35 1142 199 b 625 1007 1142 774 911 1007 b 110 486 340 1007 110 774 b 625 -35 110 199 340 -35 z m 625 188 b 329 486 463 188 329 321 b 625 785 329 651 463 785 b 922 486 789 785 922 651 b 625 188 922 321 789 188 z "},"Ố":{"ha":1250,"x_min":0,"x_max":0,"o":"m 697 1401 l 786 1601 l 642 1601 l 553 1401 z m 389 1111 l 540 1111 l 625 1192 l 710 1111 l 861 1111 l 685 1288 b 565 1288 650 1322 600 1322 z m 625 -35 b 1142 486 911 -35 1142 199 b 625 1007 1142 774 911 1007 b 110 486 340 1007 110 774 b 625 -35 110 199 340 -35 z m 625 188 b 329 486 463 188 329 321 b 625 785 329 651 463 785 b 922 486 789 785 922 651 b 625 188 922 321 789 188 z "},"Ộ":{"ha":1250,"x_min":0,"x_max":0,"o":"m 389 1111 l 540 1111 l 625 1192 l 710 1111 l 861 1111 l 685 1288 b 565 1288 650 1322 600 1322 z m 625 -35 b 1142 486 911 -35 1142 199 b 625 1007 1142 774 911 1007 b 110 486 340 1007 110 774 b 625 -35 110 199 340 -35 z m 625 188 b 329 486 463 188 329 321 b 625 785 329 651 463 785 b 922 486 789 785 922 651 b 625 188 922 321 789 188 z m 625 -351 b 744 -232 692 -351 744 -299 b 625 -112 744 -165 692 -112 b 506 -232 558 -112 506 -165 b 625 -351 506 -299 558 -351 z "},"Ồ":{"ha":1250,"x_min":0,"x_max":0,"o":"m 556 1401 l 700 1401 l 611 1601 l 467 1601 z m 389 1111 l 540 1111 l 625 1192 l 710 1111 l 861 1111 l 685 1288 b 565 1288 650 1322 600 1322 z m 625 -35 b 1142 486 911 -35 1142 199 b 625 1007 1142 774 911 1007 b 110 486 340 1007 110 774 b 625 -35 110 199 340 -35 z m 625 188 b 329 486 463 188 329 321 b 625 785 329 651 463 785 b 922 486 789 785 922 651 b 625 188 922 321 789 188 z "},"Ỗ":{"ha":1250,"x_min":0,"x_max":0,"o":"m 721 1403 b 893 1590 813 1403 893 1478 l 775 1590 b 724 1519 775 1544 756 1519 b 647 1551 699 1519 674 1535 b 532 1596 614 1572 578 1596 b 360 1408 439 1596 360 1521 l 476 1408 b 529 1479 476 1454 497 1479 b 604 1447 553 1479 578 1464 b 721 1403 639 1425 676 1403 z m 389 1111 l 540 1111 l 625 1192 l 710 1111 l 861 1111 l 685 1288 b 565 1288 650 1322 600 1322 z m 625 -35 b 1142 486 911 -35 1142 199 b 625 1007 1142 774 911 1007 b 110 486 340 1007 110 774 b 625 -35 110 199 340 -35 z m 625 188 b 329 486 463 188 329 321 b 625 785 329 651 463 785 b 922 486 789 785 922 651 b 625 188 922 321 789 188 z "},"Ö":{"ha":1250,"x_min":0,"x_max":0,"o":"m 488 1114 b 582 1207 540 1114 582 1156 b 488 1300 582 1258 540 1300 b 394 1207 436 1300 394 1258 b 488 1114 394 1156 436 1114 z m 761 1114 b 856 1207 814 1114 856 1156 b 761 1300 856 1258 814 1300 b 668 1207 710 1300 668 1258 b 761 1114 668 1156 710 1114 z m 625 -35 b 1142 486 911 -35 1142 199 b 625 1007 1142 774 911 1007 b 110 486 340 1007 110 774 b 625 -35 110 199 340 -35 z m 625 188 b 329 486 463 188 329 321 b 625 785 329 651 463 785 b 922 486 789 785 922 651 b 625 188 922 321 789 188 z "},"Ȯ":{"ha":1250,"x_min":0,"x_max":0,"o":"m 625 1088 b 744 1207 692 1088 744 1140 b 625 1326 744 1274 692 1326 b 506 1207 558 1326 506 1274 b 625 1088 506 1140 558 1088 z m 625 -35 b 1142 486 911 -35 1142 199 b 625 1007 1142 774 911 1007 b 110 486 340 1007 110 774 b 625 -35 110 199 340 -35 z m 625 188 b 329 486 463 188 329 321 b 625 785 329 651 463 785 b 922 486 789 785 922 651 b 625 188 922 321 789 188 z "},"Ò":{"ha":1250,"x_min":0,"x_max":0,"o":"m 699 1110 l 610 1310 l 465 1310 l 554 1110 z m 625 -35 b 1142 486 911 -35 1142 199 b 625 1007 1142 774 911 1007 b 110 486 340 1007 110 774 b 625 -35 110 199 340 -35 z m 625 188 b 329 486 463 188 329 321 b 625 785 329 651 463 785 b 922 486 789 785 922 651 b 625 188 922 321 789 188 z "},"Ő":{"ha":1250,"x_min":0,"x_max":0,"o":"m 564 1096 l 653 1296 l 508 1296 l 419 1096 z m 814 1094 l 903 1294 l 756 1296 l 667 1096 z m 625 -35 b 1142 486 911 -35 1142 199 b 625 1007 1142 774 911 1007 b 110 486 340 1007 110 774 b 625 -35 110 199 340 -35 z m 625 188 b 329 486 463 188 329 321 b 625 785 329 651 463 785 b 922 486 789 785 922 651 b 625 188 922 321 789 188 z "},"Ō":{"ha":1250,"x_min":0,"x_max":0,"o":"m 389 1121 l 861 1121 l 861 1239 l 389 1239 z m 625 -35 b 1142 486 911 -35 1142 199 b 625 1007 1142 774 911 1007 b 110 486 340 1007 110 774 b 625 -35 110 199 340 -35 z m 625 188 b 329 486 463 188 329 321 b 625 785 329 651 463 785 b 922 486 789 785 922 651 b 625 188 922 321 789 188 z "},"Ø":{"ha":1250,"x_min":0,"x_max":0,"o":"m 1115 892 l 1032 975 l 949 892 b 625 1007 861 964 747 1007 b 110 486 340 1007 110 774 b 219 164 110 365 151 253 l 136 81 l 219 -3 l 303 81 b 625 -35 390 8 503 -35 b 1142 486 911 -35 1142 199 b 1032 808 1142 607 1100 719 z m 329 486 b 625 785 329 651 463 785 b 790 735 686 785 743 767 l 378 322 b 329 486 347 369 329 425 z m 625 188 b 461 238 564 188 508 206 l 874 650 b 922 486 904 603 922 547 b 625 188 922 321 789 188 z "},"Õ":{"ha":1250,"x_min":0,"x_max":0,"o":"m 747 1110 b 919 1297 839 1110 919 1185 l 801 1297 b 750 1226 801 1251 782 1226 b 674 1258 725 1226 700 1242 b 558 1303 640 1279 604 1303 b 386 1115 465 1303 386 1228 l 503 1115 b 556 1186 503 1161 524 1186 b 631 1154 579 1186 604 1171 b 747 1110 665 1132 703 1110 z m 625 -35 b 1142 486 911 -35 1142 199 b 625 1007 1142 774 911 1007 b 110 486 340 1007 110 774 b 625 -35 110 199 340 -35 z m 625 188 b 329 486 463 188 329 321 b 625 785 329 651 463 785 b 922 486 789 785 922 651 b 625 188 922 321 789 188 z "},"Œ":{"ha":1703,"x_min":0,"x_max":0,"o":"m 1603 972 l 1068 972 b 913 925 1001 972 950 956 b 631 1007 832 976 735 1007 b 110 486 343 1007 110 774 b 631 -35 110 199 343 -35 b 913 47 735 -35 832 -4 b 1068 0 950 17 1001 0 l 1603 0 l 1603 222 l 1081 222 b 1140 375 1108 269 1129 321 l 1378 375 l 1378 597 l 1140 597 b 1081 750 1129 651 1108 703 l 1603 750 z m 631 188 b 332 486 467 188 332 321 b 631 785 332 651 467 785 b 931 486 796 785 931 651 b 631 188 931 321 796 188 z "},"P":{"ha":1111,"x_min":0,"x_max":0,"o":"m 335 972 b 113 750 190 972 113 894 l 113 0 l 335 0 l 335 264 l 644 264 b 999 618 840 264 999 422 b 643 972 999 814 839 972 z m 335 486 l 335 750 l 643 750 b 775 618 715 750 775 690 b 643 486 775 546 715 486 z "},"Þ":{"ha":1060,"x_min":0,"x_max":0,"o":"m 333 792 l 333 972 l 111 972 l 111 0 l 333 0 l 333 181 l 669 181 b 976 486 839 181 976 317 b 668 792 976 656 838 792 z m 333 403 l 333 569 l 668 569 b 754 486 715 569 754 532 b 669 403 754 440 717 403 z "},"Q":{"ha":1250,"x_min":0,"x_max":0,"o":"m 1058 207 b 1139 486 1110 288 1139 383 b 622 1007 1139 774 908 1007 b 107 486 338 1007 107 774 b 622 -35 107 199 338 -35 b 903 49 726 -35 822 -4 l 988 -36 l 1144 121 z m 622 188 b 326 486 460 188 326 321 b 622 785 326 651 460 785 b 919 486 786 785 919 651 b 896 369 919 444 911 406 l 807 458 l 650 301 l 740 211 b 622 188 704 196 664 188 z "},"R":{"ha":1129,"x_min":0,"x_max":0,"o":"m 333 0 l 333 750 l 697 750 b 775 674 740 750 775 715 b 699 597 775 631 742 597 l 671 597 b 410 361 510 597 410 486 b 506 163 410 294 439 222 l 686 0 l 1018 0 l 654 328 b 646 349 649 333 646 340 b 674 375 646 364 657 375 l 699 375 b 997 674 864 375 997 508 b 697 972 997 839 861 972 l 333 972 b 111 751 210 972 111 874 l 111 0 z "},"Ŕ":{"ha":1129,"x_min":0,"x_max":0,"o":"m 700 1310 l 556 1310 l 467 1110 l 611 1110 z m 333 0 l 333 750 l 697 750 b 775 674 740 750 775 715 b 699 597 775 631 742 597 l 671 597 b 410 361 510 597 410 486 b 506 163 410 294 439 222 l 686 0 l 1018 0 l 654 328 b 646 349 649 333 646 340 b 674 375 646 364 657 375 l 699 375 b 997 674 864 375 997 508 b 697 972 997 839 861 972 l 333 972 b 111 751 210 972 111 874 l 111 0 z "},"Ř":{"ha":1129,"x_min":0,"x_max":0,"o":"m 481 1096 b 600 1096 515 1061 565 1061 l 776 1272 l 625 1272 l 540 1192 l 456 1272 l 304 1272 z m 333 0 l 333 750 l 697 750 b 775 674 740 750 775 715 b 699 597 775 631 742 597 l 671 597 b 410 361 510 597 410 486 b 506 163 410 294 439 222 l 686 0 l 1018 0 l 654 328 b 646 349 649 333 646 340 b 674 375 646 364 657 375 l 699 375 b 997 674 864 375 997 508 b 697 972 997 839 861 972 l 333 972 b 111 751 210 972 111 874 l 111 0 z "},"Ŗ":{"ha":1129,"x_min":0,"x_max":0,"o":"m 660 1283 b 550 1392 660 1343 611 1392 b 442 1283 490 1392 442 1343 b 506 1183 442 1239 468 1200 l 454 1128 l 490 1079 l 618 1197 b 660 1283 643 1217 660 1249 z m 333 0 l 333 750 l 697 750 b 775 674 740 750 775 715 b 699 597 775 631 742 597 l 671 597 b 410 361 510 597 410 486 b 506 163 410 294 439 222 l 686 0 l 1018 0 l 654 328 b 646 349 649 333 646 340 b 674 375 646 364 657 375 l 699 375 b 997 674 864 375 997 508 b 697 972 997 839 861 972 l 333 972 b 111 751 210 972 111 874 l 111 0 z "},"S":{"ha":1067,"x_min":0,"x_max":0,"o":"m 657 0 b 956 299 819 0 956 133 b 657 597 956 463 821 597 l 410 597 b 333 674 367 597 333 631 b 410 750 333 717 367 750 l 900 750 l 900 972 l 410 972 b 111 674 244 972 111 836 b 410 375 111 508 244 375 l 657 375 b 733 299 699 375 733 340 b 657 222 733 256 700 222 l 131 222 l 131 0 z "},"Ś":{"ha":1067,"x_min":0,"x_max":0,"o":"m 604 1110 l 693 1310 l 549 1310 l 460 1110 z m 657 0 b 956 299 819 0 956 133 b 657 597 956 463 821 597 l 410 597 b 333 674 367 597 333 631 b 410 750 333 717 367 750 l 900 750 l 900 972 l 410 972 b 111 674 244 972 111 836 b 410 375 111 508 244 375 l 657 375 b 733 299 699 375 733 340 b 657 222 733 256 700 222 l 131 222 l 131 0 z "},"Š":{"ha":1067,"x_min":0,"x_max":0,"o":"m 474 1096 b 593 1096 508 1061 558 1061 l 769 1272 l 618 1272 l 533 1192 l 449 1272 l 297 1272 z m 657 0 b 956 299 819 0 956 133 b 657 597 956 463 821 597 l 410 597 b 333 674 367 597 333 631 b 410 750 333 717 367 750 l 900 750 l 900 972 l 410 972 b 111 674 244 972 111 836 b 410 375 111 508 244 375 l 657 375 b 733 299 699 375 733 340 b 657 222 733 256 700 222 l 131 222 l 131 0 z "},"Ş":{"ha":1067,"x_min":0,"x_max":0,"o":"m 956 299 b 657 597 956 463 821 597 l 410 597 b 333 674 367 597 333 631 b 410 750 333 717 367 750 l 900 750 l 900 972 l 410 972 b 111 674 244 972 111 836 b 410 375 111 508 244 375 l 657 375 b 733 299 699 375 733 340 b 657 222 733 256 700 222 l 131 222 l 131 0 l 499 0 b 571 -76 539 -3 571 -37 b 492 -157 571 -122 536 -157 b 435 -132 469 -157 451 -149 l 350 -214 b 492 -275 388 -253 438 -275 b 689 -76 601 -275 689 -187 b 672 0 689 -50 683 -24 b 956 299 828 8 956 139 z "},"Ș":{"ha":1067,"x_min":0,"x_max":0,"o":"m 653 1283 b 543 1392 653 1343 604 1392 b 435 1283 483 1392 435 1343 b 499 1183 435 1239 461 1200 l 447 1128 l 483 1079 l 611 1197 b 653 1283 636 1217 653 1249 z m 657 0 b 956 299 819 0 956 133 b 657 597 956 463 821 597 l 410 597 b 333 674 367 597 333 631 b 410 750 333 717 367 750 l 900 750 l 900 972 l 410 972 b 111 674 244 972 111 836 b 410 375 111 508 244 375 l 657 375 b 733 299 699 375 733 340 b 657 222 733 256 700 222 l 131 222 l 131 0 z "},"T":{"ha":972,"x_min":0,"x_max":0,"o":"m 56 972 l 56 764 l 375 764 l 375 0 l 597 0 l 597 764 l 917 764 l 917 972 z "},"Ŧ":{"ha":972,"x_min":0,"x_max":0,"o":"m 917 972 l 56 972 l 56 764 l 375 764 l 375 546 l 261 546 l 261 426 l 375 426 l 375 0 l 597 0 l 597 426 l 706 426 l 706 546 l 597 546 l 597 764 l 917 764 z "},"Ť":{"ha":972,"x_min":0,"x_max":0,"o":"m 714 1272 l 563 1272 l 478 1192 l 393 1272 l 242 1272 l 418 1096 b 538 1096 453 1061 503 1061 z m 56 972 l 56 764 l 375 764 l 375 0 l 597 0 l 597 764 l 917 764 l 917 972 z "},"Ţ":{"ha":972,"x_min":0,"x_max":0,"o":"m 917 972 l 56 972 l 56 764 l 375 764 l 375 0 l 451 0 b 524 -76 492 -3 524 -37 b 444 -157 524 -122 489 -157 b 388 -132 422 -157 404 -149 l 303 -214 b 444 -275 340 -253 390 -275 b 642 -76 554 -275 642 -187 b 597 47 642 -31 625 13 l 597 764 l 917 764 z "},"Ț":{"ha":972,"x_min":0,"x_max":0,"o":"m 392 1128 l 428 1079 l 556 1197 b 597 1283 581 1217 597 1249 b 488 1392 597 1343 549 1392 b 379 1283 428 1392 379 1343 b 443 1183 379 1239 406 1200 z m 56 972 l 56 764 l 375 764 l 375 0 l 597 0 l 597 764 l 917 764 l 917 972 z "},"U":{"ha":1035,"x_min":0,"x_max":0,"o":"m 518 -35 b 924 371 742 -35 924 147 l 924 972 l 701 972 l 701 371 b 518 188 701 269 619 188 b 333 371 415 188 333 269 l 333 972 l 111 972 l 111 371 b 518 -35 111 147 293 -35 z "},"Ú":{"ha":1035,"x_min":0,"x_max":0,"o":"m 678 1310 l 533 1310 l 444 1110 l 589 1110 z m 518 -35 b 924 371 742 -35 924 147 l 924 972 l 701 972 l 701 371 b 518 188 701 269 619 188 b 333 371 415 188 333 269 l 333 972 l 111 972 l 111 371 b 518 -35 111 147 293 -35 z "},"Ǔ":{"ha":1035,"x_min":0,"x_max":0,"o":"m 458 1096 b 578 1096 493 1061 543 1061 l 754 1272 l 603 1272 l 518 1192 l 433 1272 l 282 1272 z m 518 -35 b 924 371 742 -35 924 147 l 924 972 l 701 972 l 701 371 b 518 188 701 269 619 188 b 333 371 415 188 333 269 l 333 972 l 111 972 l 111 371 b 518 -35 111 147 293 -35 z "},"Û":{"ha":1035,"x_min":0,"x_max":0,"o":"m 282 1111 l 433 1111 l 518 1192 l 603 1111 l 754 1111 l 578 1288 b 458 1288 543 1322 493 1322 z m 518 -35 b 924 371 742 -35 924 147 l 924 972 l 701 972 l 701 371 b 518 188 701 269 619 188 b 333 371 415 188 333 269 l 333 972 l 111 972 l 111 371 b 518 -35 111 147 293 -35 z "},"Ü":{"ha":1035,"x_min":0,"x_max":0,"o":"m 381 1114 b 475 1207 433 1114 475 1156 b 381 1300 475 1258 433 1300 b 288 1207 329 1300 288 1258 b 381 1114 288 1156 329 1114 z m 654 1114 b 749 1207 707 1114 749 1156 b 654 1300 749 1258 707 1300 b 561 1207 603 1300 561 1258 b 654 1114 561 1156 603 1114 z m 518 -35 b 924 371 742 -35 924 147 l 924 972 l 701 972 l 701 371 b 518 188 701 269 619 188 b 333 371 415 188 333 269 l 333 972 l 111 972 l 111 371 b 518 -35 111 147 293 -35 z "},"Ǘ":{"ha":1035,"x_min":0,"x_max":0,"o":"m 533 1601 l 444 1401 l 589 1401 l 678 1601 z m 381 1114 b 475 1207 433 1114 475 1156 b 381 1300 475 1258 433 1300 b 288 1207 329 1300 288 1258 b 381 1114 288 1156 329 1114 z m 654 1114 b 749 1207 707 1114 749 1156 b 654 1300 749 1258 707 1300 b 561 1207 603 1300 561 1258 b 654 1114 561 1156 603 1114 z m 518 -35 b 924 371 742 -35 924 147 l 924 972 l 701 972 l 701 371 b 518 188 701 269 619 188 b 333 371 415 188 333 269 l 333 972 l 111 972 l 111 371 b 518 -35 111 147 293 -35 z "},"Ǚ":{"ha":1035,"x_min":0,"x_max":0,"o":"m 458 1388 b 578 1388 493 1353 543 1353 l 754 1564 l 603 1564 l 518 1483 l 433 1564 l 282 1564 z m 381 1114 b 475 1207 433 1114 475 1156 b 381 1300 475 1258 433 1300 b 288 1207 329 1300 288 1258 b 381 1114 288 1156 329 1114 z m 654 1114 b 749 1207 707 1114 749 1156 b 654 1300 749 1258 707 1300 b 561 1207 603 1300 561 1258 b 654 1114 561 1156 603 1114 z m 518 -35 b 924 371 742 -35 924 147 l 924 972 l 701 972 l 701 371 b 518 188 701 269 619 188 b 333 371 415 188 333 269 l 333 972 l 111 972 l 111 371 b 518 -35 111 147 293 -35 z "},"Ǜ":{"ha":1035,"x_min":0,"x_max":0,"o":"m 358 1601 l 447 1401 l 592 1401 l 503 1601 z m 381 1114 b 475 1207 433 1114 475 1156 b 381 1300 475 1258 433 1300 b 288 1207 329 1300 288 1258 b 381 1114 288 1156 329 1114 z m 654 1114 b 749 1207 707 1114 749 1156 b 654 1300 749 1258 707 1300 b 561 1207 603 1300 561 1258 b 654 1114 561 1156 603 1114 z m 518 -35 b 924 371 742 -35 924 147 l 924 972 l 701 972 l 701 371 b 518 188 701 269 619 188 b 333 371 415 188 333 269 l 333 972 l 111 972 l 111 371 b 518 -35 111 147 293 -35 z "},"Ǖ":{"ha":1035,"x_min":0,"x_max":0,"o":"m 754 1531 l 282 1531 l 282 1413 l 754 1413 z m 381 1114 b 475 1207 433 1114 475 1156 b 381 1300 475 1258 433 1300 b 288 1207 329 1300 288 1258 b 381 1114 288 1156 329 1114 z m 654 1114 b 749 1207 707 1114 749 1156 b 654 1300 749 1258 707 1300 b 561 1207 603 1300 561 1258 b 654 1114 561 1156 603 1114 z m 518 -35 b 924 371 742 -35 924 147 l 924 972 l 701 972 l 701 371 b 518 188 701 269 619 188 b 333 371 415 188 333 269 l 333 972 l 111 972 l 111 371 b 518 -35 111 147 293 -35 z "},"Ù":{"ha":1035,"x_min":0,"x_max":0,"o":"m 447 1110 l 592 1110 l 503 1310 l 358 1310 z m 518 -35 b 924 371 742 -35 924 147 l 924 972 l 701 972 l 701 371 b 518 188 701 269 619 188 b 333 371 415 188 333 269 l 333 972 l 111 972 l 111 371 b 518 -35 111 147 293 -35 z "},"Ű":{"ha":1035,"x_min":0,"x_max":0,"o":"m 401 1296 l 313 1096 l 457 1096 l 546 1296 z m 649 1296 l 560 1096 l 707 1094 l 796 1294 z m 518 -35 b 924 371 742 -35 924 147 l 924 972 l 701 972 l 701 371 b 518 188 701 269 619 188 b 333 371 415 188 333 269 l 333 972 l 111 972 l 111 371 b 518 -35 111 147 293 -35 z "},"Ū":{"ha":1035,"x_min":0,"x_max":0,"o":"m 282 1239 l 282 1121 l 754 1121 l 754 1239 z m 518 -35 b 924 371 742 -35 924 147 l 924 972 l 701 972 l 701 371 b 518 188 701 269 619 188 b 333 371 415 188 333 269 l 333 972 l 111 972 l 111 371 b 518 -35 111 147 293 -35 z "},"Ų":{"ha":1035,"x_min":0,"x_max":0,"o":"m 701 371 b 518 188 701 269 619 188 b 333 371 415 188 333 269 l 333 972 l 111 972 l 111 371 b 361 -3 111 203 214 58 b 326 -112 339 -35 326 -72 b 524 -311 326 -224 414 -311 b 665 -250 578 -311 628 -289 l 581 -168 b 524 -193 564 -185 546 -193 b 444 -112 479 -193 444 -158 b 517 -36 444 -74 476 -39 l 517 -35 l 518 -35 b 924 371 742 -35 924 147 l 924 972 l 701 972 z "},"Ů":{"ha":1035,"x_min":0,"x_max":0,"o":"m 518 1075 b 650 1207 592 1075 650 1133 b 518 1339 650 1281 592 1339 b 386 1207 444 1339 386 1281 b 518 1075 386 1133 444 1075 z m 518 1169 b 481 1207 497 1169 481 1186 b 518 1244 481 1228 497 1244 b 556 1207 538 1244 556 1226 b 518 1169 556 1186 539 1169 z m 518 -35 b 924 371 742 -35 924 147 l 924 972 l 701 972 l 701 371 b 518 188 701 269 619 188 b 333 371 415 188 333 269 l 333 972 l 111 972 l 111 371 b 518 -35 111 147 293 -35 z "},"V":{"ha":1150,"x_min":0,"x_max":0,"o":"m 576 -35 b 826 142 689 -35 789 36 l 1094 972 l 863 972 l 615 214 b 576 188 610 197 594 188 b 536 214 558 188 542 199 l 290 972 l 56 972 l 325 142 b 576 -35 363 35 464 -35 z "},"W":{"ha":1474,"x_min":0,"x_max":0,"o":"m 1140 332 b 994 186 1140 251 1075 186 b 849 332 914 186 849 251 l 849 972 l 626 972 l 626 332 b 479 186 626 251 560 186 b 333 332 399 186 333 251 l 333 972 l 111 972 l 111 332 b 479 -36 111 129 278 -36 b 738 69 579 -36 671 4 b 994 -36 804 4 894 -36 b 1363 332 1197 -36 1363 129 l 1363 972 l 1140 972 z "},"Ẃ":{"ha":1474,"x_min":0,"x_max":0,"o":"m 753 1310 l 664 1110 l 808 1110 l 897 1310 z m 1140 332 b 994 186 1140 251 1075 186 b 849 332 914 186 849 251 l 849 972 l 626 972 l 626 332 b 479 186 626 251 560 186 b 333 332 399 186 333 251 l 333 972 l 111 972 l 111 332 b 479 -36 111 129 278 -36 b 738 69 579 -36 671 4 b 994 -36 804 4 894 -36 b 1363 332 1197 -36 1363 129 l 1363 972 l 1140 972 z "},"Ŵ":{"ha":1474,"x_min":0,"x_max":0,"o":"m 822 1111 l 974 1111 l 797 1288 b 678 1288 763 1322 713 1322 l 501 1111 l 653 1111 l 738 1192 z m 1140 332 b 994 186 1140 251 1075 186 b 849 332 914 186 849 251 l 849 972 l 626 972 l 626 332 b 479 186 626 251 560 186 b 333 332 399 186 333 251 l 333 972 l 111 972 l 111 332 b 479 -36 111 129 278 -36 b 738 69 579 -36 671 4 b 994 -36 804 4 894 -36 b 1363 332 1197 -36 1363 129 l 1363 972 l 1140 972 z "},"Ẅ":{"ha":1474,"x_min":0,"x_max":0,"o":"m 600 1114 b 694 1207 653 1114 694 1156 b 600 1300 694 1258 653 1300 b 507 1207 549 1300 507 1258 b 600 1114 507 1156 549 1114 z m 874 1114 b 968 1207 926 1114 968 1156 b 874 1300 968 1258 926 1300 b 781 1207 822 1300 781 1258 b 874 1114 781 1156 822 1114 z m 1140 332 b 994 186 1140 251 1075 186 b 849 332 914 186 849 251 l 849 972 l 626 972 l 626 332 b 479 186 626 251 560 186 b 333 332 399 186 333 251 l 333 972 l 111 972 l 111 332 b 479 -36 111 129 278 -36 b 738 69 579 -36 671 4 b 994 -36 804 4 894 -36 b 1363 332 1197 -36 1363 129 l 1363 972 l 1140 972 z "},"Ẁ":{"ha":1474,"x_min":0,"x_max":0,"o":"m 722 1310 l 578 1310 l 667 1110 l 811 1110 z m 1140 332 b 994 186 1140 251 1075 186 b 849 332 914 186 849 251 l 849 972 l 626 972 l 626 332 b 479 186 626 251 560 186 b 333 332 399 186 333 251 l 333 972 l 111 972 l 111 332 b 479 -36 111 129 278 -36 b 738 69 579 -36 671 4 b 994 -36 804 4 894 -36 b 1363 332 1197 -36 1363 129 l 1363 972 l 1140 972 z "},"X":{"ha":1222,"x_min":0,"x_max":0,"o":"m 775 486 l 964 660 b 1111 972 1057 736 1111 851 l 889 972 b 822 829 889 917 864 865 l 611 636 l 400 829 b 333 972 358 865 333 917 l 111 972 b 258 660 111 851 165 736 l 447 486 l 258 313 b 111 0 165 236 111 121 l 333 0 b 400 143 333 56 358 107 l 611 336 l 822 143 b 889 0 864 107 889 56 l 1111 0 b 964 313 1111 121 1057 236 z "},"Y":{"ha":1061,"x_min":0,"x_max":0,"o":"m 728 544 l 485 624 b 333 833 378 658 333 719 l 333 972 l 111 972 l 111 833 b 415 413 111 622 217 476 l 706 318 b 544 222 675 261 614 222 l 114 222 l 114 0 l 544 0 b 950 406 768 0 950 182 l 950 972 l 728 972 z "},"Ý":{"ha":1061,"x_min":0,"x_max":0,"o":"m 547 1310 l 458 1110 l 603 1110 l 692 1310 z m 728 544 l 485 624 b 333 833 378 658 333 719 l 333 972 l 111 972 l 111 833 b 415 413 111 622 217 476 l 706 318 b 544 222 675 261 614 222 l 114 222 l 114 0 l 544 0 b 950 406 768 0 950 182 l 950 972 l 728 972 z "},"Ŷ":{"ha":1061,"x_min":0,"x_max":0,"o":"m 617 1111 l 768 1111 l 592 1288 b 472 1288 557 1322 507 1322 l 296 1111 l 447 1111 l 532 1192 z m 728 544 l 485 624 b 333 833 378 658 333 719 l 333 972 l 111 972 l 111 833 b 415 413 111 622 217 476 l 706 318 b 544 222 675 261 614 222 l 114 222 l 114 0 l 544 0 b 950 406 768 0 950 182 l 950 972 l 728 972 z "},"Ÿ":{"ha":1061,"x_min":0,"x_max":0,"o":"m 394 1114 b 489 1207 447 1114 489 1156 b 394 1300 489 1258 447 1300 b 301 1207 343 1300 301 1258 b 394 1114 301 1156 343 1114 z m 668 1114 b 763 1207 721 1114 763 1156 b 668 1300 763 1258 721 1300 b 575 1207 617 1300 575 1258 b 668 1114 575 1156 617 1114 z m 728 544 l 485 624 b 333 833 378 658 333 719 l 333 972 l 111 972 l 111 833 b 415 413 111 622 217 476 l 706 318 b 544 222 675 261 614 222 l 114 222 l 114 0 l 544 0 b 950 406 768 0 950 182 l 950 972 l 728 972 z "},"Ỳ":{"ha":1061,"x_min":0,"x_max":0,"o":"m 517 1310 l 372 1310 l 461 1110 l 606 1110 z m 728 544 l 485 624 b 333 833 378 658 333 719 l 333 972 l 111 972 l 111 833 b 415 413 111 622 217 476 l 706 318 b 544 222 675 261 614 222 l 114 222 l 114 0 l 544 0 b 950 406 768 0 950 182 l 950 972 l 728 972 z "},"Z":{"ha":1221,"x_min":0,"x_max":0,"o":"m 978 611 b 1068 774 1040 653 1068 713 b 874 972 1068 874 994 972 l 181 972 l 181 750 l 785 750 l 203 361 b 111 197 140 319 111 260 b 306 0 111 99 185 0 l 1069 0 l 1069 222 l 396 222 z "},"Ź":{"ha":1221,"x_min":0,"x_max":0,"o":"m 638 1310 l 549 1110 l 693 1110 l 782 1310 z m 978 611 b 1068 774 1040 653 1068 713 b 874 972 1068 874 994 972 l 181 972 l 181 750 l 785 750 l 203 361 b 111 197 140 319 111 260 b 306 0 111 99 185 0 l 1069 0 l 1069 222 l 396 222 z "},"Ž":{"ha":1221,"x_min":0,"x_max":0,"o":"m 858 1272 l 707 1272 l 622 1192 l 538 1272 l 386 1272 l 563 1096 b 682 1096 597 1061 647 1061 z m 978 611 b 1068 774 1040 653 1068 713 b 874 972 1068 874 994 972 l 181 972 l 181 750 l 785 750 l 203 361 b 111 197 140 319 111 260 b 306 0 111 99 185 0 l 1069 0 l 1069 222 l 396 222 z "},"Ż":{"ha":1221,"x_min":0,"x_max":0,"o":"m 622 1088 b 742 1207 689 1088 742 1140 b 622 1326 742 1274 689 1326 b 503 1207 556 1326 503 1274 b 622 1088 503 1140 556 1088 z m 978 611 b 1068 774 1040 653 1068 713 b 874 972 1068 874 994 972 l 181 972 l 181 750 l 785 750 l 203 361 b 111 197 140 319 111 260 b 306 0 111 99 185 0 l 1069 0 l 1069 222 l 396 222 z "},"a":{"ha":972,"x_min":0,"x_max":0,"o":"m 206 833 l 206 611 l 614 611 b 656 569 638 611 656 593 l 656 528 l 358 528 b 94 264 211 528 94 410 b 358 0 94 118 213 0 l 685 0 b 878 193 792 0 878 86 l 878 569 b 614 833 878 715 760 833 z m 358 222 b 308 272 329 222 308 244 b 358 324 308 301 329 324 l 656 324 l 656 226 b 651 222 656 224 654 222 z "},"á":{"ha":972,"x_min":0,"x_max":0,"o":"m 521 1157 l 432 957 l 576 957 l 665 1157 z m 206 833 l 206 611 l 614 611 b 656 569 638 611 656 593 l 656 528 l 358 528 b 94 264 211 528 94 410 b 358 0 94 118 213 0 l 685 0 b 878 193 792 0 878 86 l 878 569 b 614 833 878 715 760 833 z m 358 222 b 308 272 329 222 308 244 b 358 324 308 301 329 324 l 656 324 l 656 226 b 651 222 656 224 654 222 z "},"ă":{"ha":972,"x_min":0,"x_max":0,"o":"m 506 910 b 707 1111 617 910 707 999 l 589 1111 b 506 1028 589 1065 553 1028 b 422 1111 458 1028 422 1064 l 304 1111 b 506 910 304 999 393 910 z m 206 833 l 206 611 l 614 611 b 656 569 638 611 656 593 l 656 528 l 358 528 b 94 264 211 528 94 410 b 358 0 94 118 213 0 l 685 0 b 878 193 792 0 878 86 l 878 569 b 614 833 878 715 760 833 z m 358 222 b 308 272 329 222 308 244 b 358 324 308 301 329 324 l 656 324 l 656 226 b 651 222 656 224 654 222 z "},"ắ":{"ha":972,"x_min":0,"x_max":0,"o":"m 521 1449 l 432 1249 l 576 1249 l 665 1449 z m 506 910 b 707 1111 617 910 707 999 l 589 1111 b 506 1028 589 1065 553 1028 b 422 1111 458 1028 422 1064 l 304 1111 b 506 910 304 999 393 910 z m 206 833 l 206 611 l 614 611 b 656 569 638 611 656 593 l 656 528 l 358 528 b 94 264 211 528 94 410 b 358 0 94 118 213 0 l 685 0 b 878 193 792 0 878 86 l 878 569 b 614 833 878 715 760 833 z m 358 222 b 308 272 329 222 308 244 b 358 324 308 301 329 324 l 656 324 l 656 226 b 651 222 656 224 654 222 z "},"ặ":{"ha":972,"x_min":0,"x_max":0,"o":"m 506 910 b 707 1111 617 910 707 999 l 589 1111 b 506 1028 589 1065 553 1028 b 422 1111 458 1028 422 1064 l 304 1111 b 506 910 304 999 393 910 z m 206 833 l 206 611 l 614 611 b 656 569 638 611 656 593 l 656 528 l 358 528 b 94 264 211 528 94 410 b 358 0 94 118 213 0 l 685 0 b 878 193 792 0 878 86 l 878 569 b 614 833 878 715 760 833 z m 358 222 b 308 272 329 222 308 244 b 358 324 308 301 329 324 l 656 324 l 656 226 b 651 222 656 224 654 222 z m 506 -112 b 386 -232 439 -112 386 -165 b 506 -351 386 -299 439 -351 b 625 -232 572 -351 625 -299 b 506 -112 625 -165 572 -112 z "},"ằ":{"ha":972,"x_min":0,"x_max":0,"o":"m 490 1449 l 346 1449 l 435 1249 l 579 1249 z m 506 910 b 707 1111 617 910 707 999 l 589 1111 b 506 1028 589 1065 553 1028 b 422 1111 458 1028 422 1064 l 304 1111 b 506 910 304 999 393 910 z m 206 833 l 206 611 l 614 611 b 656 569 638 611 656 593 l 656 528 l 358 528 b 94 264 211 528 94 410 b 358 0 94 118 213 0 l 685 0 b 878 193 792 0 878 86 l 878 569 b 614 833 878 715 760 833 z m 358 222 b 308 272 329 222 308 244 b 358 324 308 301 329 324 l 656 324 l 656 226 b 651 222 656 224 654 222 z "},"ẵ":{"ha":972,"x_min":0,"x_max":0,"o":"m 408 1326 b 483 1294 432 1326 457 1311 b 600 1250 518 1272 556 1250 b 772 1438 692 1250 772 1325 l 654 1438 b 603 1367 654 1392 635 1367 b 526 1399 578 1367 553 1382 b 411 1443 493 1419 457 1443 b 239 1256 318 1443 239 1368 l 356 1256 b 408 1326 356 1301 376 1326 z m 506 1028 b 422 1111 458 1028 422 1064 l 304 1111 b 506 910 304 999 393 910 b 707 1111 617 910 707 999 l 589 1111 b 506 1028 589 1065 553 1028 z m 206 833 l 206 611 l 614 611 b 656 569 638 611 656 593 l 656 528 l 358 528 b 94 264 211 528 94 410 b 358 0 94 118 213 0 l 685 0 b 878 193 792 0 878 86 l 878 569 b 614 833 878 715 760 833 z m 358 222 b 308 272 329 222 308 244 b 358 324 308 301 329 324 l 656 324 l 656 226 b 651 222 656 224 654 222 z "},"ǎ":{"ha":972,"x_min":0,"x_max":0,"o":"m 742 1119 l 590 1119 l 506 1039 l 421 1119 l 269 1119 l 446 943 b 565 943 481 908 531 908 z m 206 833 l 206 611 l 614 611 b 656 569 638 611 656 593 l 656 528 l 358 528 b 94 264 211 528 94 410 b 358 0 94 118 213 0 l 685 0 b 878 193 792 0 878 86 l 878 569 b 614 833 878 715 760 833 z m 358 222 b 308 272 329 222 308 244 b 358 324 308 301 329 324 l 656 324 l 656 226 b 651 222 656 224 654 222 z "},"â":{"ha":972,"x_min":0,"x_max":0,"o":"m 590 958 l 742 958 l 565 1135 b 446 1135 531 1169 481 1169 l 269 958 l 421 958 l 506 1039 z m 206 833 l 206 611 l 614 611 b 656 569 638 611 656 593 l 656 528 l 358 528 b 94 264 211 528 94 410 b 358 0 94 118 213 0 l 685 0 b 878 193 792 0 878 86 l 878 569 b 614 833 878 715 760 833 z m 358 222 b 308 272 329 222 308 244 b 358 324 308 301 329 324 l 656 324 l 656 226 b 651 222 656 224 654 222 z "},"ấ":{"ha":972,"x_min":0,"x_max":0,"o":"m 521 1449 l 432 1249 l 576 1249 l 665 1449 z m 590 958 l 742 958 l 565 1135 b 446 1135 531 1169 481 1169 l 269 958 l 421 958 l 506 1039 z m 206 833 l 206 611 l 614 611 b 656 569 638 611 656 593 l 656 528 l 358 528 b 94 264 211 528 94 410 b 358 0 94 118 213 0 l 685 0 b 878 193 792 0 878 86 l 878 569 b 614 833 878 715 760 833 z m 358 222 b 308 272 329 222 308 244 b 358 324 308 301 329 324 l 656 324 l 656 226 b 651 222 656 224 654 222 z "},"ậ":{"ha":972,"x_min":0,"x_max":0,"o":"m 590 958 l 742 958 l 565 1135 b 446 1135 531 1169 481 1169 l 269 958 l 421 958 l 506 1039 z m 206 833 l 206 611 l 614 611 b 656 569 638 611 656 593 l 656 528 l 358 528 b 94 264 211 528 94 410 b 358 0 94 118 213 0 l 685 0 b 878 193 792 0 878 86 l 878 569 b 614 833 878 715 760 833 z m 358 222 b 308 272 329 222 308 244 b 358 324 308 301 329 324 l 656 324 l 656 226 b 651 222 656 224 654 222 z m 506 -112 b 386 -232 439 -112 386 -165 b 506 -351 386 -299 439 -351 b 625 -232 572 -351 625 -299 b 506 -112 625 -165 572 -112 z "},"ầ":{"ha":972,"x_min":0,"x_max":0,"o":"m 490 1449 l 346 1449 l 435 1249 l 579 1249 z m 590 958 l 742 958 l 565 1135 b 446 1135 531 1169 481 1169 l 269 958 l 421 958 l 506 1039 z m 206 833 l 206 611 l 614 611 b 656 569 638 611 656 593 l 656 528 l 358 528 b 94 264 211 528 94 410 b 358 0 94 118 213 0 l 685 0 b 878 193 792 0 878 86 l 878 569 b 614 833 878 715 760 833 z m 358 222 b 308 272 329 222 308 244 b 358 324 308 301 329 324 l 656 324 l 656 226 b 651 222 656 224 654 222 z "},"ẫ":{"ha":972,"x_min":0,"x_max":0,"o":"m 408 1326 b 483 1294 432 1326 457 1311 b 600 1250 518 1272 556 1250 b 772 1438 692 1250 772 1325 l 654 1438 b 603 1367 654 1392 635 1367 b 526 1399 578 1367 553 1382 b 411 1443 493 1419 457 1443 b 239 1256 318 1443 239 1368 l 356 1256 b 408 1326 356 1301 376 1326 z m 269 958 l 421 958 l 506 1039 l 590 958 l 742 958 l 565 1135 b 446 1135 531 1169 481 1169 z m 206 833 l 206 611 l 614 611 b 656 569 638 611 656 593 l 656 528 l 358 528 b 94 264 211 528 94 410 b 358 0 94 118 213 0 l 685 0 b 878 193 792 0 878 86 l 878 569 b 614 833 878 715 760 833 z m 358 222 b 308 272 329 222 308 244 b 358 324 308 301 329 324 l 656 324 l 656 226 b 651 222 656 224 654 222 z "},"ä":{"ha":972,"x_min":0,"x_max":0,"o":"m 368 961 b 463 1054 421 961 463 1003 b 368 1147 463 1106 421 1147 b 275 1054 317 1147 275 1106 b 368 961 275 1003 317 961 z m 642 961 b 736 1054 694 961 736 1003 b 642 1147 736 1106 694 1147 b 549 1054 590 1147 549 1106 b 642 961 549 1003 590 961 z m 206 833 l 206 611 l 614 611 b 656 569 638 611 656 593 l 656 528 l 358 528 b 94 264 211 528 94 410 b 358 0 94 118 213 0 l 685 0 b 878 193 792 0 878 86 l 878 569 b 614 833 878 715 760 833 z m 358 222 b 308 272 329 222 308 244 b 358 324 308 301 329 324 l 656 324 l 656 226 b 651 222 656 224 654 222 z "},"ạ":{"ha":972,"x_min":0,"x_max":0,"o":"m 206 833 l 206 611 l 614 611 b 656 569 638 611 656 593 l 656 528 l 358 528 b 94 264 211 528 94 410 b 358 0 94 118 213 0 l 685 0 b 878 193 792 0 878 86 l 878 569 b 614 833 878 715 760 833 z m 358 222 b 308 272 329 222 308 244 b 358 324 308 301 329 324 l 656 324 l 656 226 b 651 222 656 224 654 222 z m 506 -112 b 386 -232 439 -112 386 -165 b 506 -351 386 -299 439 -351 b 625 -232 572 -351 625 -299 b 506 -112 625 -165 572 -112 z "},"à":{"ha":972,"x_min":0,"x_max":0,"o":"m 490 1157 l 346 1157 l 435 957 l 579 957 z m 206 833 l 206 611 l 614 611 b 656 569 638 611 656 593 l 656 528 l 358 528 b 94 264 211 528 94 410 b 358 0 94 118 213 0 l 685 0 b 878 193 792 0 878 86 l 878 569 b 614 833 878 715 760 833 z m 358 222 b 308 272 329 222 308 244 b 358 324 308 301 329 324 l 656 324 l 656 226 b 651 222 656 224 654 222 z "},"ā":{"ha":972,"x_min":0,"x_max":0,"o":"m 269 1086 l 269 968 l 742 968 l 742 1086 z m 206 833 l 206 611 l 614 611 b 656 569 638 611 656 593 l 656 528 l 358 528 b 94 264 211 528 94 410 b 358 0 94 118 213 0 l 685 0 b 878 193 792 0 878 86 l 878 569 b 614 833 878 715 760 833 z m 358 222 b 308 272 329 222 308 244 b 358 324 308 301 329 324 l 656 324 l 656 226 b 651 222 656 224 654 222 z "},"ą":{"ha":972,"x_min":0,"x_max":0,"o":"m 206 833 l 206 611 l 614 611 b 656 569 638 611 656 593 l 656 528 l 358 528 b 94 264 211 528 94 410 b 353 0 94 119 210 3 b 338 -76 343 -24 338 -50 b 535 -275 338 -187 425 -275 b 676 -214 589 -275 639 -253 l 592 -132 b 535 -157 575 -149 557 -157 b 456 -76 490 -157 456 -122 b 528 0 456 -37 488 -3 l 685 0 b 878 193 792 0 878 86 l 878 569 b 614 833 878 715 760 833 z m 358 222 b 308 272 329 222 308 244 b 358 324 308 301 329 324 l 656 324 l 656 226 b 651 222 656 224 654 222 z "},"å":{"ha":972,"x_min":0,"x_max":0,"o":"m 506 922 b 638 1054 579 922 638 981 b 506 1186 638 1128 579 1186 b 374 1054 432 1186 374 1128 b 506 922 374 981 432 922 z m 506 1092 b 543 1054 525 1092 543 1074 b 506 1017 543 1033 526 1017 b 468 1054 485 1017 468 1033 b 506 1092 468 1075 485 1092 z m 206 833 l 206 611 l 614 611 b 656 569 638 611 656 593 l 656 528 l 358 528 b 94 264 211 528 94 410 b 358 0 94 118 213 0 l 685 0 b 878 193 792 0 878 86 l 878 569 b 614 833 878 715 760 833 z m 358 222 b 308 272 329 222 308 244 b 358 324 308 301 329 324 l 656 324 l 656 226 b 651 222 656 224 654 222 z "},"ã":{"ha":972,"x_min":0,"x_max":0,"o":"m 436 1033 b 511 1001 460 1033 485 1018 b 628 957 546 979 583 957 b 800 1144 719 957 800 1032 l 682 1144 b 631 1074 682 1099 663 1074 b 554 1106 606 1074 581 1089 b 439 1150 521 1126 485 1150 b 267 963 346 1150 267 1075 l 383 963 b 436 1033 383 1008 404 1033 z m 206 833 l 206 611 l 614 611 b 656 569 638 611 656 593 l 656 528 l 358 528 b 94 264 211 528 94 410 b 358 0 94 118 213 0 l 685 0 b 878 193 792 0 878 86 l 878 569 b 614 833 878 715 760 833 z m 358 222 b 308 272 329 222 308 244 b 358 324 308 301 329 324 l 656 324 l 656 226 b 651 222 656 224 654 222 z "},"æ":{"ha":1681,"x_min":0,"x_max":0,"o":"m 1597 417 b 1168 847 1597 654 1406 846 b 843 700 1039 849 922 790 b 614 833 797 779 713 833 l 206 833 l 206 611 l 614 611 b 656 569 638 611 656 593 l 656 528 l 358 528 b 94 264 211 528 94 410 b 358 0 94 118 213 0 l 685 0 b 861 115 764 0 832 47 b 1168 -12 940 36 1049 -12 b 1542 204 1322 -12 1463 71 l 1314 269 b 1165 210 1274 232 1222 210 b 985 321 1086 210 1018 256 l 1500 319 b 1597 417 1554 319 1597 363 z m 1168 625 b 1364 486 1258 625 1335 567 l 972 488 b 1168 625 1000 568 1078 625 z m 317 264 b 358 306 317 288 335 306 l 656 306 l 656 222 l 358 222 b 317 264 335 222 317 240 z "},"b":{"ha":992,"x_min":0,"x_max":0,"o":"m 478 849 b 333 824 426 849 378 840 l 333 1111 l 111 1111 l 111 256 b 147 143 111 211 118 176 b 478 -12 228 50 346 -12 b 908 418 714 -12 908 183 b 478 849 908 653 714 849 z m 478 210 b 342 260 419 210 368 233 b 333 278 335 267 333 271 l 333 565 b 478 626 372 606 424 626 b 686 418 590 626 686 531 b 478 210 686 306 590 210 z "},"c":{"ha":997,"x_min":0,"x_max":0,"o":"m 514 -12 b 886 201 672 -12 808 67 l 718 296 b 519 186 678 229 603 186 b 290 422 392 186 290 294 b 519 650 290 549 392 650 b 724 535 603 650 678 608 l 886 633 b 514 847 813 763 672 847 b 83 418 276 847 83 656 b 514 -12 83 181 276 -12 z "},"ć":{"ha":997,"x_min":0,"x_max":0,"o":"m 529 1157 l 440 957 l 585 957 l 674 1157 z m 514 -12 b 886 201 672 -12 808 67 l 718 296 b 519 186 678 229 603 186 b 290 422 392 186 290 294 b 519 650 290 549 392 650 b 724 535 603 650 678 608 l 886 633 b 514 847 813 763 672 847 b 83 418 276 847 83 656 b 514 -12 83 181 276 -12 z "},"č":{"ha":997,"x_min":0,"x_max":0,"o":"m 454 943 b 574 943 489 908 539 908 l 750 1119 l 599 1119 l 514 1039 l 429 1119 l 278 1119 z m 514 -12 b 886 201 672 -12 808 67 l 718 296 b 519 186 678 229 603 186 b 290 422 392 186 290 294 b 519 650 290 549 392 650 b 724 535 603 650 678 608 l 886 633 b 514 847 813 763 672 847 b 83 418 276 847 83 656 b 514 -12 83 181 276 -12 z "},"ç":{"ha":997,"x_min":0,"x_max":0,"o":"m 519 186 b 290 422 392 186 290 294 b 519 650 290 549 392 650 b 724 535 603 650 678 608 l 886 633 b 514 847 813 763 672 847 b 83 418 276 847 83 656 b 481 -11 83 192 258 6 b 551 -87 521 -15 551 -49 b 472 -168 551 -133 517 -168 b 415 -143 450 -168 432 -160 l 331 -225 b 472 -286 368 -264 418 -286 b 669 -87 582 -286 669 -199 b 644 7 669 -54 661 -21 b 886 201 746 38 831 106 l 718 296 b 519 186 678 229 603 186 z "},"ċ":{"ha":997,"x_min":0,"x_max":0,"o":"m 514 935 b 633 1054 581 935 633 988 b 514 1174 633 1121 581 1174 b 394 1054 447 1174 394 1121 b 514 935 394 988 447 935 z m 514 -12 b 886 201 672 -12 808 67 l 718 296 b 519 186 678 229 603 186 b 290 422 392 186 290 294 b 519 650 290 549 392 650 b 724 535 603 650 678 608 l 886 633 b 514 847 813 763 672 847 b 83 418 276 847 83 656 b 514 -12 83 181 276 -12 z "},"d":{"ha":992,"x_min":0,"x_max":0,"o":"m 658 824 b 514 849 614 840 565 849 b 83 418 278 849 83 653 b 514 -12 83 183 278 -12 b 844 143 646 -12 764 50 b 881 256 874 176 881 211 l 881 1111 l 658 1111 z m 650 260 b 514 210 624 233 572 210 b 306 418 401 210 306 306 b 514 626 306 531 401 626 b 658 565 568 626 619 606 l 658 274 b 650 260 658 271 657 267 z "},"ð":{"ha":1044,"x_min":0,"x_max":0,"o":"m 925 1108 l 875 1217 l 774 1169 b 738 1235 763 1192 750 1214 l 539 1142 b 575 1076 551 1121 564 1099 l 472 1028 l 522 919 l 624 967 b 674 818 643 919 660 869 b 514 849 624 838 571 849 b 83 418 276 849 83 656 b 514 -12 83 181 276 -12 b 946 404 749 -12 939 174 b 824 1061 956 608 908 853 z m 514 210 b 306 418 399 210 306 303 b 514 626 306 533 399 626 b 724 418 629 626 724 532 b 514 210 724 303 629 210 z "},"ď":{"ha":992,"x_min":0,"x_max":0,"o":"m 658 824 b 514 849 614 840 565 849 b 83 418 278 849 83 653 b 514 -12 83 183 278 -12 b 844 143 646 -12 764 50 b 881 256 874 176 881 211 l 881 1111 l 658 1111 z m 933 910 l 1078 910 l 1167 1110 l 1022 1110 z m 650 260 b 514 210 624 233 572 210 b 306 418 401 210 306 306 b 514 626 306 531 401 626 b 658 565 568 626 619 606 l 658 274 b 650 260 658 271 657 267 z "},"đ":{"ha":992,"x_min":0,"x_max":0,"o":"m 881 1033 l 881 1111 l 658 1111 l 658 1033 l 546 1033 l 546 914 l 658 914 l 658 824 b 514 849 614 840 565 849 b 83 418 278 849 83 653 b 514 -12 83 183 278 -12 b 844 143 646 -12 764 50 b 881 256 874 176 881 211 l 881 914 l 990 914 l 990 1033 z m 650 260 b 514 210 624 233 572 210 b 306 418 401 210 306 306 b 514 626 306 531 401 626 b 658 565 568 626 619 606 l 658 274 b 650 260 658 271 657 267 z "},"e":{"ha":1026,"x_min":0,"x_max":0,"o":"m 943 417 b 514 847 943 654 751 847 b 83 418 276 847 83 656 b 514 -12 83 181 276 -12 b 888 204 668 -12 808 71 l 667 263 b 511 200 626 225 568 200 b 321 322 431 200 357 253 l 846 319 b 943 417 900 319 943 363 z m 514 635 b 718 486 606 635 688 571 l 308 489 b 514 635 340 571 424 635 z "},"é":{"ha":1026,"x_min":0,"x_max":0,"o":"m 529 1157 l 440 957 l 585 957 l 674 1157 z m 943 417 b 514 847 943 654 751 847 b 83 418 276 847 83 656 b 514 -12 83 181 276 -12 b 888 204 668 -12 808 71 l 667 263 b 511 200 626 225 568 200 b 321 322 431 200 357 253 l 846 319 b 943 417 900 319 943 363 z m 514 635 b 718 486 606 635 688 571 l 308 489 b 514 635 340 571 424 635 z "},"ě":{"ha":1026,"x_min":0,"x_max":0,"o":"m 750 1119 l 599 1119 l 514 1039 l 429 1119 l 278 1119 l 454 943 b 574 943 489 908 539 908 z m 943 417 b 514 847 943 654 751 847 b 83 418 276 847 83 656 b 514 -12 83 181 276 -12 b 888 204 668 -12 808 71 l 667 263 b 511 200 626 225 568 200 b 321 322 431 200 357 253 l 846 319 b 943 417 900 319 943 363 z m 514 635 b 718 486 606 635 688 571 l 308 489 b 514 635 340 571 424 635 z "},"ê":{"ha":1026,"x_min":0,"x_max":0,"o":"m 599 958 l 750 958 l 574 1135 b 454 1135 539 1169 489 1169 l 278 958 l 429 958 l 514 1039 z m 943 417 b 514 847 943 654 751 847 b 83 418 276 847 83 656 b 514 -12 83 181 276 -12 b 888 204 668 -12 808 71 l 667 263 b 511 200 626 225 568 200 b 321 322 431 200 357 253 l 846 319 b 943 417 900 319 943 363 z m 514 635 b 718 486 606 635 688 571 l 308 489 b 514 635 340 571 424 635 z "},"ế":{"ha":1026,"x_min":0,"x_max":0,"o":"m 529 1449 l 440 1249 l 585 1249 l 674 1449 z m 599 958 l 750 958 l 574 1135 b 454 1135 539 1169 489 1169 l 278 958 l 429 958 l 514 1039 z m 943 417 b 514 847 943 654 751 847 b 83 418 276 847 83 656 b 514 -12 83 181 276 -12 b 888 204 668 -12 808 71 l 667 263 b 511 200 626 225 568 200 b 321 322 431 200 357 253 l 846 319 b 943 417 900 319 943 363 z m 514 635 b 718 486 606 635 688 571 l 308 489 b 514 635 340 571 424 635 z "},"ệ":{"ha":1026,"x_min":0,"x_max":0,"o":"m 599 958 l 750 958 l 574 1135 b 454 1135 539 1169 489 1169 l 278 958 l 429 958 l 514 1039 z m 943 417 b 514 847 943 654 751 847 b 83 418 276 847 83 656 b 514 -12 83 181 276 -12 b 888 204 668 -12 808 71 l 667 263 b 511 200 626 225 568 200 b 321 322 431 200 357 253 l 846 319 b 943 417 900 319 943 363 z m 514 635 b 718 486 606 635 688 571 l 308 489 b 514 635 340 571 424 635 z m 514 -112 b 394 -232 447 -112 394 -165 b 514 -351 394 -299 447 -351 b 633 -232 581 -351 633 -299 b 514 -112 633 -165 581 -112 z "},"ề":{"ha":1026,"x_min":0,"x_max":0,"o":"m 499 1449 l 354 1449 l 443 1249 l 588 1249 z m 599 958 l 750 958 l 574 1135 b 454 1135 539 1169 489 1169 l 278 958 l 429 958 l 514 1039 z m 943 417 b 514 847 943 654 751 847 b 83 418 276 847 83 656 b 514 -12 83 181 276 -12 b 888 204 668 -12 808 71 l 667 263 b 511 200 626 225 568 200 b 321 322 431 200 357 253 l 846 319 b 943 417 900 319 943 363 z m 514 635 b 718 486 606 635 688 571 l 308 489 b 514 635 340 571 424 635 z "},"ễ":{"ha":1026,"x_min":0,"x_max":0,"o":"m 417 1326 b 492 1294 440 1326 465 1311 b 608 1250 526 1272 564 1250 b 781 1438 700 1250 781 1325 l 663 1438 b 611 1367 663 1392 643 1367 b 535 1399 586 1367 561 1382 b 419 1443 501 1419 465 1443 b 247 1256 326 1443 247 1368 l 364 1256 b 417 1326 364 1301 385 1326 z m 278 958 l 429 958 l 514 1039 l 599 958 l 750 958 l 574 1135 b 454 1135 539 1169 489 1169 z m 943 417 b 514 847 943 654 751 847 b 83 418 276 847 83 656 b 514 -12 83 181 276 -12 b 888 204 668 -12 808 71 l 667 263 b 511 200 626 225 568 200 b 321 322 431 200 357 253 l 846 319 b 943 417 900 319 943 363 z m 514 635 b 718 486 606 635 688 571 l 308 489 b 514 635 340 571 424 635 z "},"ë":{"ha":1026,"x_min":0,"x_max":0,"o":"m 376 961 b 471 1054 429 961 471 1003 b 376 1147 471 1106 429 1147 b 283 1054 325 1147 283 1106 b 376 961 283 1003 325 961 z m 650 961 b 744 1054 703 961 744 1003 b 650 1147 744 1106 703 1147 b 557 1054 599 1147 557 1106 b 650 961 557 1003 599 961 z m 943 417 b 514 847 943 654 751 847 b 83 418 276 847 83 656 b 514 -12 83 181 276 -12 b 888 204 668 -12 808 71 l 667 263 b 511 200 626 225 568 200 b 321 322 431 200 357 253 l 846 319 b 943 417 900 319 943 363 z m 514 635 b 718 486 606 635 688 571 l 308 489 b 514 635 340 571 424 635 z "},"ė":{"ha":1026,"x_min":0,"x_max":0,"o":"m 514 935 b 633 1054 581 935 633 988 b 514 1174 633 1121 581 1174 b 394 1054 447 1174 394 1121 b 514 935 394 988 447 935 z m 943 417 b 514 847 943 654 751 847 b 83 418 276 847 83 656 b 514 -12 83 181 276 -12 b 888 204 668 -12 808 71 l 667 263 b 511 200 626 225 568 200 b 321 322 431 200 357 253 l 846 319 b 943 417 900 319 943 363 z m 514 635 b 718 486 606 635 688 571 l 308 489 b 514 635 340 571 424 635 z "},"ẹ":{"ha":1026,"x_min":0,"x_max":0,"o":"m 943 417 b 514 847 943 654 751 847 b 83 418 276 847 83 656 b 514 -12 83 181 276 -12 b 888 204 668 -12 808 71 l 667 263 b 511 200 626 225 568 200 b 321 322 431 200 357 253 l 846 319 b 943 417 900 319 943 363 z m 514 635 b 718 486 606 635 688 571 l 308 489 b 514 635 340 571 424 635 z m 514 -112 b 394 -232 447 -112 394 -165 b 514 -351 394 -299 447 -351 b 633 -232 581 -351 633 -299 b 514 -112 633 -165 581 -112 z "},"è":{"ha":1026,"x_min":0,"x_max":0,"o":"m 499 1157 l 354 1157 l 443 957 l 588 957 z m 943 417 b 514 847 943 654 751 847 b 83 418 276 847 83 656 b 514 -12 83 181 276 -12 b 888 204 668 -12 808 71 l 667 263 b 511 200 626 225 568 200 b 321 322 431 200 357 253 l 846 319 b 943 417 900 319 943 363 z m 514 635 b 718 486 606 635 688 571 l 308 489 b 514 635 340 571 424 635 z "},"ē":{"ha":1026,"x_min":0,"x_max":0,"o":"m 278 1086 l 278 968 l 750 968 l 750 1086 z m 943 417 b 514 847 943 654 751 847 b 83 418 276 847 83 656 b 514 -12 83 181 276 -12 b 888 204 668 -12 808 71 l 667 263 b 511 200 626 225 568 200 b 321 322 431 200 357 253 l 846 319 b 943 417 900 319 943 363 z m 514 635 b 718 486 606 635 688 571 l 308 489 b 514 635 340 571 424 635 z "},"ę":{"ha":1026,"x_min":0,"x_max":0,"o":"m 943 417 b 514 847 943 654 751 847 b 83 418 276 847 83 656 b 354 18 83 238 196 82 b 321 -89 333 -12 321 -50 b 518 -287 321 -200 408 -287 b 660 -226 572 -287 622 -265 l 575 -144 b 518 -169 558 -161 540 -169 b 439 -89 474 -169 439 -135 b 511 -12 439 -50 471 -15 l 511 -12 l 514 -12 b 888 204 668 -12 808 71 l 667 263 b 511 200 626 225 568 200 b 321 322 431 200 357 253 l 846 319 b 943 417 900 319 943 363 z m 514 635 b 718 486 606 635 688 571 l 308 489 b 514 635 340 571 424 635 z "},"ẽ":{"ha":1026,"x_min":0,"x_max":0,"o":"m 444 1033 b 519 1001 468 1033 493 1018 b 636 957 554 979 592 957 b 808 1144 728 957 808 1032 l 690 1144 b 639 1074 690 1099 671 1074 b 563 1106 614 1074 589 1089 b 447 1150 529 1126 493 1150 b 275 963 354 1150 275 1075 l 392 963 b 444 1033 392 1008 413 1033 z m 943 417 b 514 847 943 654 751 847 b 83 418 276 847 83 656 b 514 -12 83 181 276 -12 b 888 204 668 -12 808 71 l 667 263 b 511 200 626 225 568 200 b 321 322 431 200 357 253 l 846 319 b 943 417 900 319 943 363 z m 514 635 b 718 486 606 635 688 571 l 308 489 b 514 635 340 571 424 635 z "},"f":{"ha":836,"x_min":0,"x_max":0,"o":"m 542 1000 b 657 965 585 1000 621 989 l 781 1150 b 542 1222 710 1196 625 1222 b 111 790 304 1222 111 1028 l 111 0 l 333 0 l 333 611 l 649 611 l 649 833 l 338 833 b 542 1000 358 928 442 1000 z "},"g":{"ha":992,"x_min":0,"x_max":0,"o":"m 844 690 b 514 846 765 785 646 846 b 83 415 278 846 83 650 b 514 -15 83 181 278 -15 b 658 10 565 -15 614 -7 l 658 -56 b 617 -97 658 -79 640 -97 l 208 -97 l 208 -319 l 617 -319 b 881 -56 763 -319 881 -201 l 881 578 b 844 690 881 622 874 656 z m 514 207 b 306 415 401 207 306 303 b 514 624 306 528 401 624 b 643 581 565 624 615 606 b 658 536 656 569 658 556 l 658 268 b 514 207 619 228 568 207 z "},"ğ":{"ha":992,"x_min":0,"x_max":0,"o":"m 514 910 b 715 1111 625 910 715 999 l 597 1111 b 514 1028 597 1065 561 1028 b 431 1111 467 1028 431 1064 l 313 1111 b 514 910 313 999 401 910 z m 844 690 b 514 846 765 785 646 846 b 83 415 278 846 83 650 b 514 -15 83 181 278 -15 b 658 10 565 -15 614 -7 l 658 -56 b 617 -97 658 -79 640 -97 l 208 -97 l 208 -319 l 617 -319 b 881 -56 763 -319 881 -201 l 881 578 b 844 690 881 622 874 656 z m 514 207 b 306 415 401 207 306 303 b 514 624 306 528 401 624 b 643 581 565 624 615 606 b 658 536 656 569 658 556 l 658 268 b 514 207 619 228 568 207 z "},"ǧ":{"ha":992,"x_min":0,"x_max":0,"o":"m 750 1119 l 599 1119 l 514 1039 l 429 1119 l 278 1119 l 454 943 b 574 943 489 908 539 908 z m 844 690 b 514 846 765 785 646 846 b 83 415 278 846 83 650 b 514 -15 83 181 278 -15 b 658 10 565 -15 614 -7 l 658 -56 b 617 -97 658 -79 640 -97 l 208 -97 l 208 -319 l 617 -319 b 881 -56 763 -319 881 -201 l 881 578 b 844 690 881 622 874 656 z m 514 207 b 306 415 401 207 306 303 b 514 624 306 528 401 624 b 643 581 565 624 615 606 b 658 536 656 569 658 556 l 658 268 b 514 207 619 228 568 207 z "},"ģ":{"ha":992,"x_min":0,"x_max":0,"o":"m 404 953 l 469 890 l 626 1053 b 667 1151 651 1078 667 1113 b 528 1290 667 1228 606 1290 b 389 1151 451 1290 389 1228 b 471 1025 389 1094 422 1046 z m 844 690 b 514 846 765 785 646 846 b 83 415 278 846 83 650 b 514 -15 83 181 278 -15 b 658 10 565 -15 614 -7 l 658 -56 b 617 -97 658 -79 640 -97 l 208 -97 l 208 -319 l 617 -319 b 881 -56 763 -319 881 -201 l 881 578 b 844 690 881 622 874 656 z m 514 207 b 306 415 401 207 306 303 b 514 624 306 528 401 624 b 643 581 565 624 615 606 b 658 536 656 569 658 556 l 658 268 b 514 207 619 228 568 207 z "},"ġ":{"ha":992,"x_min":0,"x_max":0,"o":"m 514 935 b 633 1054 581 935 633 988 b 514 1174 633 1121 581 1174 b 394 1054 447 1174 394 1121 b 514 935 394 988 447 935 z m 844 690 b 514 846 765 785 646 846 b 83 415 278 846 83 650 b 514 -15 83 181 278 -15 b 658 10 565 -15 614 -7 l 658 -56 b 617 -97 658 -79 640 -97 l 208 -97 l 208 -319 l 617 -319 b 881 -56 763 -319 881 -201 l 881 578 b 844 690 881 622 874 656 z m 514 207 b 306 415 401 207 306 303 b 514 624 306 528 401 624 b 643 581 565 624 615 606 b 658 536 656 569 658 556 l 658 268 b 514 207 619 228 568 207 z "},"ȝ":{"ha":1047,"x_min":0,"x_max":0,"o":"m 600 389 l 850 601 b 896 699 882 628 896 664 b 763 833 896 767 843 833 l 160 833 l 160 611 l 518 611 l 268 399 b 222 301 236 372 222 336 b 356 167 222 233 275 167 l 638 167 b 714 90 681 167 714 133 b 638 14 714 47 681 14 l 360 14 b 296 47 333 14 310 26 l 111 -75 b 360 -208 165 -156 257 -208 l 638 -208 b 936 90 801 -208 936 -74 b 638 389 936 254 803 389 z "},"h":{"ha":972,"x_min":0,"x_max":0,"o":"m 454 849 b 310 824 403 849 354 840 l 310 1111 l 88 1111 l 88 0 l 310 0 l 310 565 b 454 626 349 606 400 626 b 663 418 567 626 663 531 l 663 0 l 885 0 l 885 418 b 454 849 885 653 690 849 z "},"ħ":{"ha":972,"x_min":0,"x_max":0,"o":"m 454 849 b 310 824 403 849 354 840 l 310 914 l 425 914 l 425 1033 l 310 1033 l 310 1111 l 88 1111 l 88 1033 l -19 1033 l -19 914 l 88 914 l 88 0 l 310 0 l 310 565 b 454 626 349 606 400 626 b 663 418 567 626 663 531 l 663 0 l 885 0 l 885 418 b 454 849 885 653 690 849 z "},"i":{"ha":500,"x_min":0,"x_max":0,"o":"m 250 935 b 369 1054 317 935 369 988 b 250 1174 369 1121 317 1174 b 131 1054 183 1174 131 1121 b 250 935 131 988 183 935 z m 139 0 l 361 0 l 361 833 l 139 833 z "},"ı":{"ha":500,"x_min":0,"x_max":0,"o":"m 139 0 l 361 0 l 361 833 l 139 833 z "},"í":{"ha":500,"x_min":0,"x_max":0,"o":"m 265 1157 l 176 957 l 321 957 l 410 1157 z m 139 0 l 361 0 l 361 833 l 139 833 z "},"ǐ":{"ha":500,"x_min":0,"x_max":0,"o":"m 190 943 b 310 943 225 908 275 908 l 486 1119 l 335 1119 l 250 1039 l 165 1119 l 14 1119 z m 139 0 l 361 0 l 361 833 l 139 833 z "},"î":{"ha":500,"x_min":0,"x_max":0,"o":"m 14 958 l 165 958 l 250 1039 l 335 958 l 486 958 l 310 1135 b 190 1135 275 1169 225 1169 z m 139 0 l 361 0 l 361 833 l 139 833 z "},"ï":{"ha":500,"x_min":0,"x_max":0,"o":"m 113 961 b 207 1054 165 961 207 1003 b 113 1147 207 1106 165 1147 b 19 1054 61 1147 19 1106 b 113 961 19 1003 61 961 z m 386 961 b 481 1054 439 961 481 1003 b 386 1147 481 1106 439 1147 b 293 1054 335 1147 293 1106 b 386 961 293 1003 335 961 z m 139 0 l 361 0 l 361 833 l 139 833 z "},"ị":{"ha":500,"x_min":0,"x_max":0,"o":"m 250 935 b 369 1054 317 935 369 988 b 250 1174 369 1121 317 1174 b 131 1054 183 1174 131 1121 b 250 935 131 988 183 935 z m 139 0 l 361 0 l 361 833 l 139 833 z m 250 -351 b 369 -232 317 -351 369 -299 b 250 -112 369 -165 317 -112 b 131 -232 183 -112 131 -165 b 250 -351 131 -299 183 -351 z "},"ì":{"ha":500,"x_min":0,"x_max":0,"o":"m 324 957 l 235 1157 l 90 1157 l 179 957 z m 139 0 l 361 0 l 361 833 l 139 833 z "},"ī":{"ha":500,"x_min":0,"x_max":0,"o":"m 486 1086 l 14 1086 l 14 968 l 486 968 z m 139 0 l 361 0 l 361 833 l 139 833 z "},"į":{"ha":500,"x_min":0,"x_max":0,"o":"m 250 935 b 369 1054 317 935 369 988 b 250 1174 369 1121 317 1174 b 131 1054 183 1174 131 1121 b 250 935 131 988 183 935 z m 335 -132 b 278 -157 318 -149 300 -157 b 199 -76 233 -157 199 -122 b 271 0 199 -37 231 -3 l 361 0 l 361 833 l 139 833 l 139 61 b 81 -76 103 26 81 -24 b 278 -275 81 -187 168 -275 b 419 -214 332 -275 382 -253 z "},"ĩ":{"ha":500,"x_min":0,"x_max":0,"o":"m 372 957 b 544 1144 464 957 544 1032 l 426 1144 b 375 1074 426 1099 407 1074 b 299 1106 350 1074 325 1089 b 183 1150 265 1126 229 1150 b 11 963 90 1150 11 1075 l 128 963 b 181 1033 128 1008 149 1033 b 256 1001 204 1033 229 1018 b 372 957 290 979 328 957 z m 139 0 l 361 0 l 361 833 l 139 833 z "},"j":{"ha":500,"x_min":0,"x_max":0,"o":"m 251 935 b 371 1054 318 935 371 988 b 251 1174 371 1121 318 1174 b 132 1054 185 1174 132 1121 b 251 935 132 988 185 935 z m 83 -319 b 361 -42 264 -319 361 -222 l 361 833 l 139 833 l 139 -42 b 83 -97 139 -72 114 -97 l -68 -97 l -68 -319 z "},"ȷ":{"ha":500,"x_min":0,"x_max":0,"o":"m 83 -319 b 361 -42 264 -319 361 -222 l 361 833 l 139 833 l 139 -42 b 83 -97 139 -72 114 -97 l -68 -97 l -68 -319 z "},"k":{"ha":1054,"x_min":0,"x_max":0,"o":"m 333 0 l 333 1111 l 111 1111 l 111 0 z m 971 0 l 639 440 b 632 457 633 447 632 453 b 639 474 632 463 635 467 l 867 833 l 604 833 l 396 504 b 379 450 385 486 379 467 b 401 388 379 428 386 408 l 693 0 z "},"ķ":{"ha":1054,"x_min":0,"x_max":0,"o":"m 717 1131 b 607 1239 717 1190 668 1239 b 499 1131 547 1239 499 1190 b 563 1031 499 1086 525 1047 l 511 975 l 547 926 l 675 1044 b 717 1131 700 1064 717 1096 z m 333 0 l 333 1111 l 111 1111 l 111 0 z m 971 0 l 639 440 b 632 457 633 447 632 453 b 639 474 632 463 635 467 l 867 833 l 604 833 l 396 504 b 379 450 385 486 379 467 b 401 388 379 428 386 408 l 693 0 z "},"l":{"ha":444,"x_min":0,"x_max":0,"o":"m 333 0 l 333 1111 l 111 1111 l 111 0 z "},"ĺ":{"ha":444,"x_min":0,"x_max":0,"o":"m 149 1249 l 293 1249 l 382 1449 l 238 1449 z m 333 0 l 333 1111 l 111 1111 l 111 0 z "},"ľ":{"ha":611,"x_min":0,"x_max":0,"o":"m 333 0 l 333 1111 l 111 1111 l 111 0 z m 550 910 l 639 1110 l 494 1110 l 406 910 z "},"ļ":{"ha":444,"x_min":0,"x_max":0,"o":"m 342 1422 b 232 1531 342 1482 293 1531 b 124 1422 172 1531 124 1482 b 188 1322 124 1378 150 1339 l 136 1267 l 172 1218 l 300 1336 b 342 1422 325 1356 342 1388 z m 333 0 l 333 1111 l 111 1111 l 111 0 z "},"ł":{"ha":444,"x_min":0,"x_max":0,"o":"m 446 861 l 333 749 l 333 1111 l 111 1111 l 111 528 l -85 332 l -1 249 l 111 361 l 111 0 l 333 0 l 333 582 l 529 778 z "},"m":{"ha":1250,"x_min":0,"x_max":0,"o":"m 839 847 b 625 767 757 847 682 817 b 411 847 568 817 493 847 b 86 522 232 847 86 701 l 86 0 l 308 0 l 308 522 b 411 625 308 579 354 625 b 514 522 468 625 514 579 l 514 0 l 736 0 l 736 522 b 839 625 736 579 782 625 b 942 522 896 625 942 579 l 942 0 l 1164 0 l 1164 522 b 839 847 1164 701 1018 847 z "},"n":{"ha":1019,"x_min":0,"x_max":0,"o":"m 478 849 b 147 693 346 849 226 788 b 111 581 119 660 111 625 l 111 0 l 333 0 l 333 567 b 478 626 383 613 431 626 b 686 418 590 626 686 531 l 686 0 l 908 0 l 908 418 b 478 849 908 653 714 849 z "},"ń":{"ha":1019,"x_min":0,"x_max":0,"o":"m 493 1157 l 404 957 l 549 957 l 638 1157 z m 478 849 b 147 693 346 849 226 788 b 111 581 119 660 111 625 l 111 0 l 333 0 l 333 567 b 478 626 383 613 431 626 b 686 418 590 626 686 531 l 686 0 l 908 0 l 908 418 b 478 849 908 653 714 849 z "},"ň":{"ha":1019,"x_min":0,"x_max":0,"o":"m 714 1119 l 563 1119 l 478 1039 l 393 1119 l 242 1119 l 418 943 b 538 943 453 908 503 908 z m 478 849 b 147 693 346 849 226 788 b 111 581 119 660 111 625 l 111 0 l 333 0 l 333 567 b 478 626 383 613 431 626 b 686 418 590 626 686 531 l 686 0 l 908 0 l 908 418 b 478 849 908 653 714 849 z "},"ņ":{"ha":1019,"x_min":0,"x_max":0,"o":"m 392 975 l 428 926 l 556 1044 b 597 1131 581 1064 597 1096 b 488 1239 597 1190 549 1239 b 379 1131 428 1239 379 1190 b 443 1031 379 1086 406 1047 z m 478 849 b 147 693 346 849 226 788 b 111 581 119 660 111 625 l 111 0 l 333 0 l 333 567 b 478 626 383 613 431 626 b 686 418 590 626 686 531 l 686 0 l 908 0 l 908 418 b 478 849 908 653 714 849 z "},"ṅ":{"ha":1019,"x_min":0,"x_max":0,"o":"m 478 935 b 597 1054 544 935 597 988 b 478 1174 597 1121 544 1174 b 358 1054 411 1174 358 1121 b 478 935 358 988 411 935 z m 478 849 b 147 693 346 849 226 788 b 111 581 119 660 111 625 l 111 0 l 333 0 l 333 567 b 478 626 383 613 431 626 b 686 418 590 626 686 531 l 686 0 l 908 0 l 908 418 b 478 849 908 653 714 849 z "},"ŋ":{"ha":1019,"x_min":0,"x_max":0,"o":"m 478 849 b 147 693 346 849 226 788 b 111 581 119 660 111 625 l 111 0 l 333 0 l 333 567 b 478 626 383 613 431 626 b 686 418 590 626 686 531 l 686 -42 b 631 -97 686 -72 661 -97 l 479 -97 l 479 -319 l 631 -319 b 908 -42 811 -319 908 -224 l 908 418 b 478 849 908 653 714 849 z "},"ñ":{"ha":1019,"x_min":0,"x_max":0,"o":"m 408 1033 b 483 1001 432 1033 457 1018 b 600 957 518 979 556 957 b 772 1144 692 957 772 1032 l 654 1144 b 603 1074 654 1099 635 1074 b 526 1106 578 1074 553 1089 b 411 1150 493 1126 457 1150 b 239 963 318 1150 239 1075 l 356 963 b 408 1033 356 1008 376 1033 z m 478 849 b 147 693 346 849 226 788 b 111 581 119 660 111 625 l 111 0 l 333 0 l 333 567 b 478 626 383 613 431 626 b 686 418 590 626 686 531 l 686 0 l 908 0 l 908 418 b 478 849 908 653 714 849 z "},"o":{"ha":1029,"x_min":0,"x_max":0,"o":"m 514 -12 b 946 418 753 -12 946 181 b 514 849 946 656 751 849 b 83 418 276 849 83 656 b 514 -12 83 181 276 -12 z m 514 210 b 306 418 399 210 306 303 b 514 626 306 533 399 626 b 724 418 629 626 724 532 b 514 210 724 303 629 210 z "},"ó":{"ha":1029,"x_min":0,"x_max":0,"o":"m 531 1157 l 442 957 l 586 957 l 675 1157 z m 514 -12 b 946 418 753 -12 946 181 b 514 849 946 656 751 849 b 83 418 276 849 83 656 b 514 -12 83 181 276 -12 z m 514 210 b 306 418 399 210 306 303 b 514 626 306 533 399 626 b 724 418 629 626 724 532 b 514 210 724 303 629 210 z "},"ǒ":{"ha":1029,"x_min":0,"x_max":0,"o":"m 456 943 b 575 943 490 908 540 908 l 751 1119 l 600 1119 l 515 1039 l 431 1119 l 279 1119 z m 514 -12 b 946 418 753 -12 946 181 b 514 849 946 656 751 849 b 83 418 276 849 83 656 b 514 -12 83 181 276 -12 z m 514 210 b 306 418 399 210 306 303 b 514 626 306 533 399 626 b 724 418 629 626 724 532 b 514 210 724 303 629 210 z "},"ô":{"ha":1029,"x_min":0,"x_max":0,"o":"m 279 958 l 431 958 l 515 1039 l 600 958 l 751 958 l 575 1135 b 456 1135 540 1169 490 1169 z m 514 -12 b 946 418 753 -12 946 181 b 514 849 946 656 751 849 b 83 418 276 849 83 656 b 514 -12 83 181 276 -12 z m 514 210 b 306 418 399 210 306 303 b 514 626 306 533 399 626 b 724 418 629 626 724 532 b 514 210 724 303 629 210 z "},"ố":{"ha":1029,"x_min":0,"x_max":0,"o":"m 440 1249 l 585 1249 l 674 1449 l 529 1449 z m 279 958 l 431 958 l 515 1039 l 600 958 l 751 958 l 575 1135 b 456 1135 540 1169 490 1169 z m 514 -12 b 946 418 753 -12 946 181 b 514 849 946 656 751 849 b 83 418 276 849 83 656 b 514 -12 83 181 276 -12 z m 514 210 b 306 418 399 210 306 303 b 514 626 306 533 399 626 b 724 418 629 626 724 532 b 514 210 724 303 629 210 z "},"ộ":{"ha":1029,"x_min":0,"x_max":0,"o":"m 279 958 l 431 958 l 515 1039 l 600 958 l 751 958 l 575 1135 b 456 1135 540 1169 490 1169 z m 514 -12 b 946 418 753 -12 946 181 b 514 849 946 656 751 849 b 83 418 276 849 83 656 b 514 -12 83 181 276 -12 z m 514 210 b 306 418 399 210 306 303 b 514 626 306 533 399 626 b 724 418 629 626 724 532 b 514 210 724 303 629 210 z m 514 -351 b 633 -232 581 -351 633 -299 b 514 -112 633 -165 581 -112 b 394 -232 447 -112 394 -165 b 514 -351 394 -299 447 -351 z "},"ồ":{"ha":1029,"x_min":0,"x_max":0,"o":"m 499 1449 l 354 1449 l 443 1249 l 588 1249 z m 279 958 l 431 958 l 515 1039 l 600 958 l 751 958 l 575 1135 b 456 1135 540 1169 490 1169 z m 514 -12 b 946 418 753 -12 946 181 b 514 849 946 656 751 849 b 83 418 276 849 83 656 b 514 -12 83 181 276 -12 z m 514 210 b 306 418 399 210 306 303 b 514 626 306 533 399 626 b 724 418 629 626 724 532 b 514 210 724 303 629 210 z "},"ỗ":{"ha":1029,"x_min":0,"x_max":0,"o":"m 608 1250 b 781 1438 700 1250 781 1325 l 663 1438 b 611 1367 663 1392 643 1367 b 535 1399 586 1367 561 1382 b 419 1443 501 1419 465 1443 b 247 1256 326 1443 247 1368 l 364 1256 b 417 1326 364 1301 385 1326 b 492 1294 440 1326 465 1311 b 608 1250 526 1272 564 1250 z m 279 958 l 431 958 l 515 1039 l 600 958 l 751 958 l 575 1135 b 456 1135 540 1169 490 1169 z m 514 -12 b 946 418 753 -12 946 181 b 514 849 946 656 751 849 b 83 418 276 849 83 656 b 514 -12 83 181 276 -12 z m 514 210 b 306 418 399 210 306 303 b 514 626 306 533 399 626 b 724 418 629 626 724 532 b 514 210 724 303 629 210 z "},"ö":{"ha":1029,"x_min":0,"x_max":0,"o":"m 378 961 b 472 1054 431 961 472 1003 b 378 1147 472 1106 431 1147 b 285 1054 326 1147 285 1106 b 378 961 285 1003 326 961 z m 651 961 b 746 1054 704 961 746 1003 b 651 1147 746 1106 704 1147 b 558 1054 600 1147 558 1106 b 651 961 558 1003 600 961 z m 514 -12 b 946 418 753 -12 946 181 b 514 849 946 656 751 849 b 83 418 276 849 83 656 b 514 -12 83 181 276 -12 z m 514 210 b 306 418 399 210 306 303 b 514 626 306 533 399 626 b 724 418 629 626 724 532 b 514 210 724 303 629 210 z "},"ò":{"ha":1029,"x_min":0,"x_max":0,"o":"m 356 1157 l 444 957 l 589 957 l 500 1157 z m 514 -12 b 946 418 753 -12 946 181 b 514 849 946 656 751 849 b 83 418 276 849 83 656 b 514 -12 83 181 276 -12 z m 514 210 b 306 418 399 210 306 303 b 514 626 306 533 399 626 b 724 418 629 626 724 532 b 514 210 724 303 629 210 z "},"ő":{"ha":1029,"x_min":0,"x_max":0,"o":"m 310 943 l 454 943 l 543 1143 l 399 1143 z m 557 943 l 704 942 l 793 1142 l 646 1143 z m 514 -12 b 946 418 753 -12 946 181 b 514 849 946 656 751 849 b 83 418 276 849 83 656 b 514 -12 83 181 276 -12 z m 514 210 b 306 418 399 210 306 303 b 514 626 306 533 399 626 b 724 418 629 626 724 532 b 514 210 724 303 629 210 z "},"ō":{"ha":1029,"x_min":0,"x_max":0,"o":"m 279 1086 l 279 968 l 751 968 l 751 1086 z m 514 -12 b 946 418 753 -12 946 181 b 514 849 946 656 751 849 b 83 418 276 849 83 656 b 514 -12 83 181 276 -12 z m 514 210 b 306 418 399 210 306 303 b 514 626 306 533 399 626 b 724 418 629 626 724 532 b 514 210 724 303 629 210 z "},"ø":{"ha":1029,"x_min":0,"x_max":0,"o":"m 921 907 l 775 761 b 514 849 701 815 611 849 b 83 418 276 849 83 656 b 171 158 83 321 115 231 l 25 13 l 108 -71 l 254 75 b 514 -12 326 19 417 -12 b 946 418 753 -12 946 181 b 858 678 946 515 913 606 l 1004 824 z m 306 418 b 514 626 306 533 399 626 b 614 601 550 626 585 617 l 331 318 b 306 418 315 347 306 382 z m 724 418 b 514 210 724 303 629 210 b 414 235 478 210 444 219 l 697 518 b 724 418 714 488 724 454 z "},"õ":{"ha":1029,"x_min":0,"x_max":0,"o":"m 638 957 b 810 1144 729 957 810 1032 l 692 1144 b 640 1074 692 1099 672 1074 b 564 1106 615 1074 590 1089 b 449 1150 531 1126 494 1150 b 276 963 356 1150 276 1075 l 393 963 b 446 1033 393 1008 414 1033 b 521 1001 469 1033 494 1018 b 638 957 556 979 593 957 z m 514 -12 b 946 418 753 -12 946 181 b 514 849 946 656 751 849 b 83 418 276 849 83 656 b 514 -12 83 181 276 -12 z m 514 210 b 306 418 399 210 306 303 b 514 626 306 533 399 626 b 724 418 629 626 724 532 b 514 210 724 303 629 210 z "},"œ":{"ha":1667,"x_min":0,"x_max":0,"o":"m 1583 417 b 1154 847 1583 654 1392 846 b 835 706 1028 849 914 793 b 514 849 756 793 640 849 b 83 418 276 849 83 656 b 514 -12 83 181 276 -12 b 835 129 642 -12 756 43 b 1154 -12 914 43 1028 -12 b 1528 204 1308 -12 1449 71 l 1300 269 b 1151 210 1260 232 1208 210 b 971 321 1072 210 1004 256 l 1486 319 b 1583 417 1540 319 1583 363 z m 514 210 b 306 418 399 210 306 303 b 514 626 306 533 399 626 b 724 418 629 626 724 532 b 514 210 724 303 629 210 z m 1154 625 b 1350 486 1244 625 1321 567 l 958 488 b 1154 625 986 568 1064 625 z "},"p":{"ha":992,"x_min":0,"x_max":0,"o":"m 478 846 b 147 690 346 846 228 783 b 111 578 118 657 111 622 l 111 -278 l 333 -278 l 333 10 b 478 -15 378 -7 426 -15 b 908 415 714 -15 908 181 b 478 846 908 650 714 846 z m 478 207 b 333 268 424 207 372 228 l 333 560 b 342 574 333 563 335 567 b 478 624 368 600 419 624 b 686 415 590 624 686 528 b 478 207 686 303 590 207 z "},"þ":{"ha":992,"x_min":0,"x_max":0,"o":"m 478 849 b 333 824 426 849 378 840 l 333 1111 l 111 1111 l 111 -278 l 333 -278 l 333 13 b 478 -12 378 -4 426 -12 b 908 418 714 -12 908 183 b 478 849 908 653 714 849 z m 478 210 b 333 271 424 210 372 231 l 333 565 b 478 626 372 606 424 626 b 686 418 590 626 686 531 b 478 210 686 306 590 210 z "},"q":{"ha":992,"x_min":0,"x_max":0,"o":"m 844 690 b 514 846 764 783 646 846 b 83 415 278 846 83 650 b 514 -15 83 181 278 -15 b 658 10 565 -15 614 -7 l 658 -278 l 881 -278 l 881 578 b 844 690 881 622 874 657 z m 514 207 b 306 415 401 207 306 303 b 514 624 306 528 401 624 b 650 574 572 624 624 600 b 658 556 657 567 658 563 l 658 268 b 514 207 619 228 568 207 z "},"r":{"ha":778,"x_min":0,"x_max":0,"o":"m 333 0 l 333 561 b 338 571 333 564 335 568 b 478 626 375 607 425 626 b 582 597 515 626 547 618 l 694 789 b 478 849 631 826 557 849 b 147 693 346 849 226 788 b 111 581 119 660 111 625 l 111 0 z "},"ŕ":{"ha":778,"x_min":0,"x_max":0,"o":"m 465 957 l 554 1157 l 410 1157 l 321 957 z m 333 0 l 333 561 b 338 571 333 564 335 568 b 478 626 375 607 425 626 b 582 597 515 626 547 618 l 694 789 b 478 849 631 826 557 849 b 147 693 346 849 226 788 b 111 581 119 660 111 625 l 111 0 z "},"ř":{"ha":778,"x_min":0,"x_max":0,"o":"m 335 943 b 454 943 369 908 419 908 l 631 1119 l 479 1119 l 394 1039 l 310 1119 l 158 1119 z m 333 0 l 333 561 b 338 571 333 564 335 568 b 478 626 375 607 425 626 b 582 597 515 626 547 618 l 694 789 b 478 849 631 826 557 849 b 147 693 346 849 226 788 b 111 581 119 660 111 625 l 111 0 z "},"ŗ":{"ha":778,"x_min":0,"x_max":0,"o":"m 514 1131 b 404 1239 514 1190 465 1239 b 296 1131 344 1239 296 1190 b 360 1031 296 1086 322 1047 l 308 975 l 344 926 l 472 1044 b 514 1131 497 1064 514 1096 z m 333 0 l 333 561 b 338 571 333 564 335 568 b 478 626 375 607 425 626 b 582 597 515 626 547 618 l 694 789 b 478 849 631 826 557 849 b 147 693 346 849 226 788 b 111 581 119 660 111 625 l 111 0 z "},"s":{"ha":903,"x_min":0,"x_max":0,"o":"m 556 0 b 819 264 701 0 819 118 b 556 528 819 410 703 528 l 375 528 b 333 569 351 528 333 546 b 375 611 333 593 351 611 l 743 611 l 743 833 l 375 833 b 111 569 229 833 111 715 b 375 306 111 424 228 306 l 556 306 b 597 264 579 306 597 288 b 556 222 597 240 579 222 l 132 222 l 132 0 z "},"ś":{"ha":903,"x_min":0,"x_max":0,"o":"m 629 1157 l 485 1157 l 396 957 l 540 957 z m 556 0 b 819 264 701 0 819 118 b 556 528 819 410 703 528 l 375 528 b 333 569 351 528 333 546 b 375 611 333 593 351 611 l 743 611 l 743 833 l 375 833 b 111 569 229 833 111 715 b 375 306 111 424 228 306 l 556 306 b 597 264 579 306 597 288 b 556 222 597 240 579 222 l 132 222 l 132 0 z "},"š":{"ha":903,"x_min":0,"x_max":0,"o":"m 410 943 b 529 943 444 908 494 908 l 706 1119 l 554 1119 l 469 1039 l 385 1119 l 233 1119 z m 556 0 b 819 264 701 0 819 118 b 556 528 819 410 703 528 l 375 528 b 333 569 351 528 333 546 b 375 611 333 593 351 611 l 743 611 l 743 833 l 375 833 b 111 569 229 833 111 715 b 375 306 111 424 228 306 l 556 306 b 597 264 579 306 597 288 b 556 222 597 240 579 222 l 132 222 l 132 0 z "},"ş":{"ha":903,"x_min":0,"x_max":0,"o":"m 819 264 b 556 528 819 410 703 528 l 375 528 b 333 569 351 528 333 546 b 375 611 333 593 351 611 l 743 611 l 743 833 l 375 833 b 111 569 229 833 111 715 b 375 306 111 424 228 306 l 556 306 b 597 264 579 306 597 288 b 556 222 597 240 579 222 l 132 222 l 132 0 l 435 0 b 507 -76 475 -3 507 -37 b 428 -157 507 -122 472 -157 b 371 -132 406 -157 388 -149 l 286 -214 b 428 -275 324 -253 374 -275 b 625 -76 538 -275 625 -187 b 607 6 625 -47 618 -19 b 819 264 728 29 819 136 z "},"ș":{"ha":903,"x_min":0,"x_max":0,"o":"m 589 1131 b 479 1239 589 1190 540 1239 b 371 1131 419 1239 371 1190 b 435 1031 371 1086 397 1047 l 383 975 l 419 926 l 547 1044 b 589 1131 572 1064 589 1096 z m 556 0 b 819 264 701 0 819 118 b 556 528 819 410 703 528 l 375 528 b 333 569 351 528 333 546 b 375 611 333 593 351 611 l 743 611 l 743 833 l 375 833 b 111 569 229 833 111 715 b 375 306 111 424 228 306 l 556 306 b 597 264 579 306 597 288 b 556 222 597 240 579 222 l 132 222 l 132 0 z "},"ß":{"ha":983,"x_min":0,"x_max":0,"o":"m 719 821 b 725 856 724 833 725 844 b 675 929 725 888 708 913 b 439 986 597 967 518 986 b 111 686 246 986 111 851 l 111 0 l 333 0 l 333 686 b 417 763 333 731 368 763 b 465 753 432 763 449 760 l 419 608 b 403 511 408 574 403 540 b 617 319 403 389 496 319 l 632 319 b 678 272 654 319 678 299 b 631 222 678 243 657 222 l 458 222 l 458 0 l 631 0 b 900 272 779 0 900 121 b 632 542 900 421 779 542 z "},"ſ":{"ha":500,"x_min":0,"x_max":0,"o":"m 403 1113 b 139 849 257 1113 139 994 l 139 -56 b 97 -97 139 -79 121 -97 l -111 -97 l -111 -319 l 97 -319 b 361 -56 243 -319 361 -201 l 361 849 b 403 890 361 872 379 890 l 611 890 l 611 1113 z "},"t":{"ha":736,"x_min":0,"x_max":0,"o":"m 625 833 l 333 833 l 333 972 l 111 972 l 111 264 b 375 0 111 118 229 0 l 625 0 l 625 222 l 375 222 b 333 264 351 222 333 240 l 333 611 l 625 611 z "},"ŧ":{"ha":736,"x_min":0,"x_max":0,"o":"m 625 833 l 333 833 l 333 972 l 111 972 l 111 472 l 0 472 l 0 353 l 111 353 l 111 264 b 375 0 111 118 229 0 l 625 0 l 625 222 l 375 222 b 333 264 351 222 333 240 l 333 353 l 444 353 l 444 472 l 333 472 l 333 611 l 625 611 z "},"ť":{"ha":736,"x_min":0,"x_max":0,"o":"m 564 1110 l 475 910 l 619 910 l 708 1110 z m 111 972 l 111 264 b 375 0 111 118 229 0 l 625 0 l 625 222 l 375 222 b 333 264 351 222 333 240 l 333 611 l 625 611 l 625 833 l 333 833 l 333 972 z "},"ţ":{"ha":736,"x_min":0,"x_max":0,"o":"m 625 833 l 333 833 l 333 972 l 111 972 l 111 264 b 360 0 111 124 221 8 b 432 -76 400 -3 432 -37 b 353 -157 432 -122 397 -157 b 296 -132 331 -157 313 -149 l 211 -214 b 353 -275 249 -253 299 -275 b 550 -76 463 -275 550 -187 b 535 0 550 -50 544 -24 l 625 0 l 625 222 l 375 222 b 333 264 351 222 333 240 l 333 611 l 625 611 z "},"ț":{"ha":736,"x_min":0,"x_max":0,"o":"m 281 1100 l 317 1051 l 444 1169 b 486 1256 469 1189 486 1221 b 376 1364 486 1315 438 1364 b 268 1256 317 1364 268 1315 b 332 1156 268 1211 294 1172 z m 625 833 l 333 833 l 333 972 l 111 972 l 111 264 b 375 0 111 118 229 0 l 625 0 l 625 222 l 375 222 b 333 264 351 222 333 240 l 333 611 l 625 611 z "},"u":{"ha":1017,"x_min":0,"x_max":0,"o":"m 508 -12 b 906 385 728 -12 906 165 l 906 833 l 683 833 l 683 385 b 508 210 683 288 606 210 b 333 385 411 210 333 288 l 333 833 l 111 833 l 111 385 b 508 -12 111 165 289 -12 z "},"ú":{"ha":1017,"x_min":0,"x_max":0,"o":"m 435 957 l 579 957 l 668 1157 l 524 1157 z m 508 -12 b 906 385 728 -12 906 165 l 906 833 l 683 833 l 683 385 b 508 210 683 288 606 210 b 333 385 411 210 333 288 l 333 833 l 111 833 l 111 385 b 508 -12 111 165 289 -12 z "},"ǔ":{"ha":1017,"x_min":0,"x_max":0,"o":"m 449 943 b 568 943 483 908 533 908 l 744 1119 l 593 1119 l 508 1039 l 424 1119 l 272 1119 z m 508 -12 b 906 385 728 -12 906 165 l 906 833 l 683 833 l 683 385 b 508 210 683 288 606 210 b 333 385 411 210 333 288 l 333 833 l 111 833 l 111 385 b 508 -12 111 165 289 -12 z "},"û":{"ha":1017,"x_min":0,"x_max":0,"o":"m 272 958 l 424 958 l 508 1039 l 593 958 l 744 958 l 568 1135 b 449 1135 533 1169 483 1169 z m 508 -12 b 906 385 728 -12 906 165 l 906 833 l 683 833 l 683 385 b 508 210 683 288 606 210 b 333 385 411 210 333 288 l 333 833 l 111 833 l 111 385 b 508 -12 111 165 289 -12 z "},"ü":{"ha":1017,"x_min":0,"x_max":0,"o":"m 371 961 b 465 1054 424 961 465 1003 b 371 1147 465 1106 424 1147 b 278 1054 319 1147 278 1106 b 371 961 278 1003 319 961 z m 644 961 b 739 1054 697 961 739 1003 b 644 1147 739 1106 697 1147 b 551 1054 593 1147 551 1106 b 644 961 551 1003 593 961 z m 508 -12 b 906 385 728 -12 906 165 l 906 833 l 683 833 l 683 385 b 508 210 683 288 606 210 b 333 385 411 210 333 288 l 333 833 l 111 833 l 111 385 b 508 -12 111 165 289 -12 z "},"ǘ":{"ha":1017,"x_min":0,"x_max":0,"o":"m 579 1249 l 668 1449 l 524 1449 l 435 1249 z m 371 961 b 465 1054 424 961 465 1003 b 371 1147 465 1106 424 1147 b 278 1054 319 1147 278 1106 b 371 961 278 1003 319 961 z m 644 961 b 739 1054 697 961 739 1003 b 644 1147 739 1106 697 1147 b 551 1054 593 1147 551 1106 b 644 961 551 1003 593 961 z m 508 -12 b 906 385 728 -12 906 165 l 906 833 l 683 833 l 683 385 b 508 210 683 288 606 210 b 333 385 411 210 333 288 l 333 833 l 111 833 l 111 385 b 508 -12 111 165 289 -12 z "},"ǚ":{"ha":1017,"x_min":0,"x_max":0,"o":"m 449 1235 b 568 1235 483 1200 533 1200 l 744 1411 l 593 1411 l 508 1331 l 424 1411 l 272 1411 z m 371 961 b 465 1054 424 961 465 1003 b 371 1147 465 1106 424 1147 b 278 1054 319 1147 278 1106 b 371 961 278 1003 319 961 z m 644 961 b 739 1054 697 961 739 1003 b 644 1147 739 1106 697 1147 b 551 1054 593 1147 551 1106 b 644 961 551 1003 593 961 z m 508 -12 b 906 385 728 -12 906 165 l 906 833 l 683 833 l 683 385 b 508 210 683 288 606 210 b 333 385 411 210 333 288 l 333 833 l 111 833 l 111 385 b 508 -12 111 165 289 -12 z "},"ǜ":{"ha":1017,"x_min":0,"x_max":0,"o":"m 438 1249 l 582 1249 l 493 1449 l 349 1449 z m 371 961 b 465 1054 424 961 465 1003 b 371 1147 465 1106 424 1147 b 278 1054 319 1147 278 1106 b 371 961 278 1003 319 961 z m 644 961 b 739 1054 697 961 739 1003 b 644 1147 739 1106 697 1147 b 551 1054 593 1147 551 1106 b 644 961 551 1003 593 961 z m 508 -12 b 906 385 728 -12 906 165 l 906 833 l 683 833 l 683 385 b 508 210 683 288 606 210 b 333 385 411 210 333 288 l 333 833 l 111 833 l 111 385 b 508 -12 111 165 289 -12 z "},"ǖ":{"ha":1017,"x_min":0,"x_max":0,"o":"m 272 1260 l 744 1260 l 744 1378 l 272 1378 z m 371 961 b 465 1054 424 961 465 1003 b 371 1147 465 1106 424 1147 b 278 1054 319 1147 278 1106 b 371 961 278 1003 319 961 z m 644 961 b 739 1054 697 961 739 1003 b 644 1147 739 1106 697 1147 b 551 1054 593 1147 551 1106 b 644 961 551 1003 593 961 z m 508 -12 b 906 385 728 -12 906 165 l 906 833 l 683 833 l 683 385 b 508 210 683 288 606 210 b 333 385 411 210 333 288 l 333 833 l 111 833 l 111 385 b 508 -12 111 165 289 -12 z "},"ù":{"ha":1017,"x_min":0,"x_max":0,"o":"m 582 957 l 493 1157 l 349 1157 l 438 957 z m 508 -12 b 906 385 728 -12 906 165 l 906 833 l 683 833 l 683 385 b 508 210 683 288 606 210 b 333 385 411 210 333 288 l 333 833 l 111 833 l 111 385 b 508 -12 111 165 289 -12 z "},"ű":{"ha":1017,"x_min":0,"x_max":0,"o":"m 447 943 l 536 1143 l 392 1143 l 303 943 z m 697 942 l 786 1142 l 639 1143 l 550 943 z m 508 -12 b 906 385 728 -12 906 165 l 906 833 l 683 833 l 683 385 b 508 210 683 288 606 210 b 333 385 411 210 333 288 l 333 833 l 111 833 l 111 385 b 508 -12 111 165 289 -12 z "},"ū":{"ha":1017,"x_min":0,"x_max":0,"o":"m 744 968 l 744 1086 l 272 1086 l 272 968 z m 508 -12 b 906 385 728 -12 906 165 l 906 833 l 683 833 l 683 385 b 508 210 683 288 606 210 b 333 385 411 210 333 288 l 333 833 l 111 833 l 111 385 b 508 -12 111 165 289 -12 z "},"ų":{"ha":1017,"x_min":0,"x_max":0,"o":"m 683 385 b 508 210 683 288 606 210 b 333 385 411 210 333 288 l 333 833 l 111 833 l 111 385 b 353 19 111 221 211 79 b 321 -87 332 -12 321 -49 b 518 -286 321 -199 408 -286 b 660 -225 572 -286 622 -264 l 575 -143 b 518 -168 558 -160 540 -168 b 439 -87 474 -168 439 -133 b 501 -12 439 -51 465 -19 l 508 -12 b 906 385 728 -12 906 165 l 906 833 l 683 833 z "},"ů":{"ha":1017,"x_min":0,"x_max":0,"o":"m 508 922 b 640 1054 582 922 640 981 b 508 1186 640 1128 582 1186 b 376 1054 435 1186 376 1128 b 508 922 376 981 435 922 z m 508 1017 b 471 1054 488 1017 471 1033 b 508 1092 471 1075 488 1092 b 546 1054 528 1092 546 1074 b 508 1017 546 1033 529 1017 z m 508 -12 b 906 385 728 -12 906 165 l 906 833 l 683 833 l 683 385 b 508 210 683 288 606 210 b 333 385 411 210 333 288 l 333 833 l 111 833 l 111 385 b 508 -12 111 165 289 -12 z "},"v":{"ha":979,"x_min":0,"x_max":0,"o":"m 489 -14 b 657 114 557 -14 625 29 l 924 833 l 686 833 l 496 318 b 489 311 494 314 492 311 b 482 318 486 311 483 314 l 292 833 l 56 833 l 321 114 b 489 -14 353 29 421 -14 z "},"w":{"ha":1250,"x_min":0,"x_max":0,"o":"m 942 311 b 839 208 942 254 896 208 b 736 311 782 208 736 254 l 736 833 l 514 833 l 514 311 b 411 208 514 254 468 208 b 308 311 354 208 308 254 l 308 833 l 86 833 l 86 311 b 411 -14 86 132 232 -14 b 625 67 493 -14 568 17 b 839 -14 682 17 757 -14 b 1164 311 1018 -14 1164 132 l 1164 833 l 942 833 z "},"ẃ":{"ha":1250,"x_min":0,"x_max":0,"o":"m 640 1157 l 551 957 l 696 957 l 785 1157 z m 942 311 b 839 208 942 254 896 208 b 736 311 782 208 736 254 l 736 833 l 514 833 l 514 311 b 411 208 514 254 468 208 b 308 311 354 208 308 254 l 308 833 l 86 833 l 86 311 b 411 -14 86 132 232 -14 b 625 67 493 -14 568 17 b 839 -14 682 17 757 -14 b 1164 311 1018 -14 1164 132 l 1164 833 l 942 833 z "},"ŵ":{"ha":1250,"x_min":0,"x_max":0,"o":"m 710 958 l 861 958 l 685 1135 b 565 1135 650 1169 600 1169 l 389 958 l 540 958 l 625 1039 z m 942 311 b 839 208 942 254 896 208 b 736 311 782 208 736 254 l 736 833 l 514 833 l 514 311 b 411 208 514 254 468 208 b 308 311 354 208 308 254 l 308 833 l 86 833 l 86 311 b 411 -14 86 132 232 -14 b 625 67 493 -14 568 17 b 839 -14 682 17 757 -14 b 1164 311 1018 -14 1164 132 l 1164 833 l 942 833 z "},"ẅ":{"ha":1250,"x_min":0,"x_max":0,"o":"m 488 961 b 582 1054 540 961 582 1003 b 488 1147 582 1106 540 1147 b 394 1054 436 1147 394 1106 b 488 961 394 1003 436 961 z m 761 961 b 856 1054 814 961 856 1003 b 761 1147 856 1106 814 1147 b 668 1054 710 1147 668 1106 b 761 961 668 1003 710 961 z m 942 311 b 839 208 942 254 896 208 b 736 311 782 208 736 254 l 736 833 l 514 833 l 514 311 b 411 208 514 254 468 208 b 308 311 354 208 308 254 l 308 833 l 86 833 l 86 311 b 411 -14 86 132 232 -14 b 625 67 493 -14 568 17 b 839 -14 682 17 757 -14 b 1164 311 1018 -14 1164 132 l 1164 833 l 942 833 z "},"ẁ":{"ha":1250,"x_min":0,"x_max":0,"o":"m 610 1157 l 465 1157 l 554 957 l 699 957 z m 942 311 b 839 208 942 254 896 208 b 736 311 782 208 736 254 l 736 833 l 514 833 l 514 311 b 411 208 514 254 468 208 b 308 311 354 208 308 254 l 308 833 l 86 833 l 86 311 b 411 -14 86 132 232 -14 b 625 67 493 -14 568 17 b 839 -14 682 17 757 -14 b 1164 311 1018 -14 1164 132 l 1164 833 l 942 833 z "},"x":{"ha":972,"x_min":0,"x_max":0,"o":"m 647 417 l 757 521 b 904 833 844 604 904 713 l 682 833 b 615 693 682 778 656 732 l 486 571 l 357 693 b 290 833 317 732 290 778 l 68 833 b 215 521 68 713 128 604 l 325 417 l 215 313 b 68 0 128 229 68 121 l 290 0 b 357 140 290 56 317 101 l 486 263 l 615 140 b 682 0 656 101 682 56 l 904 0 b 757 313 904 121 844 229 z "},"y":{"ha":972,"x_min":0,"x_max":0,"o":"m 663 274 b 528 225 622 243 574 225 b 310 443 415 225 310 331 l 310 833 l 88 833 l 88 443 b 518 13 88 208 282 13 b 663 38 569 13 618 22 l 663 17 b 549 -97 663 -49 614 -97 l 213 -97 l 213 -319 l 549 -319 b 885 17 736 -319 885 -171 l 885 833 l 663 833 z "},"ý":{"ha":972,"x_min":0,"x_max":0,"o":"m 506 1157 l 417 957 l 561 957 l 650 1157 z m 663 274 b 528 225 622 243 574 225 b 310 443 415 225 310 331 l 310 833 l 88 833 l 88 443 b 518 13 88 208 282 13 b 663 38 569 13 618 22 l 663 17 b 549 -97 663 -49 614 -97 l 213 -97 l 213 -319 l 549 -319 b 885 17 736 -319 885 -171 l 885 833 l 663 833 z "},"ŷ":{"ha":972,"x_min":0,"x_max":0,"o":"m 575 958 l 726 958 l 550 1135 b 431 1135 515 1169 465 1169 l 254 958 l 406 958 l 490 1039 z m 663 274 b 528 225 622 243 574 225 b 310 443 415 225 310 331 l 310 833 l 88 833 l 88 443 b 518 13 88 208 282 13 b 663 38 569 13 618 22 l 663 17 b 549 -97 663 -49 614 -97 l 213 -97 l 213 -319 l 549 -319 b 885 17 736 -319 885 -171 l 885 833 l 663 833 z "},"ÿ":{"ha":972,"x_min":0,"x_max":0,"o":"m 353 961 b 447 1054 406 961 447 1003 b 353 1147 447 1106 406 1147 b 260 1054 301 1147 260 1106 b 353 961 260 1003 301 961 z m 626 961 b 721 1054 679 961 721 1003 b 626 1147 721 1106 679 1147 b 533 1054 575 1147 533 1106 b 626 961 533 1003 575 961 z m 663 274 b 528 225 622 243 574 225 b 310 443 415 225 310 331 l 310 833 l 88 833 l 88 443 b 518 13 88 208 282 13 b 663 38 569 13 618 22 l 663 17 b 549 -97 663 -49 614 -97 l 213 -97 l 213 -319 l 549 -319 b 885 17 736 -319 885 -171 l 885 833 l 663 833 z "},"ỳ":{"ha":972,"x_min":0,"x_max":0,"o":"m 475 1157 l 331 1157 l 419 957 l 564 957 z m 663 274 b 528 225 622 243 574 225 b 310 443 415 225 310 331 l 310 833 l 88 833 l 88 443 b 518 13 88 208 282 13 b 663 38 569 13 618 22 l 663 17 b 549 -97 663 -49 614 -97 l 213 -97 l 213 -319 l 549 -319 b 885 17 736 -319 885 -171 l 885 833 l 663 833 z "},"z":{"ha":1042,"x_min":0,"x_max":0,"o":"m 896 603 b 942 701 928 631 942 667 b 808 833 942 769 889 833 l 113 833 l 113 611 l 571 611 l 144 231 b 99 132 113 203 99 167 b 232 0 99 64 151 0 l 942 0 l 942 222 l 469 222 z "},"ź":{"ha":1042,"x_min":0,"x_max":0,"o":"m 550 1157 l 461 957 l 606 957 l 694 1157 z m 896 603 b 942 701 928 631 942 667 b 808 833 942 769 889 833 l 113 833 l 113 611 l 571 611 l 144 231 b 99 132 113 203 99 167 b 232 0 99 64 151 0 l 942 0 l 942 222 l 469 222 z "},"ž":{"ha":1042,"x_min":0,"x_max":0,"o":"m 771 1119 l 619 1119 l 535 1039 l 450 1119 l 299 1119 l 475 943 b 594 943 510 908 560 908 z m 896 603 b 942 701 928 631 942 667 b 808 833 942 769 889 833 l 113 833 l 113 611 l 571 611 l 144 231 b 99 132 113 203 99 167 b 232 0 99 64 151 0 l 942 0 l 942 222 l 469 222 z "},"ż":{"ha":1042,"x_min":0,"x_max":0,"o":"m 535 935 b 654 1054 601 935 654 988 b 535 1174 654 1121 601 1174 b 415 1054 468 1174 415 1121 b 535 935 415 988 468 935 z m 896 603 b 942 701 928 631 942 667 b 808 833 942 769 889 833 l 113 833 l 113 611 l 571 611 l 144 231 b 99 132 113 203 99 167 b 232 0 99 64 151 0 l 942 0 l 942 222 l 469 222 z "},"ﬁ":{"ha":1294,"x_min":0,"x_max":0,"o":"m 111 0 l 333 0 l 333 611 l 649 611 l 649 833 l 338 833 b 542 1000 358 928 442 1000 b 657 965 585 1000 621 989 l 781 1150 b 542 1222 710 1196 625 1222 b 111 790 304 1222 111 1028 z m 1044 935 b 1164 1054 1111 935 1164 988 b 1044 1174 1164 1121 1111 1174 b 925 1054 978 1174 925 1121 b 1044 935 925 988 978 935 z m 1156 0 l 1156 833 l 933 833 l 933 0 z "},"ﬂ":{"ha":1281,"x_min":0,"x_max":0,"o":"m 111 0 l 333 0 l 333 611 l 649 611 l 649 833 l 338 833 b 542 1000 358 928 442 1000 b 657 965 585 1000 621 989 l 781 1150 b 542 1222 710 1196 625 1222 b 111 790 304 1222 111 1028 z m 947 0 l 1169 0 l 1169 1111 l 947 1111 z "},"А":{"ha":1111,"x_min":0,"x_max":0,"o":"m 1075 0 l 807 831 b 557 1007 769 936 669 1007 b 306 831 444 1007 340 938 l 36 0 l 271 0 l 325 167 l 789 167 l 843 0 z m 517 758 b 557 785 522 774 539 785 b 596 758 575 785 590 775 l 717 389 l 397 389 z "},"Б":{"ha":1081,"x_min":0,"x_max":0,"o":"m 333 581 l 333 746 b 338 750 333 749 335 750 l 824 750 l 824 972 l 338 972 b 111 746 201 972 111 882 l 111 222 b 333 0 111 78 189 0 l 706 0 b 997 290 867 0 997 129 b 707 581 997 451 868 581 z m 338 222 b 333 226 335 222 333 224 l 333 358 l 707 358 b 775 290 746 358 775 329 b 706 222 775 253 744 222 z "},"В":{"ha":1111,"x_min":0,"x_max":0,"o":"m 926 519 b 969 674 954 565 969 618 b 671 972 969 838 835 972 l 199 972 b 88 861 126 972 88 933 l 88 111 b 199 0 88 39 126 0 l 726 0 b 1025 299 890 0 1025 135 b 926 519 1025 386 986 465 z m 671 750 b 747 674 714 750 747 717 b 671 597 747 631 714 597 l 310 597 l 310 750 z m 310 222 l 310 375 l 726 375 b 803 299 769 375 803 342 b 726 222 803 256 769 222 z "},"Г":{"ha":963,"x_min":0,"x_max":0,"o":"m 338 972 b 111 746 201 972 111 882 l 111 0 l 333 0 l 333 746 b 338 750 333 749 335 750 l 907 750 l 907 972 z "},"Ѓ":{"ha":963,"x_min":0,"x_max":0,"o":"m 436 1110 l 581 1110 l 669 1310 l 525 1310 z m 338 972 b 111 746 201 972 111 882 l 111 0 l 333 0 l 333 746 b 338 750 333 749 335 750 l 907 750 l 907 972 z "},"Ґ":{"ha":1018,"x_min":0,"x_max":0,"o":"m 768 972 l 338 972 b 111 746 201 972 111 882 l 111 0 l 333 0 l 333 746 b 338 750 333 749 335 750 l 768 750 b 935 919 864 750 935 821 l 935 1114 l 768 1114 z "},"Д":{"ha":1308,"x_min":0,"x_max":0,"o":"m 1058 746 b 832 972 1058 882 968 972 l 486 972 b 260 746 350 972 260 883 l 260 485 b 167 204 260 367 235 286 b 83 56 117 176 83 122 l 83 -139 l 250 -139 l 250 0 l 1058 0 l 1058 -139 l 1225 -139 l 1225 56 b 1058 225 1225 154 1154 225 z m 435 222 b 482 485 467 300 482 386 l 482 746 b 486 750 482 749 483 750 l 832 750 b 836 746 835 750 836 749 l 836 222 z "},"Е":{"ha":1056,"x_min":0,"x_max":0,"o":"m 956 972 l 324 972 b 101 750 179 972 101 894 l 101 222 b 324 0 101 78 179 0 l 956 0 l 956 222 l 324 222 l 324 375 l 758 375 l 758 597 l 324 597 l 324 750 l 956 750 z "},"Ё":{"ha":1056,"x_min":0,"x_max":0,"o":"m 406 1114 b 500 1207 458 1114 500 1156 b 406 1300 500 1258 458 1300 b 313 1207 354 1300 313 1258 b 406 1114 313 1156 354 1114 z m 679 1114 b 774 1207 732 1114 774 1156 b 679 1300 774 1258 732 1300 b 586 1207 628 1300 586 1258 b 679 1114 586 1156 628 1114 z m 956 972 l 324 972 b 101 750 179 972 101 894 l 101 222 b 324 0 101 78 179 0 l 956 0 l 956 222 l 324 222 l 324 375 l 758 375 l 758 597 l 324 597 l 324 750 l 956 750 z "},"Ж":{"ha":1347,"x_min":0,"x_max":0,"o":"m 1089 486 b 1094 510 1089 493 1090 499 l 1264 972 l 1028 974 l 889 596 l 785 596 l 785 972 l 563 972 l 563 596 l 458 596 l 319 972 l 83 972 l 253 510 b 258 486 257 500 258 493 b 253 463 258 479 257 474 l 83 0 l 319 -1 l 457 374 l 563 374 l 563 0 l 785 0 l 785 374 l 890 374 l 1028 0 l 1264 0 l 1094 463 b 1089 486 1090 472 1089 479 z "},"З":{"ha":1075,"x_min":0,"x_max":0,"o":"m 918 494 b 978 674 957 546 978 608 b 679 972 978 838 843 972 l 360 972 b 111 839 257 972 165 919 l 296 717 b 360 750 310 738 333 750 l 679 750 b 756 674 722 750 756 717 b 679 597 756 631 722 597 l 360 597 l 360 375 l 693 375 b 769 299 736 375 769 342 b 693 222 769 256 736 222 l 360 222 b 296 256 333 222 310 235 l 111 133 b 360 0 165 53 257 0 l 693 0 b 992 299 857 0 992 135 b 918 494 992 374 964 443 z "},"И":{"ha":1238,"x_min":0,"x_max":0,"o":"m 932 1000 b 628 797 796 1000 681 925 l 397 238 b 333 190 385 208 361 190 l 333 972 l 111 972 l 111 151 b 304 -32 111 42 189 -32 b 608 171 442 -32 556 43 l 839 731 b 904 778 851 760 876 778 l 904 0 l 1125 0 l 1125 817 b 932 1000 1125 926 1050 1000 z "},"Й":{"ha":1238,"x_min":0,"x_max":0,"o":"m 615 1063 b 817 1264 726 1063 817 1151 l 699 1264 b 615 1181 699 1218 663 1181 b 532 1264 568 1181 532 1217 l 414 1264 b 615 1063 414 1151 503 1063 z m 932 1000 b 628 797 796 1000 681 925 l 397 238 b 333 190 385 208 361 190 l 333 972 l 111 972 l 111 151 b 304 -32 111 42 189 -32 b 608 171 442 -32 556 43 l 839 731 b 904 778 851 760 876 778 l 904 0 l 1125 0 l 1125 817 b 932 1000 1125 926 1050 1000 z "},"К":{"ha":1083,"x_min":0,"x_max":0,"o":"m 322 0 l 322 972 l 100 972 l 100 0 z m 985 0 l 619 417 b 592 486 600 438 592 463 b 619 556 592 510 601 535 l 985 972 l 689 972 l 453 703 b 369 486 397 639 369 563 b 453 269 369 410 396 335 l 689 0 z "},"Ќ":{"ha":1083,"x_min":0,"x_max":0,"o":"m 558 1110 l 647 1310 l 503 1310 l 414 1110 z m 322 0 l 322 972 l 100 972 l 100 0 z m 985 0 l 619 417 b 592 486 600 438 592 463 b 619 556 592 510 601 535 l 985 972 l 689 972 l 453 703 b 369 486 397 639 369 563 b 453 269 369 410 396 335 l 689 0 z "},"Л":{"ha":1061,"x_min":0,"x_max":0,"o":"m 364 972 b 138 746 228 972 138 882 l 138 278 b 82 222 138 247 113 222 l 28 222 l 28 0 l 82 0 b 360 278 263 0 360 97 l 360 746 b 364 750 360 749 361 750 l 724 750 b 728 746 726 750 728 749 l 728 0 l 950 0 l 950 746 b 724 972 950 882 860 972 z "},"М":{"ha":1528,"x_min":0,"x_max":0,"o":"m 764 -35 b 1019 189 882 -35 999 40 l 1094 754 b 1129 786 1097 776 1113 786 b 1163 754 1144 786 1160 776 l 1261 0 l 1486 0 l 1383 783 b 1129 1007 1364 932 1246 1007 b 874 783 1011 1007 893 932 l 799 218 b 765 186 796 197 781 186 b 731 218 749 186 733 197 l 654 785 b 400 1007 635 932 518 1007 b 144 783 282 1007 165 932 l 42 0 l 267 0 l 365 754 b 400 786 368 776 383 786 b 433 754 415 786 431 776 l 510 188 b 764 -35 529 40 646 -35 z "},"Н":{"ha":1111,"x_min":0,"x_max":0,"o":"m 775 597 l 338 597 l 338 972 l 115 972 l 115 0 l 338 0 l 338 375 l 775 375 l 775 0 l 997 0 l 997 972 l 775 972 z "},"О":{"ha":1250,"x_min":0,"x_max":0,"o":"m 625 -35 b 1142 486 911 -35 1142 199 b 625 1007 1142 774 911 1007 b 110 486 340 1007 110 774 b 625 -35 110 199 340 -35 z m 625 188 b 329 486 463 188 329 321 b 625 785 329 651 463 785 b 922 486 789 785 922 651 b 625 188 922 321 789 188 z "},"П":{"ha":1104,"x_min":0,"x_max":0,"o":"m 338 972 b 111 746 201 972 111 882 l 111 0 l 333 0 l 333 746 b 338 750 333 749 335 750 l 767 750 b 771 746 769 750 771 749 l 771 0 l 993 0 l 993 746 b 767 972 993 882 903 972 z "},"Р":{"ha":1111,"x_min":0,"x_max":0,"o":"m 335 972 b 113 750 190 972 113 894 l 113 0 l 335 0 l 335 264 l 644 264 b 999 618 840 264 999 422 b 643 972 999 814 839 972 z m 335 486 l 335 750 l 643 750 b 775 618 715 750 775 690 b 643 486 775 546 715 486 z "},"С":{"ha":1167,"x_min":0,"x_max":0,"o":"m 604 -35 b 1056 225 797 -35 965 69 l 864 336 b 604 188 813 254 729 188 b 306 486 438 188 306 319 b 604 785 306 653 438 785 b 864 636 729 785 813 718 l 1056 747 b 604 1007 965 903 797 1007 b 83 486 317 1007 83 774 b 604 -35 83 199 317 -35 z "},"Т":{"ha":972,"x_min":0,"x_max":0,"o":"m 56 972 l 56 764 l 375 764 l 375 0 l 597 0 l 597 764 l 917 764 l 917 972 z "},"У":{"ha":1061,"x_min":0,"x_max":0,"o":"m 728 544 l 485 624 b 333 833 378 658 333 719 l 333 972 l 111 972 l 111 833 b 415 413 111 622 217 476 l 706 318 b 544 222 675 261 614 222 l 114 222 l 114 0 l 544 0 b 950 406 768 0 950 182 l 950 972 l 728 972 z "},"Ў":{"ha":1061,"x_min":0,"x_max":0,"o":"m 532 1063 b 733 1264 643 1063 733 1151 l 615 1264 b 532 1181 615 1218 579 1181 b 449 1264 485 1181 449 1217 l 331 1264 b 532 1063 331 1151 419 1063 z m 728 544 l 485 624 b 333 833 378 658 333 719 l 333 972 l 111 972 l 111 833 b 415 413 111 622 217 476 l 706 318 b 544 222 675 261 614 222 l 114 222 l 114 0 l 544 0 b 950 406 768 0 950 182 l 950 972 l 728 972 z "},"Ф":{"ha":1192,"x_min":0,"x_max":0,"o":"m 707 824 l 707 972 l 485 972 l 485 824 l 422 824 b 83 486 235 824 83 672 b 421 149 83 300 233 149 l 485 149 l 485 0 l 707 0 l 707 149 l 771 149 b 1108 486 957 149 1108 300 b 769 824 1108 672 956 824 z m 421 371 b 306 486 357 371 306 422 b 422 601 306 550 357 601 l 485 601 l 485 371 z m 707 371 l 707 601 l 769 601 b 886 486 833 601 886 549 b 771 371 886 422 835 371 z "},"Х":{"ha":1222,"x_min":0,"x_max":0,"o":"m 775 486 l 964 660 b 1111 972 1057 736 1111 851 l 889 972 b 822 829 889 917 864 865 l 611 636 l 400 829 b 333 972 358 865 333 917 l 111 972 b 258 660 111 851 165 736 l 447 486 l 258 313 b 111 0 165 236 111 121 l 333 0 b 400 143 333 56 358 107 l 611 336 l 822 143 b 889 0 864 107 889 56 l 1111 0 b 964 313 1111 121 1057 236 z "},"Ч":{"ha":1019,"x_min":0,"x_max":0,"o":"m 686 588 b 542 526 647 547 596 526 b 333 735 429 526 333 622 l 333 972 l 111 972 l 111 735 b 542 304 111 500 306 304 b 686 329 593 304 642 313 l 686 0 l 908 0 l 908 972 l 686 972 z "},"Ц":{"ha":1215,"x_min":0,"x_max":0,"o":"m 965 972 l 743 972 l 743 222 l 338 222 b 333 226 335 222 333 224 l 333 972 l 111 972 l 111 226 b 338 0 111 90 201 0 l 965 0 l 965 -139 l 1132 -139 l 1132 56 b 965 225 1132 154 1061 225 z "},"Ш":{"ha":1153,"x_min":0,"x_max":0,"o":"m 819 226 b 815 222 819 224 818 222 l 688 222 l 688 972 l 465 972 l 465 222 l 338 222 b 333 226 335 222 333 224 l 333 972 l 111 972 l 111 226 b 338 0 111 90 201 0 l 815 0 b 1042 226 951 0 1042 90 l 1042 972 l 819 972 z "},"Щ":{"ha":1264,"x_min":0,"x_max":0,"o":"m 1042 972 l 819 972 l 819 222 l 688 222 l 688 972 l 465 972 l 465 222 l 338 222 b 333 226 335 222 333 224 l 333 972 l 111 972 l 111 226 b 338 0 111 90 201 0 l 1042 0 l 1042 -142 l 1208 -142 l 1208 53 b 1042 222 1208 151 1138 222 z "},"Џ":{"ha":1033,"x_min":0,"x_max":0,"o":"m 700 226 b 696 222 700 224 699 222 l 338 222 b 333 226 335 222 333 224 l 333 972 l 111 972 l 111 226 b 338 0 111 90 201 0 l 433 0 l 433 -139 l 600 -139 l 600 0 l 696 0 b 922 226 832 0 922 90 l 922 972 l 700 972 z "},"Ь":{"ha":1081,"x_min":0,"x_max":0,"o":"m 333 708 l 333 972 l 111 972 l 111 222 b 333 0 111 78 189 0 l 642 0 b 997 354 838 0 997 158 b 643 708 997 550 839 708 z m 333 222 l 333 486 l 642 486 b 774 354 714 486 774 426 b 642 222 774 282 714 222 z "},"Ъ":{"ha":1081,"x_min":0,"x_max":0,"o":"m 472 708 l 472 746 b 246 972 472 882 382 972 l 28 972 l 28 750 l 250 750 l 250 222 b 472 0 250 78 328 0 l 642 0 b 997 354 838 0 997 158 b 643 708 997 550 839 708 z m 472 222 l 472 486 l 642 486 b 774 354 714 486 774 426 b 642 222 774 282 714 222 z "},"Ы":{"ha":1331,"x_min":0,"x_max":0,"o":"m 333 708 l 333 972 l 111 972 l 111 222 b 333 0 111 78 189 0 l 503 0 b 858 354 699 0 858 158 b 504 708 858 550 700 708 z m 997 0 l 1219 0 l 1219 972 l 997 972 z m 333 222 l 333 486 l 503 486 b 635 354 575 486 635 426 b 503 222 635 282 575 222 z "},"Љ":{"ha":1406,"x_min":0,"x_max":0,"o":"m 853 708 l 853 746 b 626 972 853 882 763 972 l 364 972 b 138 746 228 972 138 882 l 138 278 b 82 222 138 247 113 222 l 28 222 l 28 0 l 82 0 b 360 278 263 0 360 97 l 360 746 b 364 750 360 749 361 750 l 626 750 b 631 746 629 750 631 749 l 631 222 b 853 0 631 78 708 0 l 967 0 b 1322 354 1163 0 1322 158 b 968 708 1322 550 1164 708 z m 853 222 l 853 486 l 967 486 b 1099 354 1039 486 1099 426 b 967 222 1099 282 1039 222 z "},"Њ":{"ha":1435,"x_min":0,"x_max":0,"o":"m 882 708 l 882 972 l 660 972 l 660 597 l 333 597 l 333 972 l 111 972 l 111 0 l 333 0 l 333 375 l 660 375 l 660 222 b 882 0 660 78 738 0 l 996 0 b 1351 354 1192 0 1351 158 b 997 708 1351 550 1193 708 z m 882 222 l 882 486 l 996 486 b 1128 354 1068 486 1128 426 b 996 222 1128 282 1068 222 z "},"Ѕ":{"ha":1067,"x_min":0,"x_max":0,"o":"m 657 0 b 956 299 819 0 956 133 b 657 597 956 463 821 597 l 410 597 b 333 674 367 597 333 631 b 410 750 333 717 367 750 l 900 750 l 900 972 l 410 972 b 111 674 244 972 111 836 b 410 375 111 508 244 375 l 657 375 b 733 299 699 375 733 340 b 657 222 733 256 700 222 l 131 222 l 131 0 z "},"Є":{"ha":1167,"x_min":0,"x_max":0,"o":"m 604 188 b 317 404 467 188 351 278 l 604 403 l 604 569 l 317 571 b 604 785 353 696 467 785 b 864 636 729 785 813 718 l 1056 747 b 604 1007 965 903 797 1007 b 83 486 317 1007 83 774 b 604 -35 83 199 317 -35 b 1056 225 797 -35 965 69 l 864 336 b 604 188 813 254 729 188 z "},"Э":{"ha":1167,"x_min":0,"x_max":0,"o":"m 563 1007 b 111 747 369 1007 201 903 l 303 636 b 563 785 354 718 438 785 b 850 571 700 785 814 696 l 563 569 l 563 403 l 850 404 b 563 188 815 278 700 188 b 303 336 438 188 354 254 l 111 225 b 563 -35 201 69 369 -35 b 1083 486 850 -35 1083 199 b 563 1007 1083 774 850 1007 z "},"І":{"ha":417,"x_min":0,"x_max":0,"o":"m 319 0 l 319 972 l 97 972 l 97 0 z "},"Ї":{"ha":417,"x_min":0,"x_max":0,"o":"m 71 1114 b 165 1207 124 1114 165 1156 b 71 1300 165 1258 124 1300 b -22 1207 19 1300 -22 1258 b 71 1114 -22 1156 19 1114 z m 344 1114 b 439 1207 397 1114 439 1156 b 344 1300 439 1258 397 1300 b 251 1207 293 1300 251 1258 b 344 1114 251 1156 293 1114 z m 319 0 l 319 972 l 97 972 l 97 0 z "},"Ј":{"ha":833,"x_min":0,"x_max":0,"o":"m 326 0 b 771 444 596 0 771 175 l 771 972 l 549 972 l 549 444 b 326 222 549 300 471 222 l 111 222 l 111 0 z "},"Ћ":{"ha":1282,"x_min":0,"x_max":0,"o":"m 740 668 b 596 643 689 668 640 660 l 596 764 l 917 764 l 917 972 l 56 972 l 56 764 l 374 764 l 374 0 l 596 0 l 596 385 b 740 446 635 425 686 446 b 949 238 853 446 949 350 l 949 0 l 1171 0 l 1171 238 b 740 668 1171 472 976 668 z "},"Ю":{"ha":1436,"x_min":0,"x_max":0,"o":"m 901 1007 b 460 597 683 1007 501 849 l 333 597 l 333 972 l 111 972 l 111 0 l 333 0 l 333 375 l 460 375 b 901 -35 501 124 683 -35 b 1353 486 1151 -35 1353 171 b 901 1007 1353 801 1151 1007 z m 901 188 b 674 486 769 188 674 304 b 901 785 674 668 769 785 b 1131 486 1035 785 1131 668 b 901 188 1131 304 1035 188 z "},"Я":{"ha":1129,"x_min":0,"x_max":0,"o":"m 1018 751 b 796 972 1018 874 919 972 l 432 972 b 132 674 268 972 132 839 b 431 375 132 508 265 375 l 456 375 b 483 349 472 375 483 364 b 475 328 483 340 481 333 l 111 0 l 443 0 l 624 163 b 719 361 690 222 719 294 b 458 597 719 486 619 597 l 431 597 b 354 674 388 597 354 631 b 432 750 354 715 389 750 l 796 750 l 796 0 l 1018 0 z "},"Ђ":{"ha":1150,"x_min":0,"x_max":0,"o":"m 721 692 b 597 669 678 692 636 683 l 597 764 l 917 764 l 917 972 l 56 972 l 56 764 l 375 764 l 375 0 l 597 0 l 597 346 b 721 469 597 415 651 469 b 844 346 790 469 844 415 b 719 222 844 278 789 222 l 719 0 b 1067 346 911 0 1067 154 b 721 692 1067 538 913 692 z "},"Ѣ":{"ha":999,"x_min":0,"x_max":0,"o":"m 390 708 l 390 774 l 500 774 l 500 893 l 390 893 l 390 972 l 168 972 l 168 893 l 56 893 l 56 774 l 168 774 l 168 222 b 390 0 168 78 246 0 l 560 0 b 915 354 756 0 915 158 b 561 708 915 550 757 708 z m 390 222 l 390 486 l 560 486 b 692 354 632 486 692 426 b 560 222 692 282 632 222 z "},"Ѳ":{"ha":1199,"x_min":0,"x_max":0,"o":"m 625 1007 b 110 486 340 1007 110 774 b 625 -35 110 199 340 -35 b 1142 486 911 -35 1142 199 b 625 1007 1142 774 911 1007 z m 625 785 b 911 567 761 785 876 693 l 885 585 b 767 510 847 529 811 510 b 625 549 726 510 678 528 b 422 597 560 572 490 600 b 344 582 396 596 369 592 b 625 785 385 700 496 785 z m 625 188 b 338 418 486 188 368 286 b 432 463 367 450 397 463 b 575 424 474 463 522 444 b 776 375 639 400 708 372 b 915 425 826 375 875 393 b 625 188 888 289 768 188 z "},"Ѵ":{"ha":1193,"x_min":0,"x_max":0,"o":"m 1054 972 b 804 796 942 972 840 906 l 615 214 b 576 188 610 197 594 188 b 536 214 558 188 542 199 l 290 972 l 56 972 l 325 142 b 576 -35 363 28 464 -35 b 826 142 689 -35 792 33 l 1015 724 b 1054 750 1021 740 1036 750 l 1138 750 l 1138 972 z "},"Ғ":{"ha":1001,"x_min":0,"x_max":0,"o":"m 890 750 l 890 972 l 421 972 b 194 746 285 972 194 882 l 194 554 l 83 554 l 83 436 l 194 436 l 194 0 l 417 0 l 417 436 l 890 436 l 890 554 l 417 554 l 417 746 b 421 750 417 749 418 750 z "},"Ҕ":{"ha":914,"x_min":0,"x_max":0,"o":"m 457 692 b 333 669 414 692 372 683 l 333 746 b 338 750 333 749 335 750 l 754 750 l 754 972 l 338 972 b 111 746 201 972 111 882 l 111 0 l 333 0 l 333 346 b 457 469 333 415 388 469 b 581 346 526 469 581 415 b 456 222 581 278 525 222 l 456 0 b 803 346 647 0 803 154 b 457 692 803 538 649 692 z "},"Җ":{"ha":1419,"x_min":0,"x_max":0,"o":"m 1182 225 l 1094 463 b 1089 486 1090 472 1089 479 b 1094 510 1089 493 1090 499 l 1264 972 l 1028 972 l 889 596 l 785 596 l 785 972 l 563 972 l 563 596 l 458 596 l 319 972 l 83 972 l 253 510 b 258 486 257 500 258 493 b 253 463 258 479 257 474 l 83 0 l 319 0 l 457 374 l 563 374 l 563 0 l 785 0 l 785 374 l 890 374 l 1028 0 l 1197 0 l 1197 -139 l 1364 -139 l 1364 56 b 1197 225 1364 154 1293 225 z "},"Ҙ":{"ha":1075,"x_min":0,"x_max":0,"o":"m 918 494 b 978 674 957 546 978 608 b 679 972 978 838 843 972 l 360 972 b 111 839 257 972 165 919 l 296 717 b 360 750 310 738 333 750 l 679 750 b 756 674 722 750 756 717 b 679 597 756 631 722 597 l 360 597 l 360 375 l 693 375 b 769 299 736 375 769 342 b 693 222 769 256 736 222 l 360 222 b 296 256 333 222 310 235 l 111 133 b 360 0 165 53 257 0 l 496 0 b 568 -76 536 -3 568 -37 b 489 -157 568 -122 533 -157 b 432 -132 467 -157 449 -149 l 347 -214 b 489 -275 385 -253 435 -275 b 686 -76 599 -275 686 -187 b 671 0 686 -50 681 -24 l 693 0 b 992 299 857 0 992 135 b 918 494 992 374 964 443 z "},"Қ":{"ha":1118,"x_min":0,"x_max":0,"o":"m 322 0 l 322 972 l 100 972 l 100 0 z m 788 225 l 619 417 b 592 486 600 438 592 463 b 619 556 592 510 601 535 l 985 972 l 689 972 l 453 703 b 369 486 397 639 369 563 b 453 269 369 410 396 335 l 689 0 l 868 0 l 868 -139 l 1035 -139 l 1035 56 b 868 225 1035 154 964 225 z "},"Ҝ":{"ha":1313,"x_min":0,"x_max":0,"o":"m 864 486 b 892 556 864 510 874 535 l 1257 972 l 961 972 l 725 703 b 661 597 697 671 675 635 l 582 597 l 582 764 l 415 764 l 415 597 l 333 597 l 333 972 l 111 972 l 111 0 l 333 0 l 333 375 l 415 375 l 415 208 l 582 208 l 582 375 l 661 375 b 725 269 675 338 696 303 l 961 0 l 1257 0 l 892 417 b 864 486 872 438 864 463 z "},"Ҟ":{"ha":1163,"x_min":0,"x_max":0,"o":"m 528 893 l 406 893 l 406 972 l 183 972 l 183 893 l 83 893 l 83 774 l 183 774 l 183 0 l 406 0 l 406 774 l 528 774 z m 675 486 b 703 556 675 510 685 535 l 1068 972 l 772 972 l 536 703 b 453 486 481 639 453 563 b 536 269 453 410 479 335 l 772 0 l 1068 0 l 703 417 b 675 486 683 438 675 463 z "},"Ҡ":{"ha":1333,"x_min":0,"x_max":0,"o":"m 588 0 l 588 746 b 361 972 588 882 497 972 l 56 972 l 56 750 l 361 750 b 365 746 364 750 365 749 l 365 0 z m 1250 0 l 885 417 b 857 486 865 438 857 463 b 885 556 857 510 867 535 l 1250 972 l 954 972 l 718 703 b 635 486 663 639 635 563 b 718 269 635 410 661 335 l 954 0 z "},"Ң":{"ha":1244,"x_min":0,"x_max":0,"o":"m 997 972 l 775 972 l 775 597 l 338 597 l 338 972 l 115 972 l 115 0 l 338 0 l 338 375 l 775 375 l 775 0 l 994 0 l 994 -139 l 1161 -139 l 1161 56 b 997 225 1161 153 1092 224 z "},"Ҥ":{"ha":1243,"x_min":0,"x_max":0,"o":"m 882 972 b 656 746 746 972 656 882 l 656 597 l 333 597 l 333 972 l 111 972 l 111 0 l 333 0 l 333 375 l 656 375 l 656 0 l 878 0 l 878 746 b 882 750 878 749 879 750 l 1188 750 l 1188 972 z "},"Ҧ":{"ha":1379,"x_min":0,"x_max":0,"o":"m 950 692 b 826 669 907 692 865 683 l 826 746 b 600 972 826 882 736 972 l 338 972 b 111 746 201 972 111 882 l 111 0 l 333 0 l 333 746 b 338 750 333 749 335 750 l 600 750 b 604 746 603 750 604 749 l 604 0 l 826 0 l 826 346 b 950 469 826 415 881 469 b 1074 346 1019 469 1074 415 b 949 222 1074 278 1018 222 l 949 0 b 1296 346 1140 0 1296 154 b 950 692 1296 538 1142 692 z "},"Ԥ":{"ha":1243,"x_min":0,"x_max":0,"o":"m 993 746 b 767 972 993 882 903 972 l 338 972 b 111 746 201 972 111 882 l 111 0 l 333 0 l 333 746 b 338 750 333 749 335 750 l 767 750 b 771 746 769 750 771 749 l 771 0 l 993 0 l 993 -139 l 1160 -139 l 1160 56 b 993 225 1160 154 1089 225 z "},"Ҩ":{"ha":1300,"x_min":0,"x_max":0,"o":"m 1189 538 b 894 835 1189 701 1097 835 b 600 536 692 835 600 700 b 714 206 600 428 640 308 b 604 188 679 194 642 188 b 306 486 439 188 306 321 b 604 785 306 651 439 785 l 604 1007 b 83 486 317 1007 83 774 b 604 -35 83 199 317 -35 b 894 43 715 -35 813 -6 b 1185 -35 976 -6 1074 -35 l 1185 188 b 1074 206 1146 188 1108 194 b 1189 538 1149 308 1189 429 z m 894 619 b 967 538 931 619 967 592 b 894 335 967 464 939 394 b 822 536 849 393 822 464 b 894 619 822 592 858 619 z "},"Ҫ":{"ha":1167,"x_min":0,"x_max":0,"o":"m 604 188 b 306 486 438 188 306 319 b 604 785 306 653 438 785 b 864 636 729 785 813 718 l 1056 747 b 604 1007 965 903 797 1007 b 83 486 317 1007 83 774 b 575 -33 83 208 301 -18 b 642 -110 613 -39 642 -72 b 563 -190 642 -156 607 -190 b 506 -165 540 -190 522 -182 l 421 -247 b 563 -308 458 -286 508 -308 b 760 -110 672 -308 760 -221 b 736 -18 760 -76 751 -46 b 1056 225 872 18 986 106 l 864 336 b 604 188 813 254 729 188 z "},"Ҭ":{"ha":972,"x_min":0,"x_max":0,"o":"m 917 972 l 56 972 l 56 764 l 375 764 l 375 0 l 597 0 l 597 -139 l 764 -139 l 764 56 b 597 225 764 154 693 225 l 597 764 l 917 764 z "},"Ү":{"ha":1111,"x_min":0,"x_max":0,"o":"m 833 972 b 767 829 833 917 807 867 l 556 636 l 344 829 b 278 972 304 867 278 917 l 56 972 b 203 660 56 851 110 736 l 399 481 b 444 444 414 467 429 454 l 444 0 l 667 0 l 667 444 b 713 481 682 456 697 467 l 908 660 b 1056 972 1001 736 1056 851 z "},"Ұ":{"ha":1111,"x_min":0,"x_max":0,"o":"m 908 660 b 1056 972 1001 736 1056 851 l 833 972 b 767 829 833 917 807 867 l 556 636 l 344 829 b 278 972 304 867 278 917 l 56 972 b 203 660 56 851 110 736 l 318 554 l 153 554 l 153 436 l 444 436 l 444 0 l 667 0 l 667 436 l 960 436 l 960 554 l 793 554 z "},"Ҳ":{"ha":1292,"x_min":0,"x_max":0,"o":"m 1043 225 b 964 313 1021 257 994 288 l 775 486 l 964 660 b 1111 972 1057 736 1111 851 l 889 972 b 822 829 889 917 864 865 l 611 636 l 400 829 b 333 972 358 865 333 917 l 111 972 b 258 660 111 851 165 736 l 447 486 l 258 313 b 111 0 165 236 111 121 l 333 0 b 400 143 333 56 358 107 l 611 336 l 822 143 b 889 0 864 107 889 56 l 1042 0 l 1042 -139 l 1208 -139 l 1208 56 b 1043 225 1208 154 1138 225 z "},"Ҵ":{"ha":1479,"x_min":0,"x_max":0,"o":"m 1229 972 l 1007 972 l 1007 222 l 601 222 b 597 226 599 222 597 224 l 597 764 l 917 764 l 917 972 l 56 972 l 56 764 l 375 764 l 375 226 b 601 0 375 90 465 0 l 1229 0 l 1229 -139 l 1396 -139 l 1396 56 b 1229 225 1396 154 1325 225 z "},"Ҷ":{"ha":1158,"x_min":0,"x_max":0,"o":"m 908 972 l 686 972 l 686 588 b 542 526 647 547 596 526 b 333 735 429 526 333 622 l 333 972 l 111 972 l 111 735 b 542 304 111 500 306 304 b 686 329 593 304 642 313 l 686 0 l 908 0 l 908 -139 l 1075 -139 l 1075 56 b 908 225 1075 154 1004 225 z "},"Ҹ":{"ha":1019,"x_min":0,"x_max":0,"o":"m 686 588 b 575 529 656 556 617 536 l 575 764 l 457 764 l 457 546 b 333 735 385 579 333 653 l 333 972 l 111 972 l 111 735 b 457 313 111 529 261 353 l 457 139 l 575 139 l 575 306 b 686 329 614 308 651 317 l 686 0 l 908 0 l 908 972 l 686 972 z "},"Һ":{"ha":1019,"x_min":0,"x_max":0,"o":"m 478 668 b 333 643 426 668 378 660 l 333 972 l 111 972 l 111 0 l 333 0 l 333 385 b 478 446 372 425 424 446 b 686 238 590 446 686 350 l 686 0 l 908 0 l 908 238 b 478 668 908 472 714 668 z "},"Ԧ":{"ha":1158,"x_min":0,"x_max":0,"o":"m 908 238 b 478 668 908 472 714 668 b 333 643 426 668 378 660 l 333 972 l 111 972 l 111 0 l 333 0 l 333 385 b 478 446 372 425 424 446 b 686 238 590 446 686 350 l 686 0 l 908 0 l 908 -139 l 1075 -139 l 1075 56 b 908 225 1075 154 1004 225 z "},"Ҽ":{"ha":1431,"x_min":0,"x_max":0,"o":"m 1347 488 b 826 1008 1347 774 1113 1008 b 313 569 567 1008 351 818 l 222 569 l 222 767 l 56 767 l 56 572 b 222 403 56 474 126 403 l 313 403 b 826 -33 353 156 568 -33 b 1278 226 1019 -33 1189 69 l 1085 336 b 826 189 1032 244 936 189 b 540 403 690 189 576 279 l 1261 403 b 1347 488 1317 403 1347 433 z m 826 786 b 1114 569 963 786 1078 694 l 539 569 b 826 786 574 696 689 786 z "},"Ҿ":{"ha":1421,"x_min":0,"x_max":0,"o":"m 679 1114 b 774 1207 732 1114 774 1156 b 679 1300 774 1258 732 1300 b 586 1207 628 1300 586 1258 b 679 1114 586 1156 628 1114 z m 953 1114 b 1047 1207 1006 1114 1047 1156 b 953 1300 1047 1258 1006 1300 b 860 1207 901 1300 860 1258 b 953 1114 860 1156 901 1114 z m 1338 488 b 817 1008 1336 774 1103 1008 b 303 569 557 1008 342 818 l 222 569 l 222 767 l 56 767 l 56 572 b 222 403 56 474 126 403 l 303 403 b 733 -26 339 182 513 8 l 733 -139 l 900 -139 l 900 -26 b 1268 226 1058 -1 1192 93 l 1075 336 b 817 189 1022 244 926 189 b 531 403 681 189 567 279 l 1251 403 b 1338 488 1307 403 1338 433 z m 817 786 b 1104 569 953 786 1068 694 l 529 569 b 817 786 565 694 679 786 z "},"Ӏ":{"ha":417,"x_min":0,"x_max":0,"o":"m 319 0 l 319 972 l 97 972 l 97 0 z "},"Ӂ":{"ha":1347,"x_min":0,"x_max":0,"o":"m 689 1063 b 890 1264 800 1063 890 1151 l 772 1264 b 689 1181 772 1218 736 1181 b 606 1264 642 1181 606 1217 l 488 1264 b 689 1063 488 1151 576 1063 z m 1089 486 b 1094 510 1089 493 1090 499 l 1264 972 l 1028 974 l 889 596 l 785 596 l 785 972 l 563 972 l 563 596 l 458 596 l 319 972 l 83 972 l 253 510 b 258 486 257 500 258 493 b 253 463 258 479 257 474 l 83 0 l 319 -1 l 457 374 l 563 374 l 563 0 l 785 0 l 785 374 l 890 374 l 1028 0 l 1264 0 l 1094 463 b 1089 486 1090 472 1089 479 z "},"Ӄ":{"ha":1128,"x_min":0,"x_max":0,"o":"m 333 0 l 333 972 l 111 972 l 111 0 z m 683 371 b 603 486 636 389 603 433 b 669 629 603 542 629 592 l 1044 972 l 717 972 l 528 799 b 381 486 439 717 381 607 b 596 167 381 342 471 221 l 719 114 b 794 0 764 94 794 51 b 669 -124 794 -68 739 -124 l 669 -346 b 1017 0 861 -346 1017 -192 b 799 321 1017 146 925 267 z "},"Ӆ":{"ha":1165,"x_min":0,"x_max":0,"o":"m 950 118 l 950 746 b 724 972 950 882 860 972 l 364 972 b 138 746 228 972 138 882 l 138 278 b 82 222 138 247 113 222 l 28 222 l 28 0 l 82 0 b 360 278 263 0 360 97 l 360 746 b 364 750 360 749 361 750 l 724 750 b 728 746 726 750 728 749 l 728 0 l 935 0 l 854 -171 l 983 -171 l 1075 24 b 1082 56 1081 35 1082 44 b 1014 118 1082 90 1054 118 z "},"Ӈ":{"ha":1104,"x_min":0,"x_max":0,"o":"m 771 597 l 333 597 l 333 972 l 111 972 l 111 0 l 333 0 l 333 375 l 771 375 l 771 26 b 646 -97 771 -42 715 -97 l 646 -319 b 993 26 838 -319 993 -165 l 993 972 l 771 972 z "},"Ӊ":{"ha":1213,"x_min":0,"x_max":0,"o":"m 997 118 l 997 972 l 775 972 l 775 597 l 338 597 l 338 972 l 115 972 l 115 0 l 338 0 l 338 375 l 775 375 l 775 0 l 982 0 l 901 -171 l 1031 -171 l 1122 24 b 1129 56 1128 35 1129 44 b 1061 118 1129 90 1101 118 z "},"Ӌ":{"ha":1019,"x_min":0,"x_max":0,"o":"m 686 588 b 542 526 647 547 596 526 b 333 735 429 526 333 622 l 333 972 l 111 972 l 111 735 b 542 304 111 500 306 304 b 686 329 593 304 642 313 l 686 225 b 519 56 590 225 519 154 l 519 -139 l 686 -139 l 686 0 l 908 0 l 908 972 l 686 972 z "},"Ӎ":{"ha":1729,"x_min":0,"x_max":0,"o":"m 1513 118 l 1425 783 b 1171 1007 1406 932 1288 1007 b 915 783 1053 1007 935 932 l 840 218 b 807 186 838 197 822 186 b 772 218 790 186 775 197 l 696 785 b 442 1007 676 932 560 1007 b 186 783 324 1007 206 933 l 83 0 l 308 0 l 407 754 b 442 786 410 776 425 786 b 475 754 457 786 472 776 l 551 188 b 806 -35 571 40 688 -35 b 1061 189 924 -35 1042 39 l 1136 754 b 1171 786 1139 776 1154 786 b 1204 754 1186 786 1201 776 l 1303 0 l 1499 0 l 1418 -171 l 1547 -171 l 1639 24 b 1646 56 1644 35 1646 44 b 1578 118 1646 90 1618 118 z "},"Ӑ":{"ha":1111,"x_min":0,"x_max":0,"o":"m 557 1063 b 758 1264 668 1063 758 1151 l 640 1264 b 557 1181 640 1218 604 1181 b 474 1264 510 1181 474 1217 l 356 1264 b 557 1063 356 1151 444 1063 z m 1075 0 l 807 831 b 557 1007 769 936 669 1007 b 306 831 444 1007 340 938 l 36 0 l 271 0 l 325 167 l 789 167 l 843 0 z m 517 758 b 557 785 522 774 539 785 b 596 758 575 785 590 775 l 717 389 l 397 389 z "},"Ӓ":{"ha":1111,"x_min":0,"x_max":0,"o":"m 419 1114 b 514 1207 472 1114 514 1156 b 419 1300 514 1258 472 1300 b 326 1207 368 1300 326 1258 b 419 1114 326 1156 368 1114 z m 693 1114 b 788 1207 746 1114 788 1156 b 693 1300 788 1258 746 1300 b 600 1207 642 1300 600 1258 b 693 1114 600 1156 642 1114 z m 1075 0 l 807 831 b 557 1007 769 936 669 1007 b 306 831 444 1007 340 938 l 36 0 l 271 0 l 325 167 l 789 167 l 843 0 z m 517 758 b 557 785 522 774 539 785 b 596 758 575 785 590 775 l 717 389 l 397 389 z "},"Ӕ":{"ha":1497,"x_min":0,"x_max":0,"o":"m 1397 972 l 546 972 b 294 796 433 972 329 904 l 36 0 l 271 0 l 325 167 l 626 167 l 626 83 b 710 0 626 29 656 0 l 1397 0 l 1397 222 l 847 222 l 847 375 l 1172 375 l 1172 597 l 849 597 l 849 750 l 1397 750 z m 397 389 l 506 724 b 546 750 511 739 528 750 l 626 750 l 626 389 z "},"Ӗ":{"ha":1056,"x_min":0,"x_max":0,"o":"m 543 1063 b 744 1264 654 1063 744 1151 l 626 1264 b 543 1181 626 1218 590 1181 b 460 1264 496 1181 460 1217 l 342 1264 b 543 1063 342 1151 431 1063 z m 956 972 l 324 972 b 101 750 179 972 101 894 l 101 222 b 324 0 101 78 179 0 l 956 0 l 956 222 l 324 222 l 324 375 l 758 375 l 758 597 l 324 597 l 324 750 l 956 750 z "},"Ә":{"ha":1236,"x_min":0,"x_max":0,"o":"m 604 1007 b 153 747 411 1007 242 904 l 346 638 b 604 785 399 729 494 785 b 890 571 740 785 854 694 l 169 571 b 83 486 114 571 83 540 b 604 -35 83 200 318 -35 b 1125 486 892 -35 1125 199 b 604 1007 1125 774 892 1007 z m 604 188 b 317 404 468 188 353 279 l 892 404 b 604 188 856 279 742 188 z "},"Ӛ":{"ha":1236,"x_min":0,"x_max":0,"o":"m 467 1114 b 561 1207 519 1114 561 1156 b 467 1300 561 1258 519 1300 b 374 1207 415 1300 374 1258 b 467 1114 374 1156 415 1114 z m 740 1114 b 835 1207 793 1114 835 1156 b 740 1300 835 1258 793 1300 b 647 1207 689 1300 647 1258 b 740 1114 647 1156 689 1114 z m 604 1007 b 153 747 411 1007 242 904 l 346 638 b 604 785 399 729 494 785 b 890 571 740 785 854 694 l 169 571 b 83 486 114 571 83 540 b 604 -35 83 200 318 -35 b 1125 486 892 -35 1125 199 b 604 1007 1125 774 892 1007 z m 604 188 b 317 404 468 188 353 279 l 892 404 b 604 188 856 279 742 188 z "},"Ӝ":{"ha":1347,"x_min":0,"x_max":0,"o":"m 551 1114 b 646 1207 604 1114 646 1156 b 551 1300 646 1258 604 1300 b 458 1207 500 1300 458 1258 b 551 1114 458 1156 500 1114 z m 825 1114 b 919 1207 878 1114 919 1156 b 825 1300 919 1258 878 1300 b 732 1207 774 1300 732 1258 b 825 1114 732 1156 774 1114 z m 1089 486 b 1094 510 1089 493 1090 499 l 1264 972 l 1028 974 l 889 596 l 785 596 l 785 972 l 563 972 l 563 596 l 458 596 l 319 972 l 83 972 l 253 510 b 258 486 257 500 258 493 b 253 463 258 479 257 474 l 83 0 l 319 -1 l 457 374 l 563 374 l 563 0 l 785 0 l 785 374 l 890 374 l 1028 0 l 1264 0 l 1094 463 b 1089 486 1090 472 1089 479 z "},"Ӟ":{"ha":1075,"x_min":0,"x_max":0,"o":"m 394 1114 b 489 1207 447 1114 489 1156 b 394 1300 489 1258 447 1300 b 301 1207 343 1300 301 1258 b 394 1114 301 1156 343 1114 z m 668 1114 b 763 1207 721 1114 763 1156 b 668 1300 763 1258 721 1300 b 575 1207 617 1300 575 1258 b 668 1114 575 1156 617 1114 z m 918 494 b 978 674 957 546 978 608 b 679 972 978 838 843 972 l 360 972 b 111 839 257 972 165 919 l 296 717 b 360 750 310 738 333 750 l 679 750 b 756 674 722 750 756 717 b 679 597 756 631 722 597 l 360 597 l 360 375 l 693 375 b 769 299 736 375 769 342 b 693 222 769 256 736 222 l 360 222 b 296 256 333 222 310 235 l 111 133 b 360 0 165 53 257 0 l 693 0 b 992 299 857 0 992 135 b 918 494 992 374 964 443 z "},"Ӡ":{"ha":1047,"x_min":0,"x_max":0,"o":"m 600 528 l 850 740 b 896 838 882 767 896 803 b 763 972 896 906 843 972 l 160 972 l 160 750 l 518 750 l 268 538 b 222 440 236 511 222 475 b 356 306 222 372 275 306 l 638 306 b 714 229 681 306 714 272 b 638 153 714 186 681 153 l 360 153 b 296 186 333 153 310 165 l 111 64 b 360 -69 165 -17 257 -69 l 638 -69 b 936 229 801 -69 936 65 b 638 528 936 393 803 528 z "},"Ӣ":{"ha":1238,"x_min":0,"x_max":0,"o":"m 379 1239 l 379 1121 l 851 1121 l 851 1239 z m 932 1000 b 628 797 796 1000 681 925 l 397 238 b 333 190 385 208 361 190 l 333 972 l 111 972 l 111 151 b 304 -32 111 42 189 -32 b 608 171 442 -32 556 43 l 839 731 b 904 778 851 760 876 778 l 904 0 l 1125 0 l 1125 817 b 932 1000 1125 926 1050 1000 z "},"Ӥ":{"ha":1238,"x_min":0,"x_max":0,"o":"m 478 1114 b 572 1207 531 1114 572 1156 b 478 1300 572 1258 531 1300 b 385 1207 426 1300 385 1258 b 478 1114 385 1156 426 1114 z m 751 1114 b 846 1207 804 1114 846 1156 b 751 1300 846 1258 804 1300 b 658 1207 700 1300 658 1258 b 751 1114 658 1156 700 1114 z m 932 1000 b 628 797 796 1000 681 925 l 397 238 b 333 190 385 208 361 190 l 333 972 l 111 972 l 111 151 b 304 -32 111 42 189 -32 b 608 171 442 -32 556 43 l 839 731 b 904 778 851 760 876 778 l 904 0 l 1125 0 l 1125 817 b 932 1000 1125 926 1050 1000 z "},"Ӧ":{"ha":1250,"x_min":0,"x_max":0,"o":"m 461 1114 b 556 1207 514 1114 556 1156 b 461 1300 556 1258 514 1300 b 368 1207 410 1300 368 1258 b 461 1114 368 1156 410 1114 z m 735 1114 b 829 1207 788 1114 829 1156 b 735 1300 829 1258 788 1300 b 642 1207 683 1300 642 1258 b 735 1114 642 1156 683 1114 z m 625 -35 b 1142 486 911 -35 1142 199 b 625 1007 1142 774 911 1007 b 110 486 340 1007 110 774 b 625 -35 110 199 340 -35 z m 625 188 b 329 486 463 188 329 321 b 625 785 329 651 463 785 b 922 486 789 785 922 651 b 625 188 922 321 789 188 z "},"Ө":{"ha":1199,"x_min":0,"x_max":0,"o":"m 625 1007 b 110 486 340 1007 110 774 b 625 -35 110 199 340 -35 b 1142 486 911 -35 1142 199 b 625 1007 1142 774 911 1007 z m 625 785 b 911 569 760 785 875 694 l 340 569 b 625 785 376 694 490 785 z m 625 188 b 340 403 490 188 376 278 l 911 403 b 625 188 875 278 760 188 z "},"Ӫ":{"ha":1199,"x_min":0,"x_max":0,"o":"m 461 1114 b 556 1207 514 1114 556 1156 b 461 1300 556 1258 514 1300 b 368 1207 410 1300 368 1258 b 461 1114 368 1156 410 1114 z m 735 1114 b 829 1207 788 1114 829 1156 b 735 1300 829 1258 788 1300 b 642 1207 683 1300 642 1258 b 735 1114 642 1156 683 1114 z m 625 1007 b 110 486 340 1007 110 774 b 625 -35 110 199 340 -35 b 1142 486 911 -35 1142 199 b 625 1007 1142 774 911 1007 z m 625 785 b 911 569 760 785 875 694 l 340 569 b 625 785 376 694 490 785 z m 625 188 b 340 403 490 188 376 278 l 911 403 b 625 188 875 278 760 188 z "},"Ӭ":{"ha":1167,"x_min":0,"x_max":0,"o":"m 425 1114 b 519 1207 478 1114 519 1156 b 425 1300 519 1258 478 1300 b 332 1207 374 1300 332 1258 b 425 1114 332 1156 374 1114 z m 699 1114 b 793 1207 751 1114 793 1156 b 699 1300 793 1258 751 1300 b 606 1207 647 1300 606 1258 b 699 1114 606 1156 647 1114 z m 563 1007 b 111 747 369 1007 201 903 l 303 636 b 563 785 354 718 438 785 b 850 571 700 785 814 696 l 563 569 l 563 403 l 850 404 b 563 188 815 278 700 188 b 303 336 438 188 354 254 l 111 225 b 563 -35 201 69 369 -35 b 1083 486 850 -35 1083 199 b 563 1007 1083 774 850 1007 z "},"Ӯ":{"ha":1061,"x_min":0,"x_max":0,"o":"m 296 1239 l 296 1121 l 768 1121 l 768 1239 z m 728 544 l 485 624 b 333 833 378 658 333 719 l 333 972 l 111 972 l 111 833 b 415 413 111 622 217 476 l 706 318 b 544 222 675 261 614 222 l 114 222 l 114 0 l 544 0 b 950 406 768 0 950 182 l 950 972 l 728 972 z "},"Ӱ":{"ha":1061,"x_min":0,"x_max":0,"o":"m 394 1114 b 489 1207 447 1114 489 1156 b 394 1300 489 1258 447 1300 b 301 1207 343 1300 301 1258 b 394 1114 301 1156 343 1114 z m 668 1114 b 763 1207 721 1114 763 1156 b 668 1300 763 1258 721 1300 b 575 1207 617 1300 575 1258 b 668 1114 575 1156 617 1114 z m 728 544 l 485 624 b 333 833 378 658 333 719 l 333 972 l 111 972 l 111 833 b 415 413 111 622 217 476 l 706 318 b 544 222 675 261 614 222 l 114 222 l 114 0 l 544 0 b 950 406 768 0 950 182 l 950 972 l 728 972 z "},"Ӳ":{"ha":1061,"x_min":0,"x_max":0,"o":"m 415 1296 l 326 1096 l 471 1096 l 560 1296 z m 663 1296 l 574 1096 l 721 1094 l 810 1294 z m 728 544 l 485 624 b 333 833 378 658 333 719 l 333 972 l 111 972 l 111 833 b 415 413 111 622 217 476 l 706 318 b 544 222 675 261 614 222 l 114 222 l 114 0 l 544 0 b 950 406 768 0 950 182 l 950 972 l 728 972 z "},"Ӵ":{"ha":1019,"x_min":0,"x_max":0,"o":"m 378 1114 b 472 1207 431 1114 472 1156 b 378 1300 472 1258 431 1300 b 285 1207 326 1300 285 1258 b 378 1114 285 1156 326 1114 z m 651 1114 b 746 1207 704 1114 746 1156 b 651 1300 746 1258 704 1300 b 558 1207 600 1300 558 1258 b 651 1114 558 1156 600 1114 z m 686 588 b 542 526 647 547 596 526 b 333 735 429 526 333 622 l 333 972 l 111 972 l 111 735 b 542 304 111 500 306 304 b 686 329 593 304 642 313 l 686 0 l 908 0 l 908 972 l 686 972 z "},"Ӷ":{"ha":963,"x_min":0,"x_max":0,"o":"m 907 750 l 907 972 l 338 972 b 111 746 201 972 111 882 l 111 0 l 333 0 l 333 -139 l 500 -139 l 500 56 b 333 225 500 154 429 225 l 333 746 b 338 750 333 749 335 750 z "},"Ӹ":{"ha":1331,"x_min":0,"x_max":0,"o":"m 526 1114 b 621 1207 579 1114 621 1156 b 526 1300 621 1258 579 1300 b 433 1207 475 1300 433 1258 b 526 1114 433 1156 475 1114 z m 800 1300 b 707 1207 749 1300 707 1258 b 800 1114 707 1156 749 1114 b 894 1207 853 1114 894 1156 b 800 1300 894 1258 853 1300 z m 333 708 l 333 972 l 111 972 l 111 222 b 333 0 111 78 189 0 l 503 0 b 858 354 699 0 858 158 b 504 708 858 550 700 708 z m 997 0 l 1219 0 l 1219 972 l 997 972 z m 333 222 l 333 486 l 503 486 b 635 354 575 486 635 426 b 503 222 635 282 575 222 z "},"Ӽ":{"ha":1222,"x_min":0,"x_max":0,"o":"m 775 486 l 964 660 b 1111 972 1053 740 1111 851 l 889 972 b 822 829 889 922 863 865 l 611 636 l 400 829 b 333 972 360 867 333 924 l 111 972 b 258 660 111 867 169 742 l 449 486 l 258 313 b 111 0 169 231 111 121 l 333 0 b 400 143 333 49 360 107 l 611 336 l 794 169 b 861 26 835 132 861 82 b 736 -97 861 -42 806 -97 l 736 -319 b 1083 26 928 -319 1083 -165 b 936 339 1083 142 1021 263 z "},"Ԑ":{"ha":1075,"x_min":0,"x_max":0,"o":"m 382 222 b 306 299 339 222 306 256 b 382 375 306 342 339 375 l 715 375 l 715 597 l 396 597 b 319 674 353 597 319 631 b 396 750 319 717 353 750 l 715 750 b 779 717 742 750 765 738 l 964 839 b 715 972 910 919 818 972 l 396 972 b 97 674 232 972 97 838 b 157 494 97 608 118 546 b 83 299 111 443 83 374 b 382 0 83 135 218 0 l 715 0 b 964 133 818 0 910 53 l 779 256 b 715 222 765 235 742 222 z "},"Ԓ":{"ha":1061,"x_min":0,"x_max":0,"o":"m 364 972 b 138 746 228 972 138 882 l 138 278 b 82 222 138 247 113 222 l 28 222 l 28 0 l 82 0 b 360 278 263 0 360 97 l 360 746 b 364 750 360 749 361 750 l 724 750 b 728 746 726 750 728 749 l 728 26 b 603 -97 728 -42 672 -97 l 603 -319 b 950 26 794 -319 950 -165 l 950 746 b 724 972 950 882 860 972 z "},"Ԝ":{"ha":1474,"x_min":0,"x_max":0,"o":"m 1140 332 b 994 186 1140 251 1075 186 b 849 332 914 186 849 251 l 849 972 l 626 972 l 626 332 b 479 186 626 251 560 186 b 333 332 399 186 333 251 l 333 972 l 111 972 l 111 332 b 479 -36 111 129 278 -36 b 738 69 579 -36 671 4 b 994 -36 804 4 894 -36 b 1363 332 1197 -36 1363 129 l 1363 972 l 1140 972 z "},"а":{"ha":972,"x_min":0,"x_max":0,"o":"m 206 833 l 206 611 l 614 611 b 656 569 638 611 656 593 l 656 528 l 358 528 b 94 264 211 528 94 410 b 358 0 94 118 213 0 l 685 0 b 878 193 792 0 878 86 l 878 569 b 614 833 878 715 760 833 z m 358 222 b 308 272 329 222 308 244 b 358 324 308 301 329 324 l 656 324 l 656 226 b 651 222 656 224 654 222 z "},"б":{"ha":989,"x_min":0,"x_max":0,"o":"m 497 806 b 333 771 439 806 383 793 l 333 847 b 375 889 333 871 351 889 l 728 889 l 728 1111 l 375 1111 b 111 847 229 1111 111 993 l 111 313 b 133 208 111 274 114 244 b 497 -14 201 76 339 -14 b 906 396 722 -14 906 169 b 497 806 906 622 722 806 z m 497 208 b 338 297 429 208 371 244 b 333 314 335 303 333 308 l 333 488 b 497 583 365 546 426 583 b 683 396 600 583 683 500 b 497 208 683 293 600 208 z "},"в":{"ha":1024,"x_min":0,"x_max":0,"o":"m 913 569 b 649 833 913 715 794 833 l 225 833 b 111 719 160 833 111 785 l 111 114 b 225 0 111 49 160 0 l 649 0 b 913 264 794 0 913 118 b 864 417 913 321 894 374 b 913 569 894 460 913 513 z m 333 528 l 333 611 l 649 611 b 690 569 672 611 690 593 b 649 528 690 546 672 528 z m 333 222 l 333 306 l 649 306 b 690 264 672 306 690 288 b 649 222 690 240 672 222 z "},"г":{"ha":865,"x_min":0,"x_max":0,"o":"m 338 833 b 111 607 201 833 111 743 l 111 0 l 333 0 l 333 607 b 338 611 333 610 335 611 l 754 611 l 754 833 z "},"ѓ":{"ha":865,"x_min":0,"x_max":0,"o":"m 593 1157 l 449 1157 l 360 957 l 504 957 z m 338 833 b 111 607 201 833 111 743 l 111 0 l 333 0 l 333 607 b 338 611 333 610 335 611 l 754 611 l 754 833 z "},"ґ":{"ha":851,"x_min":0,"x_max":0,"o":"m 601 833 l 338 833 b 111 607 201 833 111 743 l 111 0 l 333 0 l 333 607 b 338 611 333 610 335 611 l 601 611 b 768 781 697 611 768 682 l 768 975 l 601 975 z "},"д":{"ha":1253,"x_min":0,"x_max":0,"o":"m 1003 607 b 776 833 1003 743 913 833 l 486 833 b 260 607 350 833 260 744 l 260 485 b 124 157 260 343 224 257 b 83 56 97 133 83 99 l 83 -142 l 250 -142 l 250 0 l 1003 0 l 1003 -139 l 1169 -139 l 1169 56 b 1003 225 1169 154 1099 225 z m 435 222 b 482 485 467 300 482 386 l 482 607 b 486 611 482 610 483 611 l 776 611 b 781 607 779 611 781 610 l 781 222 z "},"е":{"ha":1026,"x_min":0,"x_max":0,"o":"m 943 417 b 514 847 943 654 751 847 b 83 418 276 847 83 656 b 514 -12 83 181 276 -12 b 888 204 668 -12 808 71 l 667 263 b 511 200 626 225 568 200 b 321 322 431 200 357 253 l 846 319 b 943 417 900 319 943 363 z m 514 635 b 718 486 606 635 688 571 l 308 489 b 514 635 340 571 424 635 z "},"ё":{"ha":1026,"x_min":0,"x_max":0,"o":"m 376 961 b 471 1054 429 961 471 1003 b 376 1147 471 1106 429 1147 b 283 1054 325 1147 283 1106 b 376 961 283 1003 325 961 z m 650 961 b 744 1054 703 961 744 1003 b 650 1147 744 1106 703 1147 b 557 1054 599 1147 557 1106 b 650 961 557 1003 599 961 z m 943 417 b 514 847 943 654 751 847 b 83 418 276 847 83 656 b 514 -12 83 181 276 -12 b 888 204 668 -12 808 71 l 667 263 b 511 200 626 225 568 200 b 321 322 431 200 357 253 l 846 319 b 943 417 900 319 943 363 z m 514 635 b 718 486 606 635 688 571 l 308 489 b 514 635 340 571 424 635 z "},"ж":{"ha":1383,"x_min":0,"x_max":0,"o":"m 1072 417 b 1081 447 1072 428 1075 438 l 1328 833 l 1064 833 l 893 567 b 872 528 885 554 879 542 l 803 528 l 803 833 l 581 833 l 581 528 l 511 528 b 490 567 506 542 499 554 l 319 833 l 56 833 l 303 447 b 311 417 308 438 311 428 b 303 386 311 406 308 396 l 56 0 l 319 0 l 490 267 b 511 306 499 279 506 292 l 581 306 l 581 0 l 803 0 l 803 306 l 872 306 b 893 267 878 292 885 279 l 1064 0 l 1328 0 l 1081 386 b 1072 417 1075 396 1072 406 z "},"з":{"ha":965,"x_min":0,"x_max":0,"o":"m 854 569 b 590 833 854 715 736 833 l 111 833 l 111 611 l 590 611 b 632 569 614 611 632 593 b 590 528 632 546 614 528 l 111 528 l 111 306 l 590 306 b 632 264 614 306 632 288 b 590 222 632 240 614 222 l 111 222 l 111 0 l 590 0 b 854 264 736 0 854 118 b 806 417 854 321 836 374 b 854 569 836 460 854 513 z "},"и":{"ha":1024,"x_min":0,"x_max":0,"o":"m 308 -17 b 482 93 371 -17 440 6 l 683 522 b 688 526 685 525 686 526 b 690 521 689 526 690 525 l 690 0 l 913 0 l 913 656 b 715 850 913 776 814 850 b 542 740 653 850 585 831 l 340 311 b 336 307 339 308 338 307 b 333 313 335 307 333 308 l 333 833 l 111 833 l 111 178 b 308 -17 111 57 210 -17 z "},"й":{"ha":1024,"x_min":0,"x_max":0,"o":"m 513 910 b 714 1111 624 910 714 999 l 596 1111 b 513 1028 596 1065 560 1028 b 429 1111 465 1028 429 1064 l 311 1111 b 513 910 311 999 400 910 z m 308 -17 b 482 93 371 -17 440 6 l 683 522 b 688 526 685 525 686 526 b 690 521 689 526 690 525 l 690 0 l 913 0 l 913 656 b 715 850 913 776 814 850 b 542 740 653 850 585 831 l 340 311 b 336 307 339 308 338 307 b 333 313 335 307 333 308 l 333 833 l 111 833 l 111 178 b 308 -17 111 57 210 -17 z "},"к":{"ha":1079,"x_min":0,"x_max":0,"o":"m 333 0 l 333 833 l 111 833 l 111 0 z m 967 0 l 625 367 b 604 415 611 382 604 399 b 626 467 604 432 611 450 l 968 833 l 665 833 l 464 617 b 381 414 408 557 381 486 b 461 217 381 344 408 274 l 664 0 z "},"ќ":{"ha":1079,"x_min":0,"x_max":0,"o":"m 501 1157 l 413 957 l 557 957 l 646 1157 z m 333 0 l 333 833 l 111 833 l 111 0 z m 967 0 l 625 367 b 604 415 611 382 604 399 b 626 467 604 432 611 450 l 968 833 l 665 833 l 464 617 b 381 414 408 557 381 486 b 461 217 381 344 408 274 l 664 0 z "},"л":{"ha":992,"x_min":0,"x_max":0,"o":"m 364 833 b 138 607 228 833 138 743 l 138 278 b 82 222 138 247 113 222 l 28 222 l 28 0 l 82 0 b 360 278 263 0 360 97 l 360 607 b 364 611 360 610 361 611 l 654 611 b 658 607 657 611 658 610 l 658 0 l 881 0 l 881 607 b 654 833 881 743 790 833 z "},"м":{"ha":1250,"x_min":0,"x_max":0,"o":"m 839 847 b 625 767 757 847 682 817 b 411 847 568 817 493 847 b 86 522 232 847 86 701 l 86 0 l 308 0 l 308 522 b 411 625 308 579 354 625 b 514 522 468 625 514 579 l 514 0 l 736 0 l 736 522 b 839 625 736 579 782 625 b 942 522 896 625 942 579 l 942 0 l 1164 0 l 1164 522 b 839 847 1164 701 1018 847 z "},"н":{"ha":1021,"x_min":0,"x_max":0,"o":"m 688 528 l 333 528 l 333 833 l 111 833 l 111 0 l 333 0 l 333 306 l 688 306 l 688 0 l 910 0 l 910 833 l 688 833 z "},"о":{"ha":1029,"x_min":0,"x_max":0,"o":"m 514 -12 b 946 418 753 -12 946 181 b 514 849 946 656 751 849 b 83 418 276 849 83 656 b 514 -12 83 181 276 -12 z m 514 210 b 306 418 399 210 306 303 b 514 626 306 533 399 626 b 724 418 629 626 724 532 b 514 210 724 303 629 210 z "},"п":{"ha":1042,"x_min":0,"x_max":0,"o":"m 338 833 b 111 607 201 833 111 743 l 111 0 l 333 0 l 333 607 b 338 611 333 610 335 611 l 704 611 b 708 607 707 611 708 610 l 708 0 l 931 0 l 931 607 b 704 833 931 743 840 833 z "},"р":{"ha":992,"x_min":0,"x_max":0,"o":"m 478 846 b 147 690 346 846 228 783 b 111 578 118 657 111 622 l 111 -278 l 333 -278 l 333 10 b 478 -15 378 -7 426 -15 b 908 415 714 -15 908 181 b 478 846 908 650 714 846 z m 478 207 b 333 268 424 207 372 228 l 333 560 b 342 574 333 563 335 567 b 478 624 368 600 419 624 b 686 415 590 624 686 528 b 478 207 686 303 590 207 z "},"с":{"ha":997,"x_min":0,"x_max":0,"o":"m 514 -12 b 886 201 672 -12 808 67 l 718 296 b 519 186 678 229 603 186 b 290 422 392 186 290 294 b 519 650 290 549 392 650 b 724 535 603 650 678 608 l 886 633 b 514 847 813 763 672 847 b 83 418 276 847 83 656 b 514 -12 83 181 276 -12 z "},"т":{"ha":972,"x_min":0,"x_max":0,"o":"m 111 833 l 111 625 l 375 625 l 375 0 l 597 0 l 597 625 l 861 625 l 861 833 z "},"у":{"ha":972,"x_min":0,"x_max":0,"o":"m 663 274 b 528 225 622 243 574 225 b 310 443 415 225 310 331 l 310 833 l 88 833 l 88 443 b 518 13 88 208 282 13 b 663 38 569 13 618 22 l 663 17 b 549 -97 663 -49 614 -97 l 213 -97 l 213 -319 l 549 -319 b 885 17 736 -319 885 -171 l 885 833 l 663 833 z "},"ў":{"ha":972,"x_min":0,"x_max":0,"o":"m 490 910 b 692 1111 601 910 692 999 l 574 1111 b 490 1028 574 1065 538 1028 b 407 1111 443 1028 407 1064 l 289 1111 b 490 910 289 999 378 910 z m 663 274 b 528 225 622 243 574 225 b 310 443 415 225 310 331 l 310 833 l 88 833 l 88 443 b 518 13 88 208 282 13 b 663 38 569 13 618 22 l 663 17 b 549 -97 663 -49 614 -97 l 213 -97 l 213 -319 l 549 -319 b 885 17 736 -319 885 -171 l 885 833 l 663 833 z "},"ф":{"ha":1101,"x_min":0,"x_max":0,"o":"m 663 694 l 663 833 l 440 833 l 440 694 l 363 694 b 83 417 208 694 83 571 b 363 139 83 263 208 139 l 440 139 l 440 0 l 663 0 l 663 139 l 739 139 b 1018 417 893 139 1018 263 b 739 694 1018 571 893 694 z m 363 361 b 306 417 331 361 306 385 b 363 472 306 449 331 472 l 440 472 l 440 361 z m 663 361 l 663 472 l 739 472 b 796 417 771 472 796 449 b 739 361 796 385 771 361 z "},"х":{"ha":972,"x_min":0,"x_max":0,"o":"m 647 417 l 757 521 b 904 833 844 604 904 713 l 682 833 b 615 693 682 778 656 732 l 486 571 l 357 693 b 290 833 317 732 290 778 l 68 833 b 215 521 68 713 128 604 l 325 417 l 215 313 b 68 0 128 229 68 121 l 290 0 b 357 140 290 56 317 101 l 486 263 l 615 140 b 682 0 656 101 682 56 l 904 0 b 757 313 904 121 844 229 z "},"ч":{"ha":972,"x_min":0,"x_max":0,"o":"m 639 486 l 467 486 b 335 618 394 486 335 547 l 335 833 l 111 833 l 111 618 b 465 264 111 422 269 264 l 639 264 l 639 0 l 861 0 l 861 833 l 639 833 z "},"ц":{"ha":1181,"x_min":0,"x_max":0,"o":"m 931 833 l 708 833 l 708 222 l 338 222 b 333 226 335 222 333 224 l 333 833 l 111 833 l 111 226 b 338 0 111 90 201 0 l 931 0 l 931 -142 l 1097 -142 l 1097 53 b 931 222 1097 151 1026 222 z "},"ш":{"ha":1153,"x_min":0,"x_max":0,"o":"m 819 226 b 815 222 819 224 818 222 l 688 222 l 688 833 l 465 833 l 465 222 l 338 222 b 333 226 335 222 333 224 l 333 833 l 111 833 l 111 226 b 338 0 111 90 201 0 l 815 0 b 1042 226 951 0 1042 90 l 1042 833 l 819 833 z "},"щ":{"ha":1290,"x_min":0,"x_max":0,"o":"m 1040 833 l 818 833 l 818 222 l 688 222 l 688 833 l 465 833 l 465 222 l 338 222 b 333 226 335 222 333 224 l 333 833 l 111 833 l 111 226 b 338 0 111 90 201 0 l 1040 0 l 1040 -149 l 1207 -149 l 1207 46 b 1040 215 1207 144 1136 215 z "},"џ":{"ha":1033,"x_min":0,"x_max":0,"o":"m 700 226 b 696 222 700 224 699 222 l 338 222 b 333 226 335 222 333 224 l 333 833 l 111 833 l 111 226 b 338 0 111 90 201 0 l 433 0 l 433 -139 l 600 -139 l 600 0 l 696 0 b 922 226 832 0 922 90 l 922 833 l 700 833 z "},"ь":{"ha":986,"x_min":0,"x_max":0,"o":"m 333 585 l 333 833 l 111 833 l 111 222 b 333 0 111 78 189 0 l 608 0 b 903 293 771 0 903 131 b 610 585 903 454 772 585 z m 333 222 l 333 363 l 610 363 b 681 293 650 363 681 332 b 608 222 681 254 649 232 z "},"ъ":{"ha":1028,"x_min":0,"x_max":0,"o":"m 472 585 l 472 607 b 246 833 472 743 382 833 l 28 833 l 28 611 l 250 611 l 250 222 b 472 0 250 78 328 0 l 650 0 b 944 293 813 0 944 131 b 651 585 944 454 814 585 z m 472 222 l 472 363 l 651 363 b 722 293 692 363 722 332 b 650 222 722 254 690 232 z "},"ы":{"ha":1194,"x_min":0,"x_max":0,"o":"m 333 585 l 333 833 l 111 833 l 111 222 b 333 0 111 78 189 0 l 511 0 b 806 293 674 0 806 131 b 513 585 806 454 675 585 z m 861 0 l 1083 0 l 1083 833 l 861 833 z m 333 222 l 333 363 l 513 363 b 583 293 553 363 583 332 b 511 222 583 254 551 232 z "},"љ":{"ha":1283,"x_min":0,"x_max":0,"o":"m 825 585 l 825 607 b 599 833 825 743 735 833 l 392 833 b 165 607 256 833 165 743 l 165 278 b 110 222 165 247 140 222 l 56 222 l 56 0 l 110 0 b 388 278 290 0 388 97 l 388 607 b 392 611 388 610 389 611 l 599 611 b 603 607 601 611 603 610 l 603 222 b 825 0 603 78 681 0 l 906 0 b 1200 293 1068 0 1200 131 b 907 585 1200 454 1069 585 z m 825 222 l 825 363 l 907 363 b 978 293 947 363 978 332 b 906 222 978 254 946 232 z "},"њ":{"ha":1243,"x_min":0,"x_max":0,"o":"m 785 585 l 785 833 l 563 833 l 563 528 l 333 528 l 333 833 l 111 833 l 111 0 l 333 0 l 333 306 l 563 306 l 563 222 b 785 0 563 78 640 0 l 865 0 b 1160 293 1028 0 1160 131 b 867 585 1160 454 1029 585 z m 785 222 l 785 363 l 867 363 b 938 293 907 363 938 332 b 865 222 938 254 906 232 z "},"ѕ":{"ha":903,"x_min":0,"x_max":0,"o":"m 556 0 b 819 264 701 0 819 118 b 556 528 819 410 703 528 l 375 528 b 333 569 351 528 333 546 b 375 611 333 593 351 611 l 743 611 l 743 833 l 375 833 b 111 569 229 833 111 715 b 375 306 111 424 228 306 l 556 306 b 597 264 579 306 597 288 b 556 222 597 240 579 222 l 132 222 l 132 0 z "},"є":{"ha":997,"x_min":0,"x_max":0,"o":"m 514 210 b 324 333 429 210 356 261 l 567 333 l 567 500 l 322 500 b 514 625 354 574 428 625 b 693 524 589 625 657 586 l 886 633 b 514 847 813 763 672 847 b 83 418 276 847 83 656 b 514 -12 83 181 276 -12 b 886 201 672 -12 813 74 l 693 313 b 514 210 657 249 589 210 z "},"э":{"ha":997,"x_min":0,"x_max":0,"o":"m 483 847 b 111 633 325 847 185 763 l 304 524 b 483 625 340 586 408 625 b 675 500 569 625 643 574 l 431 500 l 431 333 l 674 333 b 483 210 642 261 568 210 b 304 313 408 210 340 249 l 111 201 b 483 -12 185 74 325 -12 b 914 418 721 -12 914 181 b 483 847 914 656 721 847 z "},"і":{"ha":500,"x_min":0,"x_max":0,"o":"m 250 935 b 369 1054 317 935 369 988 b 250 1174 369 1121 317 1174 b 131 1054 183 1174 131 1121 b 250 935 131 988 183 935 z m 139 0 l 361 0 l 361 833 l 139 833 z "},"ї":{"ha":500,"x_min":0,"x_max":0,"o":"m 113 961 b 207 1054 165 961 207 1003 b 113 1147 207 1106 165 1147 b 19 1054 61 1147 19 1106 b 113 961 19 1003 61 961 z m 386 961 b 481 1054 439 961 481 1003 b 386 1147 481 1106 439 1147 b 293 1054 335 1147 293 1106 b 386 961 293 1003 335 961 z m 139 0 l 361 0 l 361 833 l 139 833 z "},"ј":{"ha":500,"x_min":0,"x_max":0,"o":"m 251 935 b 371 1054 318 935 371 988 b 251 1174 371 1121 318 1174 b 132 1054 185 1174 132 1121 b 251 935 132 988 185 935 z m 83 -319 b 361 -42 264 -319 361 -222 l 361 833 l 139 833 l 139 -42 b 83 -97 139 -72 114 -97 l -68 -97 l -68 -319 z "},"ћ":{"ha":972,"x_min":0,"x_max":0,"o":"m 454 849 b 310 824 403 849 354 840 l 310 914 l 425 914 l 425 1033 l 310 1033 l 310 1111 l 88 1111 l 88 1033 l -19 1033 l -19 914 l 88 914 l 88 0 l 310 0 l 310 565 b 454 626 349 606 400 626 b 663 418 567 626 663 531 l 663 0 l 885 0 l 885 418 b 454 849 885 653 690 849 z "},"ю":{"ha":1368,"x_min":0,"x_max":0,"o":"m 853 849 b 436 529 654 849 486 713 l 353 529 l 353 833 l 131 833 l 131 0 l 353 0 l 353 307 l 436 307 b 853 -12 486 124 654 -12 b 1285 418 1092 -12 1285 181 b 853 849 1285 656 1090 849 z m 853 210 b 644 418 738 210 644 303 b 853 626 644 533 738 626 b 1063 418 968 626 1063 532 b 853 210 1063 303 968 210 z "},"я":{"ha":1024,"x_min":0,"x_max":0,"o":"m 415 833 b 121 540 253 833 121 703 b 329 261 121 408 208 297 l 111 0 l 403 0 l 589 221 b 631 328 618 256 631 293 b 472 471 631 404 569 471 l 414 471 b 343 540 374 471 343 501 b 415 611 343 579 375 611 l 690 611 l 690 0 l 913 0 l 913 611 b 690 833 913 756 835 833 z "},"ђ":{"ha":1019,"x_min":0,"x_max":0,"o":"m 478 849 b 333 824 426 849 378 840 l 333 1111 l 111 1111 l 111 0 l 333 0 l 333 565 b 478 626 372 606 424 626 b 686 418 590 626 686 531 l 686 26 b 561 -97 686 -42 631 -97 l 561 -319 b 908 26 753 -319 908 -165 l 908 418 b 478 849 908 653 714 849 z "},"ѣ":{"ha":999,"x_min":0,"x_max":0,"o":"m 390 708 l 390 853 l 500 853 l 500 972 l 390 972 l 390 1111 l 168 1111 l 168 972 l 56 972 l 56 853 l 168 853 l 168 222 b 390 0 168 78 246 0 l 560 0 b 915 354 756 0 915 158 b 561 708 915 550 757 708 z m 390 222 l 390 486 l 560 486 b 692 354 632 486 692 426 b 560 222 692 282 632 222 z "},"ѳ":{"ha":1029,"x_min":0,"x_max":0,"o":"m 514 849 b 83 418 276 849 83 656 b 514 -12 83 181 276 -12 b 946 418 753 -12 946 181 b 514 849 946 656 751 849 z m 514 626 b 711 489 604 626 682 569 b 643 450 690 457 671 450 b 532 474 619 450 589 456 b 381 503 482 489 429 503 b 319 493 358 503 339 500 b 514 626 350 571 425 626 z m 514 210 b 318 347 424 210 347 267 b 388 386 340 379 358 386 b 499 363 411 386 442 381 b 649 333 549 347 601 333 b 710 343 671 333 690 336 b 514 210 679 265 603 210 z "},"ѵ":{"ha":1000,"x_min":0,"x_max":0,"o":"m 482 -14 b 678 125 571 -14 650 40 l 814 542 b 913 611 828 585 867 611 l 944 611 l 944 833 l 913 833 b 603 611 769 833 646 744 l 485 250 b 481 247 483 247 482 247 b 476 250 479 247 478 247 l 285 833 l 56 833 l 285 125 b 482 -14 311 42 394 -14 z "},"ғ":{"ha":949,"x_min":0,"x_max":0,"o":"m 838 611 l 838 833 l 421 833 b 194 607 285 833 194 743 l 194 458 l 83 458 l 83 340 l 194 340 l 194 0 l 417 0 l 417 340 l 838 340 l 838 458 l 417 458 l 417 607 b 421 611 417 610 418 611 z "},"ҕ":{"ha":886,"x_min":0,"x_max":0,"o":"m 457 469 b 333 447 414 469 372 461 l 333 607 b 338 611 333 610 335 611 l 754 611 l 754 833 l 338 833 b 111 607 201 833 111 743 l 111 0 l 333 0 l 333 124 b 457 247 333 193 388 247 b 581 124 526 247 581 193 b 456 0 581 56 525 0 l 456 -222 b 803 124 647 -222 803 -68 b 457 469 803 315 649 469 z "},"җ":{"ha":1447,"x_min":0,"x_max":0,"o":"m 1211 225 l 1108 386 b 1100 417 1103 396 1100 406 b 1108 447 1100 428 1103 438 l 1356 833 l 1092 833 l 921 567 b 900 528 913 554 907 542 l 831 528 l 831 833 l 608 833 l 608 528 l 539 528 b 518 567 533 542 526 554 l 347 833 l 83 833 l 331 447 b 339 417 336 438 339 428 b 331 386 339 406 336 396 l 83 0 l 347 0 l 518 267 b 539 306 526 279 533 292 l 608 306 l 608 0 l 831 0 l 831 306 l 900 306 b 921 267 906 292 913 279 l 1092 0 l 1225 0 l 1225 -139 l 1392 -139 l 1392 56 b 1225 225 1392 154 1321 225 z "},"ҙ":{"ha":965,"x_min":0,"x_max":0,"o":"m 854 569 b 590 833 854 715 736 833 l 111 833 l 111 611 l 590 611 b 632 569 614 611 632 593 b 590 528 632 546 614 528 l 111 528 l 111 306 l 590 306 b 632 264 614 306 632 288 b 590 222 632 240 614 222 l 111 222 l 111 0 l 404 0 b 476 -76 444 -3 476 -37 b 397 -157 476 -122 442 -157 b 340 -132 375 -157 357 -149 l 256 -214 b 397 -275 293 -253 343 -275 b 594 -76 507 -275 594 -187 b 579 0 594 -50 589 -24 l 590 0 b 854 264 736 0 854 118 b 806 417 854 321 836 374 b 854 569 836 460 854 513 z "},"қ":{"ha":1050,"x_min":0,"x_max":0,"o":"m 333 0 l 333 833 l 111 833 l 111 0 z m 757 225 l 625 367 b 604 415 611 382 604 399 b 626 467 604 432 611 450 l 968 833 l 665 833 l 464 617 b 381 414 408 557 381 486 b 461 217 381 344 408 274 l 664 0 l 828 0 l 828 -139 l 994 -139 l 994 56 b 828 225 994 154 924 225 z "},"ҝ":{"ha":1279,"x_min":0,"x_max":0,"o":"m 860 413 b 882 464 860 429 867 447 l 1224 831 l 921 831 l 719 614 b 660 522 693 586 672 554 l 582 522 l 582 688 l 415 688 l 415 522 l 333 522 l 333 833 l 111 833 l 111 0 l 333 0 l 333 300 l 415 300 l 415 132 l 582 132 l 582 300 l 660 300 b 717 214 674 269 692 240 l 919 -3 l 1222 -3 l 881 364 b 860 413 867 379 860 396 z "},"ҟ":{"ha":1107,"x_min":0,"x_max":0,"o":"m 500 1008 l 389 1008 l 389 1113 l 167 1113 l 167 1008 l 56 1008 l 56 889 l 167 889 l 167 0 l 389 0 l 389 889 l 500 889 z m 660 415 b 682 467 660 432 667 450 l 1024 833 l 721 833 l 519 617 b 436 414 464 557 436 486 b 517 217 436 344 464 274 l 719 0 l 1022 0 l 681 367 b 660 415 667 382 660 399 z "},"ҡ":{"ha":1300,"x_min":0,"x_max":0,"o":"m 560 0 l 560 607 b 333 833 560 743 469 833 l 56 833 l 56 611 l 333 611 b 338 607 336 611 338 610 l 338 0 z m 1215 0 l 874 367 b 853 415 860 382 853 399 b 875 467 853 432 860 450 l 1217 833 l 914 833 l 713 617 b 629 414 657 557 629 486 b 710 217 629 344 657 274 l 913 0 z "},"ң":{"ha":1160,"x_min":0,"x_max":0,"o":"m 910 833 l 688 833 l 688 528 l 333 528 l 333 833 l 111 833 l 111 0 l 333 0 l 333 306 l 688 306 l 688 0 l 910 0 l 910 -139 l 1076 -139 l 1076 56 b 910 225 1076 154 1006 225 z "},"ҥ":{"ha":1178,"x_min":0,"x_max":0,"o":"m 817 833 b 590 607 681 833 590 743 l 590 528 l 333 528 l 333 833 l 111 833 l 111 0 l 333 0 l 333 306 l 590 306 l 590 0 l 813 0 l 813 607 b 817 611 813 610 814 611 l 1122 611 l 1122 833 z "},"ԥ":{"ha":1181,"x_min":0,"x_max":0,"o":"m 931 607 b 704 833 931 743 840 833 l 338 833 b 111 607 201 833 111 743 l 111 0 l 333 0 l 333 607 b 338 611 333 610 335 611 l 704 611 b 708 607 707 611 708 610 l 708 0 l 931 0 l 931 -139 l 1097 -139 l 1097 56 b 931 225 1097 154 1026 225 z "},"ҧ":{"ha":1331,"x_min":0,"x_max":0,"o":"m 901 469 b 778 447 858 469 817 461 l 778 607 b 551 833 778 743 688 833 l 338 833 b 111 607 201 833 111 743 l 111 0 l 333 0 l 333 607 b 338 611 333 610 335 611 l 551 611 b 556 607 554 611 556 610 l 556 0 l 778 0 l 778 124 b 901 247 778 193 832 247 b 1025 124 971 247 1025 193 b 900 0 1025 56 969 0 l 900 -222 b 1247 124 1092 -222 1247 -68 b 901 469 1247 315 1093 469 z "},"ҩ":{"ha":1257,"x_min":0,"x_max":0,"o":"m 1146 551 b 856 844 1146 713 1056 844 b 565 550 656 844 565 711 b 674 232 565 446 603 331 b 542 210 633 218 589 210 b 306 418 399 210 306 303 b 514 625 306 532 399 625 l 514 847 b 83 418 276 847 83 656 b 542 -12 83 181 276 -12 b 850 67 661 -12 765 18 b 1142 -12 932 18 1031 -12 l 1142 210 b 1032 228 1104 210 1067 217 b 1146 551 1107 329 1146 446 z m 856 628 b 924 551 890 628 924 603 b 854 358 924 482 899 415 b 788 550 813 414 788 481 b 856 628 788 603 822 628 z "},"ҫ":{"ha":997,"x_min":0,"x_max":0,"o":"m 519 186 b 290 422 392 186 290 294 b 519 650 290 549 392 650 b 724 535 603 650 678 608 l 886 633 b 514 847 813 763 672 847 b 83 418 276 847 83 656 b 481 -11 83 192 258 6 b 551 -87 521 -15 551 -49 b 472 -168 551 -133 517 -168 b 415 -143 450 -168 432 -160 l 331 -225 b 472 -286 368 -264 418 -286 b 669 -87 582 -286 669 -199 b 644 7 669 -54 661 -21 b 886 201 746 38 831 106 l 718 296 b 519 186 678 229 603 186 z "},"ҭ":{"ha":972,"x_min":0,"x_max":0,"o":"m 861 833 l 111 833 l 111 625 l 375 625 l 375 0 l 597 0 l 597 -139 l 764 -139 l 764 56 b 597 225 764 154 693 225 l 597 625 l 861 625 z "},"ү":{"ha":979,"x_min":0,"x_max":0,"o":"m 496 318 b 489 311 494 314 492 311 b 482 318 486 311 483 314 l 292 833 l 56 833 l 321 114 b 378 29 335 78 354 50 l 378 -250 l 600 -250 l 600 29 b 657 114 624 50 643 78 l 924 833 l 686 833 z "},"ұ":{"ha":979,"x_min":0,"x_max":0,"o":"m 924 833 l 686 833 l 496 318 b 489 311 494 314 492 311 b 482 318 486 311 483 314 l 292 833 l 56 833 l 321 114 l 338 78 l 221 78 l 221 -40 l 378 -40 l 378 -250 l 600 -250 l 600 -40 l 758 -40 l 758 78 l 640 78 l 657 114 z "},"ҳ":{"ha":1056,"x_min":0,"x_max":0,"o":"m 831 225 b 756 313 808 257 783 286 l 646 417 l 756 521 b 903 833 843 604 903 713 l 681 833 b 614 693 681 778 654 732 l 485 571 l 356 693 b 289 833 315 732 289 778 l 67 833 b 214 521 67 713 126 604 l 324 417 l 214 313 b 67 0 126 229 67 121 l 289 0 b 356 140 289 56 315 101 l 485 263 l 614 140 b 681 0 654 101 681 56 l 822 0 l 822 -139 l 989 -139 l 989 56 b 831 225 989 151 922 221 z "},"ҵ":{"ha":1388,"x_min":0,"x_max":0,"o":"m 1138 833 l 915 833 l 915 222 l 544 222 b 540 226 542 222 540 224 l 540 625 l 806 625 l 806 833 l 56 833 l 56 625 l 318 625 l 318 226 b 544 0 318 90 408 0 l 1138 0 l 1138 -142 l 1304 -142 l 1304 53 b 1138 222 1304 151 1233 222 z "},"ҷ":{"ha":1111,"x_min":0,"x_max":0,"o":"m 861 833 l 639 833 l 639 486 l 467 486 b 335 618 394 486 335 547 l 335 833 l 111 833 l 111 618 b 465 264 111 422 269 264 l 639 264 l 639 0 l 861 0 l 861 -139 l 1028 -139 l 1028 56 b 861 225 1028 154 957 225 z "},"ҹ":{"ha":972,"x_min":0,"x_max":0,"o":"m 639 486 l 547 486 l 547 736 l 429 736 l 429 492 b 335 618 375 508 335 560 l 335 833 l 111 833 l 111 618 b 429 265 111 435 250 283 l 429 111 l 547 111 l 547 264 l 639 264 l 639 0 l 861 0 l 861 833 l 639 833 z "},"һ":{"ha":972,"x_min":0,"x_max":0,"o":"m 454 849 b 310 824 403 849 354 840 l 310 1111 l 88 1111 l 88 0 l 310 0 l 310 565 b 454 626 349 606 400 626 b 663 418 567 626 663 531 l 663 0 l 885 0 l 885 418 b 454 849 885 653 690 849 z "},"ԧ":{"ha":1158,"x_min":0,"x_max":0,"o":"m 454 849 b 310 824 403 849 354 840 l 310 1111 l 88 1111 l 88 0 l 310 0 l 310 565 b 454 626 349 606 400 626 b 663 418 567 626 663 531 l 663 0 l 885 0 l 885 418 b 454 849 885 653 690 849 z m 908 -139 l 1075 -139 l 1075 56 b 908 225 1075 154 1004 225 z "},"ҽ":{"ha":1249,"x_min":0,"x_max":0,"o":"m 1165 417 b 736 847 1165 654 974 847 b 311 488 522 847 344 692 l 222 488 l 222 685 l 56 685 l 56 490 b 222 321 56 392 126 321 l 317 321 b 736 -12 361 131 532 -12 b 1110 204 890 -12 1031 71 l 889 263 b 733 200 849 225 790 200 b 543 321 653 200 581 251 l 1068 321 b 1165 417 1122 321 1165 363 z m 736 635 b 940 488 826 635 910 571 l 531 488 b 736 635 561 571 644 635 z "},"ҿ":{"ha":1249,"x_min":0,"x_max":0,"o":"m 599 961 b 693 1054 651 961 693 1003 b 599 1147 693 1106 651 1147 b 506 1054 547 1147 506 1106 b 599 961 506 1003 547 961 z m 872 961 b 967 1054 925 961 967 1003 b 872 1147 967 1106 925 1147 b 779 1054 821 1147 779 1106 b 872 961 779 1003 821 961 z m 1165 417 b 736 847 1165 654 974 847 b 311 488 522 847 344 692 l 222 488 l 222 685 l 56 685 l 56 490 b 222 321 56 392 126 321 l 317 321 b 653 -4 354 157 486 28 l 653 -139 l 819 -139 l 819 -4 b 1110 204 940 19 1044 96 l 889 263 b 733 200 849 225 790 200 b 543 321 653 200 581 251 l 1068 321 b 1165 417 1122 321 1165 363 z m 736 635 b 940 488 826 635 910 571 l 531 488 b 736 635 561 571 644 635 z "},"ӏ":{"ha":444,"x_min":0,"x_max":0,"o":"m 111 1111 l 111 0 l 333 0 l 333 1111 z "},"ӂ":{"ha":1383,"x_min":0,"x_max":0,"o":"m 693 910 b 894 1111 804 910 894 999 l 776 1111 b 693 1028 776 1065 740 1028 b 610 1111 646 1028 610 1064 l 492 1111 b 693 910 492 999 581 910 z m 1072 417 b 1081 447 1072 428 1075 438 l 1328 833 l 1064 833 l 893 567 b 872 528 885 554 879 542 l 803 528 l 803 833 l 581 833 l 581 528 l 511 528 b 490 567 506 542 499 554 l 319 833 l 56 833 l 303 447 b 311 417 308 438 311 428 b 303 386 311 406 308 396 l 56 0 l 319 0 l 490 267 b 511 306 499 279 506 292 l 581 306 l 581 0 l 803 0 l 803 306 l 872 306 b 893 267 878 292 885 279 l 1064 0 l 1328 0 l 1081 386 b 1072 417 1075 396 1072 406 z "},"ӄ":{"ha":1051,"x_min":0,"x_max":0,"o":"m 333 0 l 333 833 l 111 833 l 111 0 z m 597 -346 b 944 0 789 -346 944 -192 b 765 275 944 124 871 226 l 671 318 b 604 415 633 335 604 369 b 626 467 604 432 611 450 l 968 833 l 665 833 l 464 617 b 381 414 408 557 381 486 b 532 139 381 285 447 179 l 665 75 b 721 -15 690 63 721 38 b 597 -124 721 -69 665 -124 z "},"ӆ":{"ha":1074,"x_min":0,"x_max":0,"o":"m 881 118 l 881 607 b 654 833 881 743 790 833 l 364 833 b 138 607 228 833 138 743 l 138 278 b 82 222 138 247 113 222 l 28 222 l 28 0 l 82 0 b 360 278 263 0 360 97 l 360 607 b 364 611 360 610 361 611 l 654 611 b 658 607 657 611 658 610 l 658 0 l 843 0 l 763 -171 l 892 -171 l 983 24 b 990 56 989 35 990 44 b 922 118 990 90 963 118 z "},"ӈ":{"ha":1021,"x_min":0,"x_max":0,"o":"m 688 528 l 333 528 l 333 833 l 111 833 l 111 0 l 333 0 l 333 306 l 688 306 l 688 26 b 563 -97 688 -42 632 -97 l 563 -319 b 910 26 754 -319 910 -165 l 910 833 l 688 833 z "},"ӊ":{"ha":1103,"x_min":0,"x_max":0,"o":"m 910 118 l 910 833 l 688 833 l 688 528 l 333 528 l 333 833 l 111 833 l 111 0 l 333 0 l 333 306 l 688 306 l 688 0 l 872 0 l 792 -171 l 921 -171 l 1013 24 b 1019 56 1018 35 1019 44 b 951 118 1019 90 992 118 z "},"ӌ":{"ha":972,"x_min":0,"x_max":0,"o":"m 639 486 l 467 486 b 335 618 394 486 335 547 l 335 833 l 111 833 l 111 618 b 465 264 111 422 269 264 l 639 264 l 639 225 b 472 56 543 225 472 154 l 472 -139 l 639 -139 l 639 0 l 861 0 l 861 833 l 639 833 z "},"ӎ":{"ha":1329,"x_min":0,"x_max":0,"o":"m 1164 118 l 1164 522 b 839 847 1164 701 1018 847 b 625 767 757 847 682 817 b 411 847 568 817 493 847 b 86 522 232 847 86 701 l 86 0 l 308 0 l 308 522 b 411 625 308 579 354 625 b 514 522 468 625 514 579 l 514 0 l 736 0 l 736 522 b 839 625 736 579 782 625 b 942 522 896 625 942 579 l 942 0 l 1126 0 l 1046 -171 l 1175 -171 l 1267 24 b 1274 56 1272 35 1274 44 b 1206 118 1274 90 1246 118 z "},"ӑ":{"ha":972,"x_min":0,"x_max":0,"o":"m 506 910 b 707 1111 617 910 707 999 l 589 1111 b 506 1028 589 1065 553 1028 b 422 1111 458 1028 422 1064 l 304 1111 b 506 910 304 999 393 910 z m 206 833 l 206 611 l 614 611 b 656 569 638 611 656 593 l 656 528 l 358 528 b 94 264 211 528 94 410 b 358 0 94 118 213 0 l 685 0 b 878 193 792 0 878 86 l 878 569 b 614 833 878 715 760 833 z m 358 222 b 308 272 329 222 308 244 b 358 324 308 301 329 324 l 656 324 l 656 226 b 651 222 656 224 654 222 z "},"ӓ":{"ha":972,"x_min":0,"x_max":0,"o":"m 368 961 b 463 1054 421 961 463 1003 b 368 1147 463 1106 421 1147 b 275 1054 317 1147 275 1106 b 368 961 275 1003 317 961 z m 642 961 b 736 1054 694 961 736 1003 b 642 1147 736 1106 694 1147 b 549 1054 590 1147 549 1106 b 642 961 549 1003 590 961 z m 206 833 l 206 611 l 614 611 b 656 569 638 611 656 593 l 656 528 l 358 528 b 94 264 211 528 94 410 b 358 0 94 118 213 0 l 685 0 b 878 193 792 0 878 86 l 878 569 b 614 833 878 715 760 833 z m 358 222 b 308 272 329 222 308 244 b 358 324 308 301 329 324 l 656 324 l 656 226 b 651 222 656 224 654 222 z "},"ӕ":{"ha":1681,"x_min":0,"x_max":0,"o":"m 1597 417 b 1168 847 1597 654 1406 846 b 843 700 1039 849 922 790 b 614 833 797 779 713 833 l 206 833 l 206 611 l 614 611 b 656 569 638 611 656 593 l 656 528 l 358 528 b 94 264 211 528 94 410 b 358 0 94 118 213 0 l 685 0 b 861 115 764 0 832 47 b 1168 -12 940 36 1049 -12 b 1542 204 1322 -12 1463 71 l 1314 269 b 1165 210 1274 232 1222 210 b 985 321 1086 210 1018 256 l 1500 319 b 1597 417 1554 319 1597 363 z m 1168 625 b 1364 486 1258 625 1335 567 l 972 488 b 1168 625 1000 568 1078 625 z m 317 264 b 358 306 317 288 335 306 l 656 306 l 656 222 l 358 222 b 317 264 335 222 317 240 z "},"ӗ":{"ha":1026,"x_min":0,"x_max":0,"o":"m 514 910 b 715 1111 625 910 715 999 l 597 1111 b 514 1028 597 1065 561 1028 b 431 1111 467 1028 431 1064 l 313 1111 b 514 910 313 999 401 910 z m 943 417 b 514 847 943 654 751 847 b 83 418 276 847 83 656 b 514 -12 83 181 276 -12 b 888 204 668 -12 808 71 l 667 263 b 511 200 626 225 568 200 b 321 322 431 200 357 253 l 846 319 b 943 417 900 319 943 363 z m 514 635 b 718 486 606 635 688 571 l 308 489 b 514 635 340 571 424 635 z "},"ә":{"ha":1026,"x_min":0,"x_max":0,"o":"m 513 846 b 139 629 358 846 218 763 l 360 571 b 515 633 400 608 458 633 b 706 513 596 633 668 582 l 181 515 b 83 417 126 515 83 471 b 513 -14 83 179 275 -14 b 943 415 750 -14 943 178 b 513 846 943 653 750 846 z m 513 199 b 308 349 421 200 338 264 l 718 346 b 513 199 688 263 604 199 z "},"ӛ":{"ha":1026,"x_min":0,"x_max":0,"o":"m 376 961 b 471 1054 429 961 471 1003 b 376 1147 471 1106 429 1147 b 283 1054 325 1147 283 1106 b 376 961 283 1003 325 961 z m 650 961 b 744 1054 703 961 744 1003 b 650 1147 744 1106 703 1147 b 557 1054 599 1147 557 1106 b 650 961 557 1003 599 961 z m 513 846 b 139 629 358 846 218 763 l 360 571 b 515 633 400 608 458 633 b 706 513 596 633 668 582 l 181 515 b 83 417 126 515 83 471 b 513 -14 83 179 275 -14 b 943 415 750 -14 943 178 b 513 846 943 653 750 846 z m 513 199 b 308 349 421 200 338 264 l 718 346 b 513 199 688 263 604 199 z "},"ӝ":{"ha":1383,"x_min":0,"x_max":0,"o":"m 556 961 b 650 1054 608 961 650 1003 b 556 1147 650 1106 608 1147 b 463 1054 504 1147 463 1106 b 556 961 463 1003 504 961 z m 829 961 b 924 1054 882 961 924 1003 b 829 1147 924 1106 882 1147 b 736 1054 778 1147 736 1106 b 829 961 736 1003 778 961 z m 1072 417 b 1081 447 1072 428 1075 438 l 1328 833 l 1064 833 l 893 567 b 872 528 885 554 879 542 l 803 528 l 803 833 l 581 833 l 581 528 l 511 528 b 490 567 506 542 499 554 l 319 833 l 56 833 l 303 447 b 311 417 308 438 311 428 b 303 386 311 406 308 396 l 56 0 l 319 0 l 490 267 b 511 306 499 279 506 292 l 581 306 l 581 0 l 803 0 l 803 306 l 872 306 b 893 267 878 292 885 279 l 1064 0 l 1328 0 l 1081 386 b 1072 417 1075 396 1072 406 z "},"ӟ":{"ha":965,"x_min":0,"x_max":0,"o":"m 301 961 b 396 1054 354 961 396 1003 b 301 1147 396 1106 354 1147 b 208 1054 250 1147 208 1106 b 301 961 208 1003 250 961 z m 575 961 b 669 1054 628 961 669 1003 b 575 1147 669 1106 628 1147 b 482 1054 524 1147 482 1106 b 575 961 482 1003 524 961 z m 854 569 b 590 833 854 715 736 833 l 111 833 l 111 611 l 590 611 b 632 569 614 611 632 593 b 590 528 632 546 614 528 l 111 528 l 111 306 l 590 306 b 632 264 614 306 632 288 b 590 222 632 240 614 222 l 111 222 l 111 0 l 590 0 b 854 264 736 0 854 118 b 806 417 854 321 836 374 b 854 569 836 460 854 513 z "},"ӡ":{"ha":1047,"x_min":0,"x_max":0,"o":"m 600 389 l 850 601 b 896 699 882 628 896 664 b 763 833 896 767 843 833 l 160 833 l 160 611 l 518 611 l 268 399 b 222 301 236 372 222 336 b 356 167 222 233 275 167 l 638 167 b 714 90 681 167 714 133 b 638 14 714 47 681 14 l 360 14 b 296 47 333 14 310 26 l 111 -75 b 360 -208 165 -156 257 -208 l 638 -208 b 936 90 801 -208 936 -74 b 638 389 936 254 803 389 z "},"ӣ":{"ha":1024,"x_min":0,"x_max":0,"o":"m 276 968 l 749 968 l 749 1086 l 276 1086 z m 308 -17 b 482 93 371 -17 440 6 l 683 522 b 688 526 685 525 686 526 b 690 521 689 526 690 525 l 690 0 l 913 0 l 913 656 b 715 850 913 776 814 850 b 542 740 653 850 585 831 l 340 311 b 336 307 339 308 338 307 b 333 313 335 307 333 308 l 333 833 l 111 833 l 111 178 b 308 -17 111 57 210 -17 z "},"ӥ":{"ha":1024,"x_min":0,"x_max":0,"o":"m 375 961 b 469 1054 428 961 469 1003 b 375 1147 469 1106 428 1147 b 282 1054 324 1147 282 1106 b 375 961 282 1003 324 961 z m 649 961 b 743 1054 701 961 743 1003 b 649 1147 743 1106 701 1147 b 556 1054 597 1147 556 1106 b 649 961 556 1003 597 961 z m 308 -17 b 482 93 371 -17 440 6 l 683 522 b 688 526 685 525 686 526 b 690 521 689 526 690 525 l 690 0 l 913 0 l 913 656 b 715 850 913 776 814 850 b 542 740 653 850 585 831 l 340 311 b 336 307 339 308 338 307 b 333 313 335 307 333 308 l 333 833 l 111 833 l 111 178 b 308 -17 111 57 210 -17 z "},"ӧ":{"ha":1029,"x_min":0,"x_max":0,"o":"m 378 961 b 472 1054 431 961 472 1003 b 378 1147 472 1106 431 1147 b 285 1054 326 1147 285 1106 b 378 961 285 1003 326 961 z m 651 961 b 746 1054 704 961 746 1003 b 651 1147 746 1106 704 1147 b 558 1054 600 1147 558 1106 b 651 961 558 1003 600 961 z m 514 -12 b 946 418 753 -12 946 181 b 514 849 946 656 751 849 b 83 418 276 849 83 656 b 514 -12 83 181 276 -12 z m 514 210 b 306 418 399 210 306 303 b 514 626 306 533 399 626 b 724 418 629 626 724 532 b 514 210 724 303 629 210 z "},"ө":{"ha":1029,"x_min":0,"x_max":0,"o":"m 514 849 b 83 418 276 849 83 656 b 514 -12 83 181 276 -12 b 946 418 753 -12 946 181 b 514 849 946 656 751 849 z m 514 626 b 707 500 600 626 674 574 l 322 500 b 514 626 354 575 428 626 z m 514 210 b 324 333 429 210 356 261 l 706 333 b 514 210 672 261 599 210 z "},"ӫ":{"ha":1029,"x_min":0,"x_max":0,"o":"m 378 961 b 472 1054 431 961 472 1003 b 378 1147 472 1106 431 1147 b 285 1054 326 1147 285 1106 b 378 961 285 1003 326 961 z m 651 961 b 746 1054 704 961 746 1003 b 651 1147 746 1106 704 1147 b 558 1054 600 1147 558 1106 b 651 961 558 1003 600 961 z m 514 849 b 83 418 276 849 83 656 b 514 -12 83 181 276 -12 b 946 418 753 -12 946 181 b 514 849 946 656 751 849 z m 514 626 b 707 500 600 626 674 574 l 322 500 b 514 626 354 575 428 626 z m 514 210 b 324 333 429 210 356 261 l 706 333 b 514 210 672 261 599 210 z "},"ӭ":{"ha":997,"x_min":0,"x_max":0,"o":"m 347 961 b 442 1054 400 961 442 1003 b 347 1147 442 1106 400 1147 b 254 1054 296 1147 254 1106 b 347 961 254 1003 296 961 z m 621 961 b 715 1054 674 961 715 1003 b 621 1147 715 1106 674 1147 b 528 1054 569 1147 528 1106 b 621 961 528 1003 569 961 z m 483 847 b 111 633 325 847 185 763 l 304 524 b 483 625 340 586 408 625 b 675 500 569 625 643 574 l 431 500 l 431 333 l 674 333 b 483 210 642 261 568 210 b 304 313 408 210 340 249 l 111 201 b 483 -12 185 74 325 -12 b 914 418 721 -12 914 181 b 483 847 914 656 721 847 z "},"ӯ":{"ha":972,"x_min":0,"x_max":0,"o":"m 254 1086 l 254 968 l 726 968 l 726 1086 z m 663 274 b 528 225 622 243 574 225 b 310 443 415 225 310 331 l 310 833 l 88 833 l 88 443 b 518 13 88 208 282 13 b 663 38 569 13 618 22 l 663 17 b 549 -97 663 -49 614 -97 l 213 -97 l 213 -319 l 549 -319 b 885 17 736 -319 885 -171 l 885 833 l 663 833 z "},"ӱ":{"ha":972,"x_min":0,"x_max":0,"o":"m 353 961 b 447 1054 406 961 447 1003 b 353 1147 447 1106 406 1147 b 260 1054 301 1147 260 1106 b 353 961 260 1003 301 961 z m 626 961 b 721 1054 679 961 721 1003 b 626 1147 721 1106 679 1147 b 533 1054 575 1147 533 1106 b 626 961 533 1003 575 961 z m 663 274 b 528 225 622 243 574 225 b 310 443 415 225 310 331 l 310 833 l 88 833 l 88 443 b 518 13 88 208 282 13 b 663 38 569 13 618 22 l 663 17 b 549 -97 663 -49 614 -97 l 213 -97 l 213 -319 l 549 -319 b 885 17 736 -319 885 -171 l 885 833 l 663 833 z "},"ӳ":{"ha":972,"x_min":0,"x_max":0,"o":"m 374 1143 l 285 943 l 429 943 l 518 1143 z m 621 1143 l 532 943 l 679 942 l 768 1142 z m 663 274 b 528 225 622 243 574 225 b 310 443 415 225 310 331 l 310 833 l 88 833 l 88 443 b 518 13 88 208 282 13 b 663 38 569 13 618 22 l 663 17 b 549 -97 663 -49 614 -97 l 213 -97 l 213 -319 l 549 -319 b 885 17 736 -319 885 -171 l 885 833 l 663 833 z "},"ӵ":{"ha":972,"x_min":0,"x_max":0,"o":"m 340 961 b 435 1054 393 961 435 1003 b 340 1147 435 1106 393 1147 b 247 1054 289 1147 247 1106 b 340 961 247 1003 289 961 z m 614 961 b 708 1054 667 961 708 1003 b 614 1147 708 1106 667 1147 b 521 1054 563 1147 521 1106 b 614 961 521 1003 563 961 z m 639 486 l 467 486 b 335 618 394 486 335 547 l 335 833 l 111 833 l 111 618 b 465 264 111 422 269 264 l 639 264 l 639 0 l 861 0 l 861 833 l 639 833 z "},"ӷ":{"ha":810,"x_min":0,"x_max":0,"o":"m 754 611 l 754 833 l 338 833 b 111 607 201 833 111 743 l 111 0 l 333 0 l 333 -139 l 500 -139 l 500 56 b 333 225 500 154 429 225 l 333 607 b 338 611 333 610 335 611 z "},"ӹ":{"ha":1194,"x_min":0,"x_max":0,"o":"m 454 961 b 549 1054 507 961 549 1003 b 454 1147 549 1106 507 1147 b 361 1054 403 1147 361 1106 b 454 961 361 1003 403 961 z m 728 1147 b 635 1054 676 1147 635 1106 b 728 961 635 1003 676 961 b 822 1054 781 961 822 1003 b 728 1147 822 1106 781 1147 z m 333 585 l 333 833 l 111 833 l 111 222 b 333 0 111 78 189 0 l 511 0 b 806 293 674 0 806 131 b 513 585 806 454 675 585 z m 861 0 l 1083 0 l 1083 833 l 861 833 z m 333 222 l 333 363 l 513 363 b 583 293 553 363 583 332 b 511 222 583 254 551 232 z "},"ӽ":{"ha":1115,"x_min":0,"x_max":0,"o":"m 732 417 l 857 519 b 1004 832 950 596 1004 711 l 782 832 b 715 689 782 776 758 724 l 558 560 l 400 690 b 333 833 357 725 333 778 l 111 833 b 258 521 111 713 165 597 l 385 417 l 258 313 b 111 0 165 236 111 121 l 333 0 b 400 143 333 56 357 108 l 558 274 l 683 169 b 750 26 726 133 750 82 b 625 -97 750 -42 694 -97 l 625 -319 b 972 26 817 -319 972 -165 b 825 339 972 147 918 263 z "},"ԑ":{"ha":965,"x_min":0,"x_max":0,"o":"m 854 611 l 854 833 l 375 833 b 111 569 229 833 111 715 b 160 417 111 513 129 460 b 111 264 129 374 111 321 b 375 0 111 118 229 0 l 854 0 l 854 222 l 375 222 b 333 264 351 222 333 240 b 375 306 333 288 351 306 l 854 306 l 854 528 l 375 528 b 333 569 351 528 333 546 b 375 611 333 593 351 611 z "},"ԓ":{"ha":992,"x_min":0,"x_max":0,"o":"m 364 833 b 138 607 228 833 138 743 l 138 278 b 82 222 138 247 113 222 l 28 222 l 28 0 l 82 0 b 360 278 263 0 360 97 l 360 607 b 364 611 360 610 361 611 l 654 611 b 658 607 657 611 658 610 l 658 26 b 533 -97 658 -42 603 -97 l 533 -319 b 881 26 725 -319 881 -165 l 881 607 b 654 833 881 743 790 833 z "},"ԝ":{"ha":1250,"x_min":0,"x_max":0,"o":"m 942 311 b 839 208 942 254 896 208 b 736 311 782 208 736 254 l 736 833 l 514 833 l 514 311 b 411 208 514 254 468 208 b 308 311 354 208 308 254 l 308 833 l 86 833 l 86 311 b 411 -14 86 132 232 -14 b 625 67 493 -14 568 17 b 839 -14 682 17 757 -14 b 1164 311 1018 -14 1164 132 l 1164 833 l 942 833 z "},"μ":{"ha":1111,"x_min":0,"x_max":0,"o":"m 833 286 l 833 833 l 667 833 l 667 331 b 490 154 667 232 589 154 b 314 331 393 154 314 233 l 314 833 l 147 833 l 147 -167 l 314 -167 l 314 36 b 490 -12 365 6 426 -12 b 738 92 588 -12 675 28 b 964 -12 792 28 874 -12 l 964 154 b 833 286 892 154 833 214 z "},"π":{"ha":1069,"x_min":0,"x_max":0,"o":"m 986 833 l 83 833 l 83 667 l 250 667 l 250 0 l 417 0 l 417 667 l 653 667 l 653 286 b 950 -12 653 121 786 -12 l 950 154 b 819 286 878 154 819 214 l 819 667 l 986 667 z "},"⁄":{"ha":1346,"x_min":0,"x_max":0,"o":"m 83 -247 l 1346 1014 l 1264 1097 l 0 -164 z "},"*":{"ha":685,"x_min":0,"x_max":0,"o":"m 504 993 l 378 901 l 331 1049 l 218 1013 l 267 865 l 111 865 l 111 747 l 267 747 l 218 600 l 331 564 l 378 711 l 504 619 l 574 715 l 449 807 l 574 897 z "},"\\":{"ha":724,"x_min":0,"x_max":0,"o":"m 640 -87 l 299 1190 l 139 1147 l 481 -131 z "},"·":{"ha":556,"x_min":0,"x_max":0,"o":"m 278 347 b 417 486 356 347 417 410 b 278 625 417 563 356 625 b 139 486 201 625 139 563 b 278 347 139 410 201 347 z "},"•":{"ha":556,"x_min":0,"x_max":0,"o":"m 278 278 b 417 417 356 278 417 340 b 278 556 417 493 356 556 b 139 417 201 556 139 493 b 278 278 139 340 201 278 z "},":":{"ha":556,"x_min":0,"x_max":0,"o":"m 278 472 b 417 611 356 472 417 535 b 278 750 417 688 354 750 b 139 611 201 750 139 688 b 278 472 139 535 201 472 z m 278 42 b 417 181 356 42 417 104 b 278 319 417 257 356 319 b 139 181 201 319 139 257 b 278 42 139 104 201 42 z "},",":{"ha":556,"x_min":0,"x_max":0,"o":"m 417 111 b 278 250 417 188 356 250 b 139 111 201 250 139 188 b 221 -15 139 54 172 6 l 154 -87 l 219 -150 l 376 13 b 417 111 401 38 417 72 z "},"…":{"ha":1222,"x_min":0,"x_max":0,"o":"m 278 -28 b 417 111 356 -28 417 35 b 278 250 417 188 356 250 b 139 111 201 250 139 188 b 278 -28 139 35 201 -28 z m 611 -28 b 750 111 689 -28 750 35 b 611 250 750 188 689 250 b 472 111 535 250 472 188 b 611 -28 472 35 535 -28 z m 944 -28 b 1083 111 1022 -28 1083 35 b 944 250 1083 188 1022 250 b 806 111 868 250 806 188 b 944 -28 806 35 868 -28 z "},"!":{"ha":417,"x_min":0,"x_max":0,"o":"m 293 386 l 321 1111 l 99 1111 l 126 386 z m 208 253 b 69 114 132 253 69 190 b 208 -25 69 38 132 -25 b 347 114 286 -25 347 38 b 208 253 347 190 286 253 z "},"¡":{"ha":417,"x_min":0,"x_max":0,"o":"m 208 694 b 347 833 286 694 347 757 b 208 972 347 910 286 972 b 69 833 132 972 69 910 b 208 694 69 757 132 694 z m 99 -164 l 321 -164 l 293 561 l 126 561 z "},"#":{"ha":960,"x_min":0,"x_max":0,"o":"m 821 722 l 681 722 l 728 1042 l 586 1042 l 539 722 l 474 722 l 521 1042 l 379 1042 l 332 722 l 206 722 l 186 583 l 311 583 l 279 376 l 158 376 l 139 238 l 258 238 l 213 -69 l 354 -69 l 400 238 l 465 238 l 419 -69 l 561 -69 l 607 238 l 754 238 l 774 376 l 628 376 l 660 583 l 801 583 z m 421 376 l 453 583 l 518 583 l 486 376 z "},".":{"ha":556,"x_min":0,"x_max":0,"o":"m 278 -28 b 417 111 356 -28 417 35 b 278 250 417 188 356 250 b 139 111 201 250 139 188 b 278 -28 139 35 201 -28 z "},"?":{"ha":833,"x_min":0,"x_max":0,"o":"m 500 386 b 635 558 517 422 556 486 b 751 789 704 621 751 714 b 417 1124 751 974 601 1124 b 82 789 232 1124 82 974 l 304 789 b 417 901 304 851 354 901 b 529 789 479 901 529 851 b 428 622 529 729 506 715 b 333 386 372 567 333 476 z m 417 -25 b 556 114 494 -25 556 38 b 417 253 556 190 494 253 b 278 114 340 253 278 190 b 417 -25 278 38 340 -25 z "},"¿":{"ha":694,"x_min":0,"x_max":0,"o":"m 279 974 b 140 835 201 974 140 911 b 279 696 140 758 201 696 b 418 835 356 696 418 758 b 279 974 418 911 356 974 z m 196 563 b 61 390 179 526 140 463 b -56 160 -8 328 -56 235 b 279 -175 -56 -25 94 -175 b 614 160 464 -175 614 -25 l 392 160 b 279 47 392 97 342 47 b 167 160 217 47 167 97 b 268 326 167 219 190 233 b 363 563 324 382 363 472 z "},"\"":{"ha":583,"x_min":0,"x_max":0,"o":"m 214 618 l 250 867 l 250 1033 l 83 1033 l 83 867 l 119 618 z m 464 618 l 500 867 l 500 1033 l 333 1033 l 333 867 l 369 618 z "},"'":{"ha":333,"x_min":0,"x_max":0,"o":"m 214 618 l 250 867 l 250 1033 l 83 1033 l 83 867 l 119 618 z "},";":{"ha":556,"x_min":0,"x_max":0,"o":"m 278 403 b 417 542 356 403 417 465 b 278 681 417 618 354 681 b 139 542 201 681 139 618 b 278 403 139 465 201 403 z m 278 250 b 139 111 201 250 139 188 b 221 -15 139 54 172 6 l 154 -87 l 219 -150 l 376 13 b 417 111 401 38 417 72 b 278 250 417 188 356 250 z "},"/":{"ha":724,"x_min":0,"x_max":0,"o":"m 613 1147 l 453 1190 l 111 -87 l 271 -131 z "},"_":{"ha":1083,"x_min":0,"x_max":0,"o":"m 139 167 l 139 0 l 944 0 l 944 167 z "},"{":{"ha":669,"x_min":0,"x_max":0,"o":"m 456 899 b 531 972 456 940 493 972 l 531 1139 b 247 885 375 1139 247 1026 l 247 668 b 208 600 247 628 226 600 l 139 600 l 139 378 l 208 378 b 247 310 226 378 247 350 l 247 93 b 531 -161 247 -49 375 -161 l 531 6 b 456 79 493 6 456 38 l 456 310 b 371 489 456 382 424 446 b 456 668 424 532 456 596 z "},"}":{"ha":669,"x_min":0,"x_max":0,"o":"m 461 600 b 422 668 443 600 422 628 l 422 885 b 139 1139 422 1026 294 1139 l 139 972 b 214 899 176 972 214 940 l 214 668 b 299 489 214 596 246 532 b 214 310 246 446 214 382 l 214 79 b 139 6 214 38 176 6 l 139 -161 b 422 93 294 -161 422 -49 l 422 310 b 461 378 422 350 443 378 l 531 378 l 531 600 z "},"[":{"ha":667,"x_min":0,"x_max":0,"o":"m 528 47 l 361 47 l 361 936 l 528 936 l 528 1103 l 139 1103 l 139 -119 l 528 -119 z "},"]":{"ha":667,"x_min":0,"x_max":0,"o":"m 528 -119 l 528 1103 l 139 1103 l 139 936 l 306 936 l 306 47 l 139 47 l 139 -119 z "},"(":{"ha":692,"x_min":0,"x_max":0,"o":"m 581 -57 b 361 474 439 86 361 275 b 581 1004 361 674 439 860 l 424 1160 b 139 474 240 976 139 731 b 424 -212 139 218 242 -29 z "},")":{"ha":692,"x_min":0,"x_max":0,"o":"m 268 -212 b 553 474 450 -29 553 218 b 268 1160 553 731 451 976 l 111 1004 b 331 474 253 860 331 674 b 111 -57 331 275 253 86 z "},"—":{"ha":1250,"x_min":0,"x_max":0,"o":"m 139 486 l 139 319 l 1111 319 l 1111 486 z "},"–":{"ha":972,"x_min":0,"x_max":0,"o":"m 139 486 l 139 319 l 833 319 l 833 486 z "},"-":{"ha":750,"x_min":0,"x_max":0,"o":"m 139 486 l 139 319 l 611 319 l 611 486 z "},"«":{"ha":1117,"x_min":0,"x_max":0,"o":"m 615 203 l 329 490 l 614 776 l 497 893 l 174 571 b 139 490 150 547 139 519 b 174 410 139 463 150 433 l 496 86 z m 978 203 l 692 490 l 976 776 l 860 893 l 536 571 b 501 490 513 547 501 519 b 536 410 501 463 513 433 l 858 86 z "},"»":{"ha":1117,"x_min":0,"x_max":0,"o":"m 581 410 b 615 490 604 433 615 463 b 581 571 615 519 604 547 l 257 893 l 140 776 l 425 490 l 139 203 l 258 86 z m 943 410 b 978 490 967 433 978 463 b 943 571 978 519 967 547 l 619 893 l 503 776 l 788 490 l 501 203 l 621 86 z "},"‹":{"ha":754,"x_min":0,"x_max":0,"o":"m 615 203 l 329 490 l 614 776 l 497 893 l 174 571 b 139 490 150 547 139 519 b 174 410 139 463 150 433 l 496 86 z "},"›":{"ha":754,"x_min":0,"x_max":0,"o":"m 581 410 b 615 490 604 433 615 463 b 581 571 615 519 604 547 l 257 893 l 140 776 l 425 490 l 139 203 l 258 86 z "},"„":{"ha":881,"x_min":0,"x_max":0,"o":"m 417 111 b 278 250 417 188 356 250 b 139 111 201 250 139 188 b 221 -15 139 54 172 6 l 154 -87 l 219 -150 l 376 13 b 417 111 401 38 417 72 z m 742 111 b 603 250 742 188 681 250 b 464 111 526 250 464 188 b 546 -15 464 54 497 6 l 479 -87 l 544 -150 l 701 13 b 742 111 726 38 742 72 z "},"“":{"ha":889,"x_min":0,"x_max":0,"o":"m 417 874 b 278 1013 417 950 354 1013 b 139 874 200 1013 139 950 b 179 775 139 835 154 800 l 336 613 l 401 675 l 335 747 b 417 874 383 768 417 817 z m 750 874 b 611 1013 750 950 688 1013 b 472 874 533 1013 472 950 b 513 775 472 835 488 800 l 669 613 l 735 675 l 668 747 b 750 874 717 768 750 817 z "},"”":{"ha":889,"x_min":0,"x_max":0,"o":"m 278 1013 b 139 874 201 1013 139 950 b 221 747 139 817 172 768 l 154 675 l 219 613 l 376 775 b 417 874 401 800 417 835 b 278 1013 417 950 356 1013 z m 750 874 b 611 1013 750 950 689 1013 b 472 874 535 1013 472 950 b 554 747 472 817 506 768 l 488 675 l 553 613 l 710 775 b 750 874 735 800 750 835 z "},"‘":{"ha":556,"x_min":0,"x_max":0,"o":"m 417 874 b 278 1013 417 950 354 1013 b 139 874 200 1013 139 950 b 179 775 139 835 154 800 l 336 613 l 401 675 l 335 747 b 417 874 383 768 417 817 z "},"’":{"ha":556,"x_min":0,"x_max":0,"o":"m 417 874 b 278 1013 417 950 356 1013 b 139 874 201 1013 139 950 b 221 747 139 817 172 768 l 154 675 l 219 613 l 376 775 b 417 874 401 800 417 835 z "},"‚":{"ha":556,"x_min":0,"x_max":0,"o":"m 417 111 b 278 250 417 188 356 250 b 139 111 201 250 139 188 b 221 -15 139 54 172 6 l 154 -87 l 219 -150 l 376 13 b 417 111 401 38 417 72 z "},"¢":{"ha":972,"x_min":0,"x_max":0,"o":"m 511 283 b 306 489 397 283 306 375 b 511 693 306 601 397 693 b 690 590 586 693 651 656 l 833 675 b 594 850 782 763 696 828 l 594 1013 l 428 1013 l 428 850 b 139 489 263 813 139 665 b 428 126 139 313 263 164 l 428 -36 l 594 -36 l 594 126 b 833 301 696 150 783 214 l 689 385 b 511 283 653 322 585 283 z "},"₡":{"ha":972,"x_min":0,"x_max":0,"o":"m 528 893 l 513 893 b 107 489 288 893 107 713 b 213 217 107 385 147 289 l 161 107 l 268 57 l 683 949 l 576 999 z m 864 692 b 815 757 850 715 833 738 l 865 864 l 758 914 l 343 22 l 450 -28 l 501 83 l 513 83 b 864 285 657 83 792 161 l 719 368 b 585 261 689 317 640 279 l 756 628 z m 274 489 b 446 717 274 597 346 688 l 294 393 b 274 489 281 422 274 454 z "},"¤":{"ha":972,"x_min":0,"x_max":0,"o":"m 757 301 b 814 489 793 356 814 419 b 756 676 814 558 793 624 l 897 818 l 815 901 l 675 761 b 481 822 619 800 553 822 b 293 765 411 822 347 801 l 157 901 l 74 818 l 208 683 b 147 489 169 628 147 561 b 210 293 147 415 171 349 l 74 160 l 157 76 l 293 213 b 481 156 347 176 411 156 b 675 217 553 156 619 178 l 815 76 l 899 160 z m 481 322 b 314 489 388 322 314 396 b 481 656 314 582 388 656 b 647 489 574 656 647 582 b 481 322 647 396 574 322 z "},"$":{"ha":972,"x_min":0,"x_max":0,"o":"m 354 569 b 285 639 315 569 285 600 b 354 708 285 678 315 708 l 764 708 l 764 875 l 569 875 l 569 1013 l 403 1013 l 403 875 l 354 875 b 118 639 224 875 118 769 b 354 403 118 507 222 403 l 618 403 b 688 333 657 403 688 372 b 618 264 688 294 657 264 l 181 264 l 181 97 l 403 97 l 403 -36 l 569 -36 l 569 97 l 618 97 b 854 333 747 97 854 203 b 618 569 854 465 750 569 z "},"€":{"ha":972,"x_min":0,"x_max":0,"o":"m 626 931 b 265 646 450 931 304 810 l 138 646 l 138 528 l 721 528 l 721 646 l 440 646 b 626 764 472 715 543 764 l 835 764 l 835 931 z m 721 326 l 721 444 l 138 444 l 138 326 l 265 326 b 626 42 304 163 450 42 l 835 42 l 835 208 l 626 208 b 440 326 543 208 472 257 z "}}}
